G04*
G04 #@! TF.GenerationSoftware,Altium Limited,Altium Designer,20.0.13 (296)*
G04*
G04 Layer_Physical_Order=2*
G04 Layer_Color=36540*
%FSLAX44Y44*%
%MOMM*%
G71*
G01*
G75*
%ADD50C,0.2540*%
%ADD52C,0.3000*%
%ADD58R,1.5240X3.0480*%
%ADD61C,1.6000*%
%ADD66C,1.2880*%
%ADD69C,1.5000*%
%ADD70C,0.8000*%
%ADD71C,1.2700*%
G36*
X460431Y3569D02*
X3569D01*
Y444931D01*
X460431D01*
Y3569D01*
D02*
G37*
%LPC*%
G36*
X358000Y412450D02*
X338000D01*
Y392450D01*
X358000D01*
Y412450D01*
D02*
G37*
G36*
X349270Y387514D02*
Y378320D01*
X358464D01*
X358269Y379801D01*
X357207Y382365D01*
X355517Y384567D01*
X353316Y386257D01*
X350751Y387319D01*
X349270Y387514D01*
D02*
G37*
G36*
X346730Y387514D02*
X345248Y387319D01*
X342685Y386257D01*
X340483Y384567D01*
X338793Y382365D01*
X337731Y379801D01*
X337536Y378320D01*
X346730D01*
Y387514D01*
D02*
G37*
G36*
Y375780D02*
X337536D01*
X337731Y374299D01*
X338793Y371735D01*
X340483Y369533D01*
X342685Y367843D01*
X345248Y366781D01*
X346730Y366586D01*
Y375780D01*
D02*
G37*
G36*
X358464D02*
X349270D01*
Y366586D01*
X350751Y366781D01*
X353316Y367843D01*
X355517Y369533D01*
X357207Y371735D01*
X358269Y374299D01*
X358464Y375780D01*
D02*
G37*
G36*
X445000Y375700D02*
X426000D01*
Y356700D01*
X445000D01*
Y375700D01*
D02*
G37*
G36*
X115436Y364554D02*
X113095Y364088D01*
X111110Y362762D01*
X109784Y360777D01*
X109319Y358436D01*
X109784Y356095D01*
X111110Y354110D01*
X113095Y352784D01*
X115436Y352319D01*
X117777Y352784D01*
X119762Y354110D01*
X121088Y356095D01*
X121554Y358436D01*
X121088Y360777D01*
X119762Y362762D01*
X117777Y364088D01*
X115436Y364554D01*
D02*
G37*
G36*
X137520Y356549D02*
Y349020D01*
X145049D01*
X144911Y350071D01*
X144015Y352233D01*
X142590Y354090D01*
X140733Y355515D01*
X138571Y356411D01*
X137520Y356549D01*
D02*
G37*
G36*
X134980D02*
X133929Y356411D01*
X131767Y355515D01*
X129910Y354090D01*
X128485Y352233D01*
X127589Y350071D01*
X127451Y349020D01*
X134980D01*
Y356549D01*
D02*
G37*
G36*
X145049Y346480D02*
X137520D01*
Y338951D01*
X138571Y339089D01*
X140733Y339985D01*
X142590Y341410D01*
X144015Y343267D01*
X144911Y345429D01*
X145049Y346480D01*
D02*
G37*
G36*
X134980D02*
X127451D01*
X127589Y345429D01*
X128485Y343267D01*
X129910Y341410D01*
X131767Y339985D01*
X133929Y339089D01*
X134980Y338951D01*
Y346480D01*
D02*
G37*
G36*
X435500Y350382D02*
X433020Y350056D01*
X430709Y349098D01*
X428725Y347575D01*
X427202Y345591D01*
X426245Y343280D01*
X425918Y340800D01*
X426245Y338320D01*
X427202Y336009D01*
X428725Y334025D01*
X430709Y332502D01*
X433020Y331544D01*
X435500Y331218D01*
X437980Y331544D01*
X440291Y332502D01*
X442275Y334025D01*
X443798Y336009D01*
X444755Y338320D01*
X445082Y340800D01*
X444755Y343280D01*
X443798Y345591D01*
X442275Y347575D01*
X440291Y349098D01*
X437980Y350056D01*
X435500Y350382D01*
D02*
G37*
G36*
X261500Y336618D02*
X259159Y336152D01*
X257174Y334826D01*
X255848Y332841D01*
X255382Y330500D01*
X255848Y328159D01*
X257174Y326174D01*
X259159Y324848D01*
X261500Y324383D01*
X263841Y324848D01*
X265826Y326174D01*
X267152Y328159D01*
X267617Y330500D01*
X267152Y332841D01*
X265826Y334826D01*
X263841Y336152D01*
X261500Y336618D01*
D02*
G37*
G36*
X35770Y330299D02*
Y322770D01*
X43299D01*
X43161Y323821D01*
X42265Y325983D01*
X40840Y327840D01*
X38983Y329265D01*
X36821Y330161D01*
X35770Y330299D01*
D02*
G37*
G36*
X33230D02*
X32179Y330161D01*
X30017Y329265D01*
X28160Y327840D01*
X26735Y325983D01*
X25839Y323821D01*
X25701Y322770D01*
X33230D01*
Y330299D01*
D02*
G37*
G36*
X436770Y325359D02*
Y316670D01*
X445459D01*
X445282Y318021D01*
X444270Y320463D01*
X442661Y322561D01*
X440563Y324170D01*
X438121Y325182D01*
X436770Y325359D01*
D02*
G37*
G36*
X434230D02*
X432879Y325182D01*
X430437Y324170D01*
X428339Y322561D01*
X426730Y320463D01*
X425718Y318021D01*
X425541Y316670D01*
X434230D01*
Y325359D01*
D02*
G37*
G36*
X72500Y355844D02*
X68677Y355468D01*
X65002Y354353D01*
X61614Y352542D01*
X58645Y350105D01*
X56208Y347136D01*
X54397Y343748D01*
X53282Y340073D01*
X52906Y336250D01*
X53282Y332427D01*
X54397Y328752D01*
X56208Y325364D01*
X58645Y322395D01*
X61614Y319958D01*
X65002Y318147D01*
X68677Y317032D01*
X72500Y316656D01*
X76323Y317032D01*
X79998Y318147D01*
X83386Y319958D01*
X86355Y322395D01*
X88792Y325364D01*
X90603Y328752D01*
X91718Y332427D01*
X92094Y336250D01*
X91718Y340073D01*
X90603Y343748D01*
X88792Y347136D01*
X86355Y350105D01*
X83386Y352542D01*
X79998Y354353D01*
X76323Y355468D01*
X72500Y355844D01*
D02*
G37*
G36*
X249262Y327883D02*
X246921Y327418D01*
X244936Y326091D01*
X243610Y324107D01*
X243145Y321766D01*
X243610Y319425D01*
X244936Y317440D01*
X246921Y316114D01*
X249262Y315648D01*
X251603Y316114D01*
X253588Y317440D01*
X254914Y319425D01*
X255380Y321766D01*
X254914Y324107D01*
X253588Y326091D01*
X251603Y327418D01*
X249262Y327883D01*
D02*
G37*
G36*
X43299Y320230D02*
X35770D01*
Y312701D01*
X36821Y312839D01*
X38983Y313735D01*
X40840Y315160D01*
X42265Y317017D01*
X43161Y319179D01*
X43299Y320230D01*
D02*
G37*
G36*
X33230D02*
X25701D01*
X25839Y319179D01*
X26735Y317017D01*
X28160Y315160D01*
X30017Y313735D01*
X32179Y312839D01*
X33230Y312701D01*
Y320230D01*
D02*
G37*
G36*
X210010Y323883D02*
X207669Y323417D01*
X205685Y322091D01*
X204358Y320107D01*
X203893Y317766D01*
X204358Y315424D01*
X205685Y313440D01*
X207669Y312114D01*
X210010Y311648D01*
X212351Y312114D01*
X214336Y313440D01*
X215662Y315424D01*
X216128Y317766D01*
X215662Y320107D01*
X214336Y322091D01*
X212351Y323417D01*
X210010Y323883D01*
D02*
G37*
G36*
X262500Y321618D02*
X260159Y321152D01*
X258174Y319826D01*
X256848Y317841D01*
X256383Y315500D01*
X256848Y313159D01*
X258174Y311174D01*
X260159Y309848D01*
X262500Y309382D01*
X264841Y309848D01*
X266826Y311174D01*
X268152Y313159D01*
X268617Y315500D01*
X268152Y317841D01*
X266826Y319826D01*
X264841Y321152D01*
X262500Y321618D01*
D02*
G37*
G36*
X445459Y314130D02*
X436770D01*
Y305441D01*
X438121Y305618D01*
X440563Y306630D01*
X442661Y308239D01*
X444270Y310337D01*
X445282Y312779D01*
X445459Y314130D01*
D02*
G37*
G36*
X434230D02*
X425541D01*
X425718Y312779D01*
X426730Y310337D01*
X428339Y308239D01*
X430437Y306630D01*
X432879Y305618D01*
X434230Y305441D01*
Y314130D01*
D02*
G37*
G36*
X225761Y317383D02*
X223420Y316917D01*
X221435Y315591D01*
X220109Y313606D01*
X219643Y311265D01*
X220109Y308924D01*
X221435Y306939D01*
X223420Y305613D01*
X225761Y305148D01*
X228102Y305613D01*
X230087Y306939D01*
X231413Y308924D01*
X231879Y311265D01*
X231413Y313606D01*
X230087Y315591D01*
X228102Y316917D01*
X225761Y317383D01*
D02*
G37*
G36*
X35770Y306549D02*
Y299020D01*
X43299D01*
X43161Y300071D01*
X42265Y302233D01*
X40840Y304090D01*
X38983Y305515D01*
X36821Y306411D01*
X35770Y306549D01*
D02*
G37*
G36*
X33230D02*
X32179Y306411D01*
X30017Y305515D01*
X28160Y304090D01*
X26735Y302233D01*
X25839Y300071D01*
X25701Y299020D01*
X33230D01*
Y306549D01*
D02*
G37*
G36*
X271500Y367368D02*
X269159Y366902D01*
X267174Y365576D01*
X265848Y363591D01*
X265382Y361250D01*
X265848Y358909D01*
X267174Y356924D01*
X269159Y355598D01*
X271500Y355132D01*
X271856Y355203D01*
X272113Y355181D01*
X272351Y355143D01*
X272566Y355092D01*
X272760Y355028D01*
X272937Y354954D01*
X273099Y354869D01*
X273252Y354771D01*
X273304Y354731D01*
X291166Y336869D01*
Y308135D01*
X291158Y308070D01*
X291119Y307893D01*
X291064Y307718D01*
X290992Y307541D01*
X290899Y307359D01*
X290784Y307171D01*
X290642Y306975D01*
X290476Y306778D01*
X290174Y306576D01*
X288848Y304591D01*
X288382Y302250D01*
X288848Y299909D01*
X290174Y297924D01*
X292159Y296598D01*
X294500Y296133D01*
X296841Y296598D01*
X298826Y297924D01*
X300152Y299909D01*
X300618Y302250D01*
X300152Y304591D01*
X298826Y306576D01*
X298524Y306778D01*
X298358Y306975D01*
X298216Y307171D01*
X298101Y307359D01*
X298008Y307541D01*
X297936Y307718D01*
X297881Y307893D01*
X297843Y308070D01*
X297834Y308135D01*
Y338250D01*
X297580Y339526D01*
X296857Y340607D01*
X278019Y359446D01*
X277979Y359498D01*
X277881Y359651D01*
X277796Y359813D01*
X277722Y359990D01*
X277659Y360184D01*
X277607Y360399D01*
X277569Y360637D01*
X277547Y360894D01*
X277617Y361250D01*
X277152Y363591D01*
X275826Y365576D01*
X273841Y366902D01*
X271500Y367368D01*
D02*
G37*
G36*
X43299Y296480D02*
X35770D01*
Y288951D01*
X36821Y289089D01*
X38983Y289985D01*
X40840Y291410D01*
X42265Y293267D01*
X43161Y295429D01*
X43299Y296480D01*
D02*
G37*
G36*
X33230D02*
X25701D01*
X25839Y295429D01*
X26735Y293267D01*
X28160Y291410D01*
X30017Y289985D01*
X32179Y289089D01*
X33230Y288951D01*
Y296480D01*
D02*
G37*
G36*
X435500Y299582D02*
X433020Y299256D01*
X430709Y298298D01*
X428725Y296775D01*
X427202Y294791D01*
X426245Y292480D01*
X425918Y290000D01*
X426245Y287520D01*
X427202Y285209D01*
X428725Y283225D01*
X430709Y281702D01*
X433020Y280744D01*
X435500Y280418D01*
X437980Y280744D01*
X440291Y281702D01*
X442275Y283225D01*
X443798Y285209D01*
X444755Y287520D01*
X445082Y290000D01*
X444755Y292480D01*
X443798Y294791D01*
X442275Y296775D01*
X440291Y298298D01*
X437980Y299256D01*
X435500Y299582D01*
D02*
G37*
G36*
X154000Y281117D02*
X151659Y280652D01*
X149674Y279326D01*
X148348Y277341D01*
X147882Y275000D01*
X148060Y274107D01*
X94977Y221023D01*
X94203Y219866D01*
X93931Y218500D01*
Y132582D01*
X93174Y132076D01*
X91848Y130091D01*
X91383Y127750D01*
X91848Y125409D01*
X93174Y123424D01*
X95159Y122098D01*
X97500Y121632D01*
X99841Y122098D01*
X101826Y123424D01*
X103152Y125409D01*
X103617Y127750D01*
X103152Y130091D01*
X101826Y132076D01*
X101069Y132582D01*
Y217022D01*
X153107Y269060D01*
X154000Y268883D01*
X156341Y269348D01*
X158326Y270674D01*
X159652Y272659D01*
X160117Y275000D01*
X159652Y277341D01*
X158326Y279326D01*
X156341Y280652D01*
X154000Y281117D01*
D02*
G37*
G36*
X203000Y422368D02*
X200659Y421902D01*
X198674Y420576D01*
X197348Y418591D01*
X196882Y416250D01*
X197115Y415080D01*
X186642Y404608D01*
X185920Y403526D01*
X185666Y402250D01*
Y304250D01*
X185920Y302974D01*
X186642Y301893D01*
X219142Y269393D01*
X220224Y268670D01*
X221500Y268416D01*
X309762D01*
X310424Y267424D01*
X312409Y266098D01*
X314750Y265632D01*
X317091Y266098D01*
X319076Y267424D01*
X320402Y269409D01*
X320868Y271750D01*
X320402Y274091D01*
X319076Y276076D01*
X317091Y277402D01*
X316582Y277503D01*
Y278798D01*
X318091Y279098D01*
X320076Y280424D01*
X321402Y282409D01*
X321867Y284750D01*
X321402Y287091D01*
X320076Y289076D01*
X319084Y289738D01*
Y365750D01*
X318830Y367026D01*
X318107Y368108D01*
X296885Y389330D01*
X297118Y390500D01*
X296652Y392841D01*
X295326Y394826D01*
X293341Y396152D01*
X292582Y396303D01*
Y397598D01*
X293841Y397848D01*
X295826Y399174D01*
X297152Y401159D01*
X297617Y403500D01*
X297152Y405841D01*
X295826Y407826D01*
X293841Y409152D01*
X291500Y409618D01*
X290330Y409385D01*
X284107Y415607D01*
X283026Y416330D01*
X281750Y416584D01*
X231250D01*
X229974Y416330D01*
X228892Y415607D01*
X220153Y406868D01*
X219431Y405787D01*
X219177Y404511D01*
Y331004D01*
X218185Y330342D01*
X216859Y328357D01*
X216393Y326016D01*
X216859Y323675D01*
X218185Y321690D01*
X220170Y320364D01*
X222511Y319898D01*
X224852Y320364D01*
X226837Y321690D01*
X227319Y322412D01*
X228667Y322143D01*
X228860Y321175D01*
X230186Y319190D01*
X232170Y317864D01*
X234511Y317398D01*
X236852Y317864D01*
X238837Y319190D01*
X240163Y321175D01*
X240629Y323516D01*
X240163Y325857D01*
X238837Y327841D01*
X236852Y329168D01*
X234511Y329633D01*
X232170Y329168D01*
X230186Y327841D01*
X229704Y327120D01*
X228355Y327388D01*
X228163Y328357D01*
X226837Y330342D01*
X225845Y331004D01*
Y403130D01*
X232631Y409916D01*
X280369D01*
X285615Y404670D01*
X285382Y403500D01*
X285848Y401159D01*
X287174Y399174D01*
X289159Y397848D01*
X289918Y397697D01*
Y396402D01*
X288659Y396152D01*
X286674Y394826D01*
X285348Y392841D01*
X284883Y390500D01*
X285348Y388159D01*
X286674Y386174D01*
X288659Y384848D01*
X291000Y384383D01*
X292170Y384615D01*
X304322Y372463D01*
X303953Y371248D01*
X303393Y371136D01*
X301409Y369810D01*
X300082Y367825D01*
X299726Y366035D01*
X298405Y365560D01*
X258063Y405902D01*
X256981Y406625D01*
X255705Y406879D01*
X245746D01*
X243841Y408152D01*
X241500Y408618D01*
X239159Y408152D01*
X237174Y406826D01*
X235848Y404841D01*
X235382Y402500D01*
X235848Y400159D01*
X237174Y398174D01*
X239159Y396848D01*
X241500Y396382D01*
X243336Y396748D01*
X244451Y395844D01*
X244382Y395500D01*
X244848Y393159D01*
X246174Y391174D01*
X248159Y389848D01*
X250500Y389383D01*
X252841Y389848D01*
X254826Y391174D01*
X256152Y393159D01*
X256618Y395500D01*
X256463Y396276D01*
X257634Y396901D01*
X304541Y349994D01*
Y299988D01*
X303549Y299326D01*
X302223Y297341D01*
X301758Y295000D01*
X302223Y292659D01*
X303549Y290674D01*
X305534Y289348D01*
X307875Y288883D01*
X310058Y289317D01*
X310462Y288965D01*
X310897Y288287D01*
X310098Y287091D01*
X309632Y284750D01*
X310098Y282409D01*
X311424Y280424D01*
X313409Y279098D01*
X313918Y278997D01*
Y277702D01*
X312409Y277402D01*
X310424Y276076D01*
X309762Y275084D01*
X222881D01*
X192334Y305631D01*
Y400869D01*
X201830Y410365D01*
X203000Y410132D01*
X205341Y410598D01*
X207326Y411924D01*
X208652Y413909D01*
X209118Y416250D01*
X208652Y418591D01*
X207326Y420576D01*
X205341Y421902D01*
X203000Y422368D01*
D02*
G37*
G36*
X435500Y274182D02*
X433020Y273855D01*
X430709Y272898D01*
X428725Y271376D01*
X427202Y269391D01*
X426245Y267080D01*
X425918Y264600D01*
X426245Y262120D01*
X427202Y259809D01*
X428725Y257825D01*
X430709Y256302D01*
X433020Y255345D01*
X435500Y255018D01*
X437980Y255345D01*
X440291Y256302D01*
X442275Y257825D01*
X443798Y259809D01*
X444755Y262120D01*
X445082Y264600D01*
X444755Y267080D01*
X443798Y269391D01*
X442275Y271376D01*
X440291Y272898D01*
X437980Y273855D01*
X435500Y274182D01*
D02*
G37*
G36*
X298197Y265171D02*
X295856Y264705D01*
X293871Y263379D01*
X292545Y261394D01*
X292079Y259053D01*
X292545Y256712D01*
X293871Y254728D01*
X295856Y253401D01*
X298197Y252936D01*
X300538Y253401D01*
X302522Y254728D01*
X303849Y256712D01*
X304314Y259053D01*
X303849Y261394D01*
X302522Y263379D01*
X300538Y264705D01*
X298197Y265171D01*
D02*
G37*
G36*
X348000Y336336D02*
X345390Y335993D01*
X342957Y334985D01*
X340868Y333382D01*
X339265Y331293D01*
X338257Y328861D01*
X337914Y326250D01*
X338257Y323639D01*
X339265Y321207D01*
X340868Y319118D01*
X341301Y318785D01*
X341255Y318528D01*
X340921Y317476D01*
X337951Y315889D01*
X335210Y313640D01*
X332961Y310899D01*
X331290Y307772D01*
X330261Y304379D01*
X329913Y300850D01*
X330261Y297321D01*
X331290Y293928D01*
X332961Y290801D01*
X335210Y288060D01*
X337951Y285811D01*
X340921Y284224D01*
X341255Y283172D01*
X341301Y282915D01*
X340868Y282582D01*
X339265Y280493D01*
X338257Y278060D01*
X337914Y275450D01*
X338257Y272840D01*
X339265Y270407D01*
X340868Y268318D01*
X341301Y267985D01*
X341255Y267728D01*
X340921Y266676D01*
X337951Y265089D01*
X335210Y262840D01*
X332961Y260099D01*
X331290Y256972D01*
X330261Y253579D01*
X329913Y250050D01*
X330261Y246521D01*
X331290Y243128D01*
X332961Y240001D01*
X335210Y237260D01*
X337951Y235011D01*
X341078Y233340D01*
X344471Y232311D01*
X348000Y231963D01*
X351529Y232311D01*
X354922Y233340D01*
X358049Y235011D01*
X360789Y237260D01*
X363039Y240001D01*
X364710Y243128D01*
X365740Y246521D01*
X366087Y250050D01*
X365740Y253579D01*
X364710Y256972D01*
X363039Y260099D01*
X360789Y262840D01*
X358049Y265089D01*
X355079Y266676D01*
X354745Y267728D01*
X354699Y267985D01*
X355132Y268318D01*
X356735Y270407D01*
X357743Y272840D01*
X358086Y275450D01*
X357743Y278060D01*
X356735Y280493D01*
X355132Y282582D01*
X354699Y282915D01*
X354745Y283172D01*
X355079Y284224D01*
X358049Y285811D01*
X360789Y288060D01*
X363039Y290801D01*
X364710Y293928D01*
X365740Y297321D01*
X366087Y300850D01*
X365740Y304379D01*
X364710Y307772D01*
X363039Y310899D01*
X360789Y313640D01*
X358049Y315889D01*
X355079Y317476D01*
X354745Y318528D01*
X354699Y318785D01*
X355132Y319118D01*
X356735Y321207D01*
X357743Y323639D01*
X358086Y326250D01*
X357743Y328861D01*
X356735Y331293D01*
X355132Y333382D01*
X353043Y334985D01*
X350611Y335993D01*
X348000Y336336D01*
D02*
G37*
G36*
X60270Y227799D02*
Y220270D01*
X67800D01*
X67661Y221321D01*
X66765Y223483D01*
X65340Y225340D01*
X63483Y226765D01*
X61321Y227661D01*
X60270Y227799D01*
D02*
G37*
G36*
X57730D02*
X56679Y227661D01*
X54517Y226765D01*
X52660Y225340D01*
X51235Y223483D01*
X50339Y221321D01*
X50201Y220270D01*
X57730D01*
Y227799D01*
D02*
G37*
G36*
X440810Y236530D02*
X431920D01*
Y220020D01*
X440810D01*
Y236530D01*
D02*
G37*
G36*
X429380D02*
X420490D01*
Y220020D01*
X429380D01*
Y236530D01*
D02*
G37*
G36*
X67800Y217730D02*
X60270D01*
Y210201D01*
X61321Y210339D01*
X63483Y211235D01*
X65340Y212660D01*
X66765Y214517D01*
X67661Y216679D01*
X67800Y217730D01*
D02*
G37*
G36*
X57730D02*
X50201D01*
X50339Y216679D01*
X51235Y214517D01*
X52660Y212660D01*
X54517Y211235D01*
X56679Y210339D01*
X57730Y210201D01*
Y217730D01*
D02*
G37*
G36*
X405250Y236073D02*
X402739Y235742D01*
X400398Y234773D01*
X398389Y233231D01*
X396847Y231222D01*
X395878Y228881D01*
X395547Y226370D01*
Y211130D01*
X395878Y208619D01*
X396847Y206278D01*
X398389Y204269D01*
X400398Y202727D01*
X402739Y201758D01*
X405250Y201427D01*
X407761Y201758D01*
X410102Y202727D01*
X412111Y204269D01*
X413653Y206278D01*
X414622Y208619D01*
X414953Y211130D01*
Y226370D01*
X414622Y228881D01*
X413653Y231222D01*
X412111Y233231D01*
X410102Y234773D01*
X407761Y235742D01*
X405250Y236073D01*
D02*
G37*
G36*
X379850D02*
X377339Y235742D01*
X374999Y234773D01*
X372989Y233231D01*
X371447Y231222D01*
X370478Y228881D01*
X370147Y226370D01*
Y211130D01*
X370478Y208619D01*
X371447Y206278D01*
X372989Y204269D01*
X374999Y202727D01*
X377339Y201758D01*
X379850Y201427D01*
X382361Y201758D01*
X384701Y202727D01*
X386711Y204269D01*
X388253Y206278D01*
X389222Y208619D01*
X389553Y211130D01*
Y226370D01*
X389222Y228881D01*
X388253Y231222D01*
X386711Y233231D01*
X384701Y234773D01*
X382361Y235742D01*
X379850Y236073D01*
D02*
G37*
G36*
X440810Y217480D02*
X431920D01*
Y200970D01*
X440810D01*
Y217480D01*
D02*
G37*
G36*
X429380D02*
X420490D01*
Y200970D01*
X429380D01*
Y217480D01*
D02*
G37*
G36*
X274250Y201121D02*
X270595Y200640D01*
X267190Y199229D01*
X264265Y196985D01*
X262021Y194060D01*
X260610Y190655D01*
X260129Y187000D01*
X260610Y183345D01*
X262021Y179940D01*
X264265Y177015D01*
X267190Y174771D01*
X270595Y173360D01*
X274250Y172879D01*
X277905Y173360D01*
X281310Y174771D01*
X284235Y177015D01*
X286479Y179940D01*
X287890Y183345D01*
X288371Y187000D01*
X287890Y190655D01*
X286479Y194060D01*
X284235Y196985D01*
X281310Y199229D01*
X277905Y200640D01*
X274250Y201121D01*
D02*
G37*
G36*
X145040Y178790D02*
X129960D01*
Y163710D01*
X145040D01*
Y178790D01*
D02*
G37*
G36*
X137500Y158855D02*
X135532Y158596D01*
X133698Y157836D01*
X132122Y156628D01*
X130914Y155052D01*
X130154Y153218D01*
X129895Y151250D01*
X130154Y149282D01*
X130914Y147448D01*
X132122Y145872D01*
X133698Y144664D01*
X135532Y143904D01*
X137500Y143645D01*
X139468Y143904D01*
X141302Y144664D01*
X142878Y145872D01*
X144086Y147448D01*
X144846Y149282D01*
X145105Y151250D01*
X144846Y153218D01*
X144086Y155052D01*
X142878Y156628D01*
X141302Y157836D01*
X139468Y158596D01*
X137500Y158855D01*
D02*
G37*
G36*
X272820Y134390D02*
Y126770D01*
X280440D01*
X280299Y127844D01*
X279394Y130029D01*
X277955Y131905D01*
X276079Y133344D01*
X273894Y134249D01*
X272820Y134390D01*
D02*
G37*
G36*
X270280D02*
X269206Y134249D01*
X267021Y133344D01*
X265145Y131905D01*
X263706Y130029D01*
X262801Y127844D01*
X262660Y126770D01*
X270280D01*
Y134390D01*
D02*
G37*
G36*
X137500Y138855D02*
X135532Y138596D01*
X133698Y137836D01*
X132122Y136628D01*
X130914Y135052D01*
X130154Y133218D01*
X129895Y131250D01*
X130154Y129282D01*
X130914Y127447D01*
X132122Y125872D01*
X133698Y124664D01*
X135532Y123904D01*
X137500Y123645D01*
X139468Y123904D01*
X141302Y124664D01*
X142878Y125872D01*
X144086Y127447D01*
X144846Y129282D01*
X145105Y131250D01*
X144846Y133218D01*
X144086Y135052D01*
X142878Y136628D01*
X141302Y137836D01*
X139468Y138596D01*
X137500Y138855D01*
D02*
G37*
G36*
X229190Y133940D02*
X212310D01*
Y117060D01*
X229190D01*
Y133940D01*
D02*
G37*
G36*
X296950Y134013D02*
X294747Y133723D01*
X292694Y132872D01*
X290931Y131519D01*
X289578Y129756D01*
X288727Y127703D01*
X288437Y125500D01*
X288727Y123297D01*
X289578Y121244D01*
X290931Y119480D01*
X292694Y118128D01*
X294747Y117277D01*
X296950Y116987D01*
X299153Y117277D01*
X301206Y118128D01*
X302969Y119480D01*
X304322Y121244D01*
X305173Y123297D01*
X305463Y125500D01*
X305173Y127703D01*
X304322Y129756D01*
X302969Y131519D01*
X301206Y132872D01*
X299153Y133723D01*
X296950Y134013D01*
D02*
G37*
G36*
X246150D02*
X243947Y133723D01*
X241894Y132872D01*
X240131Y131519D01*
X238778Y129756D01*
X237927Y127703D01*
X237637Y125500D01*
X237927Y123297D01*
X238778Y121244D01*
X240131Y119480D01*
X241894Y118128D01*
X243947Y117277D01*
X246150Y116987D01*
X248353Y117277D01*
X250406Y118128D01*
X252169Y119480D01*
X253522Y121244D01*
X254373Y123297D01*
X254663Y125500D01*
X254373Y127703D01*
X253522Y129756D01*
X252169Y131519D01*
X250406Y132872D01*
X248353Y133723D01*
X246150Y134013D01*
D02*
G37*
G36*
X280440Y124230D02*
X272820D01*
Y116610D01*
X273894Y116751D01*
X276079Y117656D01*
X277955Y119095D01*
X279394Y120971D01*
X280299Y123156D01*
X280440Y124230D01*
D02*
G37*
G36*
X270280D02*
X262660D01*
X262801Y123156D01*
X263706Y120971D01*
X265145Y119095D01*
X267021Y117656D01*
X269206Y116751D01*
X270280Y116610D01*
Y124230D01*
D02*
G37*
G36*
X336250Y174586D02*
X333639Y174243D01*
X331207Y173235D01*
X329118Y171632D01*
X327515Y169543D01*
X326507Y167111D01*
X326164Y164500D01*
X326507Y161889D01*
X327515Y159457D01*
X329118Y157368D01*
X329551Y157035D01*
X329505Y156778D01*
X329171Y155726D01*
X326201Y154139D01*
X323461Y151889D01*
X321211Y149149D01*
X319540Y146022D01*
X318510Y142629D01*
X318163Y139100D01*
X318510Y135571D01*
X319300Y132970D01*
X318414Y131700D01*
X318250D01*
Y95700D01*
X354250D01*
Y131700D01*
X354086D01*
X353200Y132970D01*
X353989Y135571D01*
X354337Y139100D01*
X353989Y142629D01*
X352960Y146022D01*
X351289Y149149D01*
X349039Y151889D01*
X346299Y154139D01*
X343329Y155726D01*
X342995Y156778D01*
X342949Y157035D01*
X343382Y157368D01*
X344985Y159457D01*
X345993Y161889D01*
X346336Y164500D01*
X345993Y167111D01*
X344985Y169543D01*
X343382Y171632D01*
X341293Y173235D01*
X338861Y174243D01*
X336250Y174586D01*
D02*
G37*
G36*
X232700Y84112D02*
X229167Y83764D01*
X225769Y82733D01*
X222637Y81060D01*
X219893Y78807D01*
X217640Y76063D01*
X216070Y73125D01*
X214768Y72735D01*
X214450Y73150D01*
X212356Y74757D01*
X209917Y75767D01*
X207300Y76111D01*
X204683Y75767D01*
X202244Y74757D01*
X200150Y73150D01*
X199832Y72735D01*
X198530Y73125D01*
X196960Y76063D01*
X194707Y78807D01*
X191963Y81060D01*
X188831Y82733D01*
X185434Y83764D01*
X181900Y84112D01*
X178367Y83764D01*
X174969Y82733D01*
X171837Y81060D01*
X169093Y78807D01*
X166840Y76063D01*
X165270Y73125D01*
X163968Y72735D01*
X163650Y73150D01*
X161556Y74757D01*
X159117Y75767D01*
X156500Y76111D01*
X153883Y75767D01*
X151444Y74757D01*
X149350Y73150D01*
X147743Y71056D01*
X146733Y68617D01*
X146389Y66000D01*
X146733Y63383D01*
X147743Y60944D01*
X149350Y58850D01*
X151444Y57243D01*
X153883Y56233D01*
X156500Y55889D01*
X159117Y56233D01*
X161556Y57243D01*
X163650Y58850D01*
X163968Y59265D01*
X165270Y58875D01*
X166840Y55937D01*
X169093Y53193D01*
X171837Y50940D01*
X174775Y49370D01*
X175165Y48068D01*
X174750Y47750D01*
X173143Y45656D01*
X172133Y43217D01*
X171789Y40600D01*
X172133Y37983D01*
X173143Y35544D01*
X174750Y33450D01*
X176844Y31843D01*
X179283Y30833D01*
X181900Y30489D01*
X184517Y30833D01*
X186956Y31843D01*
X189050Y33450D01*
X190657Y35544D01*
X191667Y37983D01*
X192012Y40600D01*
X191667Y43217D01*
X190657Y45656D01*
X189050Y47750D01*
X188635Y48068D01*
X189025Y49370D01*
X191963Y50940D01*
X194707Y53193D01*
X196960Y55937D01*
X198530Y58875D01*
X199832Y59265D01*
X200150Y58850D01*
X202244Y57243D01*
X204683Y56233D01*
X207300Y55889D01*
X209917Y56233D01*
X212356Y57243D01*
X214450Y58850D01*
X214768Y59265D01*
X216070Y58875D01*
X217640Y55937D01*
X219805Y53300D01*
X217640Y50663D01*
X216070Y47725D01*
X214768Y47335D01*
X214450Y47750D01*
X212356Y49357D01*
X209917Y50367D01*
X207300Y50711D01*
X204683Y50367D01*
X202244Y49357D01*
X200150Y47750D01*
X198543Y45656D01*
X197533Y43217D01*
X197188Y40600D01*
X197533Y37983D01*
X198543Y35544D01*
X200150Y33450D01*
X202244Y31843D01*
X204683Y30833D01*
X207300Y30489D01*
X209917Y30833D01*
X212356Y31843D01*
X214450Y33450D01*
X214768Y33865D01*
X216070Y33475D01*
X217640Y30537D01*
X219893Y27793D01*
X222637Y25540D01*
X225769Y23867D01*
X229167Y22836D01*
X232700Y22488D01*
X236234Y22836D01*
X239631Y23867D01*
X242763Y25540D01*
X245400Y27705D01*
X248037Y25540D01*
X251169Y23867D01*
X254566Y22836D01*
X258100Y22488D01*
X261633Y22836D01*
X265031Y23867D01*
X268163Y25540D01*
X270907Y27793D01*
X273160Y30537D01*
X274834Y33669D01*
X275864Y37067D01*
X276212Y40600D01*
X275864Y44134D01*
X275084Y46705D01*
X275987Y47975D01*
X276125D01*
Y84025D01*
X240075D01*
Y83887D01*
X238805Y82984D01*
X236234Y83764D01*
X232700Y84112D01*
D02*
G37*
G36*
X308500Y80371D02*
X304845Y79890D01*
X301440Y78479D01*
X298515Y76235D01*
X296271Y73310D01*
X294860Y69905D01*
X294379Y66250D01*
X294860Y62595D01*
X296271Y59190D01*
X298515Y56265D01*
X301440Y54021D01*
X304845Y52610D01*
X308500Y52129D01*
X312155Y52610D01*
X315496Y53994D01*
X317015Y52015D01*
X319940Y49771D01*
X323345Y48360D01*
X327000Y47879D01*
X330655Y48360D01*
X334060Y49771D01*
X336985Y52015D01*
X339229Y54940D01*
X340640Y58345D01*
X341121Y62000D01*
X340640Y65655D01*
X339229Y69060D01*
X336985Y71985D01*
X334060Y74229D01*
X330655Y75640D01*
X327000Y76121D01*
X323345Y75640D01*
X320004Y74256D01*
X318485Y76235D01*
X315560Y78479D01*
X312155Y79890D01*
X308500Y80371D01*
D02*
G37*
G36*
X156500Y50711D02*
X153883Y50367D01*
X151444Y49357D01*
X149350Y47750D01*
X147743Y45656D01*
X146733Y43217D01*
X146389Y40600D01*
X146733Y37983D01*
X147743Y35544D01*
X149350Y33450D01*
X151444Y31843D01*
X153883Y30833D01*
X156500Y30489D01*
X159117Y30833D01*
X161556Y31843D01*
X163650Y33450D01*
X165257Y35544D01*
X166267Y37983D01*
X166611Y40600D01*
X166267Y43217D01*
X165257Y45656D01*
X163650Y47750D01*
X161556Y49357D01*
X159117Y50367D01*
X156500Y50711D01*
D02*
G37*
G36*
X405250Y54212D02*
X401746Y53866D01*
X398376Y52844D01*
X395271Y51184D01*
X392549Y48951D01*
X390316Y46229D01*
X388656Y43124D01*
X387634Y39754D01*
X387289Y36250D01*
X387634Y32746D01*
X388656Y29376D01*
X390316Y26271D01*
X392549Y23549D01*
X395271Y21316D01*
X398376Y19656D01*
X401746Y18634D01*
X405250Y18289D01*
X408754Y18634D01*
X412124Y19656D01*
X415229Y21316D01*
X417951Y23549D01*
X420184Y26271D01*
X421844Y29376D01*
X422866Y32746D01*
X423212Y36250D01*
X422866Y39754D01*
X421844Y43124D01*
X420184Y46229D01*
X417951Y48951D01*
X415229Y51184D01*
X412124Y52844D01*
X408754Y53866D01*
X405250Y54212D01*
D02*
G37*
%LPD*%
G36*
X275509Y360790D02*
X275544Y360387D01*
X275606Y360000D01*
X275694Y359631D01*
X275808Y359279D01*
X275949Y358943D01*
X276117Y358624D01*
X276310Y358322D01*
X276531Y358037D01*
X276777Y357769D01*
X274981Y355973D01*
X274713Y356219D01*
X274428Y356440D01*
X274126Y356633D01*
X273807Y356801D01*
X273471Y356942D01*
X273119Y357056D01*
X272750Y357144D01*
X272363Y357206D01*
X271960Y357241D01*
X271540Y357250D01*
X275500Y361210D01*
X275509Y360790D01*
D02*
G37*
G36*
X295785Y308079D02*
X295831Y307722D01*
X295908Y307371D01*
X296015Y307028D01*
X296152Y306691D01*
X296321Y306360D01*
X296520Y306037D01*
X296749Y305720D01*
X297009Y305410D01*
X297300Y305107D01*
X291700D01*
X291991Y305410D01*
X292251Y305720D01*
X292480Y306037D01*
X292679Y306360D01*
X292847Y306691D01*
X292985Y307028D01*
X293092Y307371D01*
X293169Y307722D01*
X293215Y308079D01*
X293230Y308443D01*
X295770D01*
X295785Y308079D01*
D02*
G37*
D50*
X255705Y403545D02*
X307875Y351375D01*
X242545Y403545D02*
X255705D01*
X307875Y295000D02*
Y351375D01*
X241500Y402500D02*
X242545Y403545D01*
X315750Y284750D02*
Y365750D01*
X291000Y390500D02*
X315750Y365750D01*
X189000Y402250D02*
X203000Y416250D01*
X189000Y304250D02*
Y402250D01*
Y304250D02*
X221500Y271750D01*
X314750D01*
X281750Y413250D02*
X291500Y403500D01*
X231250Y413250D02*
X281750D01*
X222511Y326016D02*
Y404511D01*
X231250Y413250D01*
X294500Y302250D02*
Y338250D01*
X271500Y361250D02*
X294500Y338250D01*
D52*
X97500Y218500D02*
X154000Y275000D01*
X97500Y127750D02*
Y218500D01*
D58*
X430650Y218750D02*
D03*
D61*
X348000Y377050D02*
D03*
D66*
X271550Y125500D02*
D03*
D69*
X435500Y315400D02*
D03*
D70*
X97500Y127750D02*
D03*
X154000Y275000D02*
D03*
X222511Y326016D02*
D03*
X203000Y416250D02*
D03*
X314750Y271750D02*
D03*
X307875Y295000D02*
D03*
X315750Y284750D02*
D03*
X294500Y302250D02*
D03*
X291500Y403500D02*
D03*
X271500Y361250D02*
D03*
X241500Y402500D02*
D03*
X291000Y390500D02*
D03*
D71*
X59000Y219000D02*
D03*
X34500Y297750D02*
D03*
Y321500D02*
D03*
X136250Y347750D02*
D03*
M02*
