G04*
G04 #@! TF.GenerationSoftware,Altium Limited,Altium Designer,20.0.13 (296)*
G04*
G04 Layer_Color=65535*
%FSLAX44Y44*%
%MOMM*%
G71*
G01*
G75*
%ADD10C,0.2000*%
%ADD11C,0.1500*%
%ADD12C,0.0000*%
%ADD13C,0.2500*%
%ADD14C,0.1270*%
%ADD15C,0.2540*%
D10*
X341500Y364150D02*
G03*
X341500Y364150I-1000J0D01*
G01*
X115250Y565150D02*
G03*
X115250Y565150I-1000J0D01*
G01*
X79000Y300750D02*
G03*
X79000Y300750I-1000J0D01*
G01*
X202300Y58020D02*
G03*
X202300Y58020I-1000J0D01*
G01*
X195500Y409750D02*
X205000D01*
X195500D02*
Y436500D01*
X204750D01*
X90500Y17550D02*
Y42950D01*
X166700D01*
Y17550D02*
Y42950D01*
X90500Y17550D02*
X166700D01*
X84300Y203600D02*
X109700D01*
Y76600D02*
Y203600D01*
X84300Y76600D02*
Y203600D01*
Y76600D02*
X109700D01*
X234500Y525500D02*
X251500D01*
X229500Y544500D02*
X234500Y548500D01*
X229500Y529500D02*
X234500Y525500D01*
Y548500D02*
X251500D01*
X229500Y529500D02*
Y544500D01*
X290500Y525500D02*
Y548500D01*
X271500Y525500D02*
X290500D01*
X271500Y548500D02*
X290500D01*
X27500Y112750D02*
X44000D01*
X61000D02*
X77500D01*
X61000Y223750D02*
X77500D01*
X27500D02*
X44000D01*
X77500Y112750D02*
Y223750D01*
X27500Y112750D02*
Y223750D01*
X234250Y292000D02*
Y342000D01*
X252250Y292000D02*
Y342000D01*
X234250D02*
X252250D01*
X234250Y292000D02*
X252250D01*
X239450Y372400D02*
Y448600D01*
X214050Y372400D02*
Y448600D01*
Y372400D02*
X239450D01*
X214050Y448600D02*
X239450D01*
X179419Y397166D02*
X181085D01*
Y395500D01*
Y398832D01*
Y397166D01*
X186084D01*
X187750Y398832D01*
Y408829D02*
Y405497D01*
X186084Y403831D01*
X182752D01*
X181085Y405497D01*
Y408829D01*
X182752Y410495D01*
X184418D01*
Y403831D01*
X181085Y413827D02*
X187750D01*
X184418D01*
X182752Y415494D01*
X181085Y417160D01*
Y418826D01*
X187750Y423824D02*
X181085D01*
Y425490D01*
X182752Y427156D01*
X187750D01*
X182752D01*
X181085Y428823D01*
X182752Y430489D01*
X187750D01*
X116086Y50002D02*
Y59998D01*
X121084D01*
X122750Y58332D01*
Y55000D01*
X121084Y53334D01*
X116086D01*
X126082Y50002D02*
X129415D01*
X127748D01*
Y59998D01*
X126082Y58332D01*
X115836Y121998D02*
X122500Y112002D01*
Y121998D02*
X115836Y112002D01*
X125832D02*
X129164D01*
X127498D01*
Y121998D01*
X125832Y120332D01*
X406967Y231087D02*
X405300Y232753D01*
X401968D01*
X400302Y231087D01*
Y224422D01*
X401968Y222756D01*
X405300D01*
X406967Y224422D01*
X410299Y222756D02*
X413631D01*
X411965D01*
Y232753D01*
X410299Y231087D01*
X188504Y503252D02*
Y513248D01*
X193502D01*
X195168Y511582D01*
Y508250D01*
X193502Y506584D01*
X188504D01*
X191836D02*
X195168Y503252D01*
X198501D02*
X201833D01*
X200167D01*
Y513248D01*
X198501Y511582D01*
X211830Y503252D02*
Y513248D01*
X206831Y508250D01*
X213496D01*
X387084Y376998D02*
X383752D01*
X385418D01*
Y368668D01*
X383752Y367002D01*
X382085D01*
X380419Y368668D01*
X397081Y367002D02*
X390416D01*
X397081Y373666D01*
Y375332D01*
X395415Y376998D01*
X392082D01*
X390416Y375332D01*
X251419Y515998D02*
Y506002D01*
X256418D01*
X258084Y507668D01*
Y514332D01*
X256418Y515998D01*
X251419D01*
X266415Y506002D02*
Y515998D01*
X261416Y511000D01*
X268081D01*
X213837Y467498D02*
X220502Y457502D01*
Y467498D02*
X213837Y457502D01*
X223834D02*
Y467498D01*
X228832D01*
X230498Y465832D01*
Y462500D01*
X228832Y460834D01*
X223834D01*
X233831Y457502D02*
X237163D01*
X235497D01*
Y467498D01*
X233831Y465832D01*
X219669Y212998D02*
Y204668D01*
X221336Y203002D01*
X224668D01*
X226334Y204668D01*
Y212998D01*
X236331Y203002D02*
X229666D01*
X236331Y209666D01*
Y211332D01*
X234664Y212998D01*
X231332D01*
X229666Y211332D01*
X448086Y240748D02*
Y232418D01*
X449752Y230752D01*
X453084D01*
X454750Y232418D01*
Y240748D01*
X458082Y230752D02*
X461414D01*
X459748D01*
Y240748D01*
X458082Y239082D01*
X45498Y268754D02*
X35502D01*
Y273752D01*
X37168Y275418D01*
X40500D01*
X42166Y273752D01*
Y268754D01*
Y272086D02*
X45498Y275418D01*
Y278751D02*
Y282083D01*
Y280417D01*
X35502D01*
X37168Y278751D01*
Y287081D02*
X35502Y288748D01*
Y292080D01*
X37168Y293746D01*
X38834D01*
X40500Y292080D01*
Y290414D01*
Y292080D01*
X42166Y293746D01*
X43832D01*
X45498Y292080D01*
Y288748D01*
X43832Y287081D01*
X93498Y218670D02*
X83502D01*
Y223669D01*
X85168Y225335D01*
X88500D01*
X90166Y223669D01*
Y218670D01*
Y222002D02*
X93498Y225335D01*
Y228667D02*
Y231999D01*
Y230333D01*
X83502D01*
X85168Y228667D01*
X93498Y236998D02*
Y240330D01*
Y238664D01*
X83502D01*
X85168Y236998D01*
X116248Y218254D02*
X106252D01*
Y223252D01*
X107918Y224918D01*
X111250D01*
X112916Y223252D01*
Y218254D01*
Y221586D02*
X116248Y224918D01*
Y228251D02*
Y231583D01*
Y229917D01*
X106252D01*
X107918Y228251D01*
Y236581D02*
X106252Y238248D01*
Y241580D01*
X107918Y243246D01*
X114582D01*
X116248Y241580D01*
Y238248D01*
X114582Y236581D01*
X107918D01*
X144270Y285240D02*
Y295237D01*
X149268D01*
X150934Y293571D01*
Y290238D01*
X149268Y288572D01*
X144270D01*
X147602D02*
X150934Y285240D01*
X154267D02*
X157599D01*
X155933D01*
Y295237D01*
X154267Y293571D01*
X169262Y285240D02*
X162597D01*
X169262Y291905D01*
Y293571D01*
X167596Y295237D01*
X164264D01*
X162597Y293571D01*
X189990Y154684D02*
Y164681D01*
X194988D01*
X196654Y163015D01*
Y159682D01*
X194988Y158016D01*
X189990D01*
X193322D02*
X196654Y154684D01*
X199987Y156350D02*
X201653Y154684D01*
X204985D01*
X206651Y156350D01*
Y163015D01*
X204985Y164681D01*
X201653D01*
X199987Y163015D01*
Y161348D01*
X201653Y159682D01*
X206651D01*
X144524Y154684D02*
Y164681D01*
X149522D01*
X151188Y163015D01*
Y159682D01*
X149522Y158016D01*
X144524D01*
X147856D02*
X151188Y154684D01*
X154521Y163015D02*
X156187Y164681D01*
X159519D01*
X161185Y163015D01*
Y161348D01*
X159519Y159682D01*
X161185Y158016D01*
Y156350D01*
X159519Y154684D01*
X156187D01*
X154521Y156350D01*
Y158016D01*
X156187Y159682D01*
X154521Y161348D01*
Y163015D01*
X156187Y159682D02*
X159519D01*
X167130Y154684D02*
Y164681D01*
X172128D01*
X173794Y163015D01*
Y159682D01*
X172128Y158016D01*
X167130D01*
X170462D02*
X173794Y154684D01*
X177127Y164681D02*
X183791D01*
Y163015D01*
X177127Y156350D01*
Y154684D01*
X176998Y70419D02*
X167002D01*
Y75418D01*
X168668Y77084D01*
X172000D01*
X173666Y75418D01*
Y70419D01*
Y73752D02*
X176998Y77084D01*
X167002Y87081D02*
X168668Y83748D01*
X172000Y80416D01*
X175332D01*
X176998Y82082D01*
Y85415D01*
X175332Y87081D01*
X173666D01*
X172000Y85415D01*
Y80416D01*
X19832Y167750D02*
X13168D01*
X11502Y166084D01*
Y162752D01*
X13168Y161085D01*
X19832D01*
X21498Y162752D01*
Y166084D01*
X18166Y164418D02*
X21498Y167750D01*
Y166084D02*
X19832Y167750D01*
X21498Y171082D02*
Y174415D01*
Y172748D01*
X11502D01*
X13168Y171082D01*
X285387Y115752D02*
Y125748D01*
X290385D01*
X292052Y124082D01*
Y120750D01*
X290385Y119084D01*
X285387D01*
X302048Y124082D02*
X300382Y125748D01*
X297050D01*
X295384Y124082D01*
Y122416D01*
X297050Y120750D01*
X300382D01*
X302048Y119084D01*
Y117418D01*
X300382Y115752D01*
X297050D01*
X295384Y117418D01*
X305381Y115752D02*
X308713D01*
X307047D01*
Y125748D01*
X305381Y124082D01*
X130750Y376248D02*
X127418D01*
X129084D01*
Y367918D01*
X127418Y366252D01*
X125752D01*
X124086Y367918D01*
X134082Y366252D02*
X137415D01*
X135748D01*
Y376248D01*
X134082Y374582D01*
X206670Y361998D02*
X210002D01*
X208336D01*
Y352002D01*
X206670D01*
X210002D01*
X221665Y360332D02*
X219999Y361998D01*
X216667D01*
X215001Y360332D01*
Y353668D01*
X216667Y352002D01*
X219999D01*
X221665Y353668D01*
X224998Y352002D02*
X228330D01*
X226664D01*
Y361998D01*
X224998Y360332D01*
X95419Y339748D02*
Y329752D01*
X100418D01*
X102084Y331418D01*
Y338082D01*
X100418Y339748D01*
X95419D01*
X105416Y338082D02*
X107082Y339748D01*
X110414D01*
X112081Y338082D01*
Y336416D01*
X110414Y334750D01*
X108748D01*
X110414D01*
X112081Y333084D01*
Y331418D01*
X110414Y329752D01*
X107082D01*
X105416Y331418D01*
X369002Y305585D02*
X378998D01*
Y310584D01*
X377332Y312250D01*
X370668D01*
X369002Y310584D01*
Y305585D01*
X378998Y315582D02*
Y318915D01*
Y317248D01*
X369002D01*
X370668Y315582D01*
X292584Y360832D02*
X290918Y362498D01*
X287586D01*
X285919Y360832D01*
Y354168D01*
X287586Y352502D01*
X290918D01*
X292584Y354168D01*
X295916Y360832D02*
X297582Y362498D01*
X300914D01*
X302581Y360832D01*
Y359166D01*
X300914Y357500D01*
X302581Y355834D01*
Y354168D01*
X300914Y352502D01*
X297582D01*
X295916Y354168D01*
Y355834D01*
X297582Y357500D01*
X295916Y359166D01*
Y360832D01*
X297582Y357500D02*
X300914D01*
X14668Y96834D02*
X13002Y95168D01*
Y91835D01*
X14668Y90169D01*
X21332D01*
X22998Y91835D01*
Y95168D01*
X21332Y96834D01*
X13002Y106831D02*
X14668Y103498D01*
X18000Y100166D01*
X21332D01*
X22998Y101832D01*
Y105164D01*
X21332Y106831D01*
X19666D01*
X18000Y105164D01*
Y100166D01*
X13918Y235334D02*
X12252Y233668D01*
Y230336D01*
X13918Y228669D01*
X20582D01*
X22248Y230336D01*
Y233668D01*
X20582Y235334D01*
X12252Y238666D02*
Y245331D01*
X13918D01*
X20582Y238666D01*
X22248D01*
X180168Y322082D02*
X178502Y323748D01*
X175170D01*
X173504Y322082D01*
Y315418D01*
X175170Y313752D01*
X178502D01*
X180168Y315418D01*
X183501Y313752D02*
X186833D01*
X185167D01*
Y323748D01*
X183501Y322082D01*
X198496Y313752D02*
X191831D01*
X198496Y320416D01*
Y322082D01*
X196830Y323748D01*
X193498D01*
X191831Y322082D01*
X144838Y229309D02*
X143172Y230975D01*
X139840D01*
X138174Y229309D01*
Y222644D01*
X139840Y220978D01*
X143172D01*
X144838Y222644D01*
X148171Y220978D02*
X151503D01*
X149837D01*
Y230975D01*
X148171Y229309D01*
X156501Y220978D02*
X159834D01*
X158168D01*
Y230975D01*
X156501Y229309D01*
X305918Y269584D02*
X304252Y267918D01*
Y264585D01*
X305918Y262919D01*
X312582D01*
X314248Y264585D01*
Y267918D01*
X312582Y269584D01*
Y272916D02*
X314248Y274582D01*
Y277915D01*
X312582Y279581D01*
X305918D01*
X304252Y277915D01*
Y274582D01*
X305918Y272916D01*
X307584D01*
X309250Y274582D01*
Y279581D01*
X264169Y139082D02*
X262502Y140748D01*
X259170D01*
X257504Y139082D01*
Y132418D01*
X259170Y130752D01*
X262502D01*
X264169Y132418D01*
X267501Y130752D02*
X270833D01*
X269167D01*
Y140748D01*
X267501Y139082D01*
X275832D02*
X277498Y140748D01*
X280830D01*
X282496Y139082D01*
Y132418D01*
X280830Y130752D01*
X277498D01*
X275832Y132418D01*
Y139082D01*
X224334Y162332D02*
X222668Y163998D01*
X219335D01*
X217669Y162332D01*
Y155668D01*
X219335Y154002D01*
X222668D01*
X224334Y155668D01*
X234331Y163998D02*
X227666D01*
Y159000D01*
X230998Y160666D01*
X232665D01*
X234331Y159000D01*
Y155668D01*
X232665Y154002D01*
X229332D01*
X227666Y155668D01*
D11*
X9237Y189845D02*
G03*
X25150Y189950I7877J12168D01*
G01*
X25262Y220954D02*
G03*
X9350Y220850I-7877J-12168D01*
G01*
X25262Y144904D02*
G03*
X9350Y144800I-7877J-12168D01*
G01*
X9237Y113795D02*
G03*
X25150Y113900I7877J12168D01*
G01*
X198013Y304655D02*
G03*
X182100Y304550I-7877J-12168D01*
G01*
X181987Y273545D02*
G03*
X197900Y273650I7877J12168D01*
G01*
X231262Y145654D02*
G03*
X215350Y145550I-7877J-12168D01*
G01*
X215238Y114545D02*
G03*
X231150Y114650I7877J12168D01*
G01*
X278155Y348237D02*
G03*
X278050Y364150I-12168J7877D01*
G01*
X247045Y364263D02*
G03*
X247150Y348350I12168J-7877D01*
G01*
X290763Y288654D02*
G03*
X274850Y288550I-7877J-12168D01*
G01*
X274737Y257546D02*
G03*
X290650Y257650I7877J12168D01*
G01*
X269237Y150596D02*
G03*
X285150Y150700I7877J12168D01*
G01*
X285263Y181705D02*
G03*
X269350Y181600I-7877J-12168D01*
G01*
X170455Y197237D02*
G03*
X170350Y213150I-12168J7877D01*
G01*
X139345Y213263D02*
G03*
X139450Y197350I12168J-7877D01*
G01*
X179750Y525250D02*
X215750D01*
X179750D02*
Y545250D01*
X215750Y525250D02*
Y545250D01*
X179750D02*
X215750D01*
X195000Y538000D02*
X200500D01*
X195000Y532250D02*
Y538000D01*
Y532250D02*
X200500D01*
Y538000D01*
X149250Y77000D02*
X155000D01*
X149250D02*
Y82500D01*
X155000D01*
Y77000D02*
Y82500D01*
X162250Y61750D02*
Y97750D01*
X142250Y61750D02*
X162250D01*
X142250Y97750D02*
X162250D01*
X142250Y61750D02*
Y97750D01*
X25250Y190000D02*
Y220750D01*
X9250Y190000D02*
Y220750D01*
X14550Y203850D02*
X19850D01*
X14550Y206650D02*
X19850D01*
X9250Y114000D02*
Y144750D01*
X25250Y114000D02*
Y144750D01*
X14650Y130900D02*
X19950D01*
X14650Y128100D02*
X19950D01*
X182000Y273750D02*
Y304500D01*
X198000Y273750D02*
Y304500D01*
X187400Y290650D02*
X192700D01*
X187400Y287850D02*
X192700D01*
X215250Y114750D02*
Y145500D01*
X231250Y114750D02*
Y145500D01*
X220650Y131650D02*
X225950D01*
X220650Y128850D02*
X225950D01*
X105750Y263750D02*
X111500D01*
X105750D02*
Y269250D01*
X111500D01*
Y263750D02*
Y269250D01*
X118750Y248500D02*
Y284500D01*
X98750Y248500D02*
X118750D01*
X98750Y284500D02*
X118750D01*
X98750Y248500D02*
Y284500D01*
X82250Y263750D02*
X88000D01*
X82250D02*
Y269250D01*
X88000D01*
Y263750D02*
Y269250D01*
X95250Y248500D02*
Y284500D01*
X75250Y248500D02*
X95250D01*
X75250Y284500D02*
X95250D01*
X75250Y248500D02*
Y284500D01*
X59250Y263750D02*
X65000D01*
X59250D02*
Y269250D01*
X65000D01*
Y263750D02*
Y269250D01*
X72250Y248500D02*
Y284500D01*
X52250Y248500D02*
X72250D01*
X52250Y284500D02*
X72250D01*
X52250Y248500D02*
Y284500D01*
X247250Y364250D02*
X278000D01*
X247250Y348250D02*
X278000D01*
X264150Y353550D02*
Y358850D01*
X261350Y353550D02*
Y358850D01*
X274750Y257750D02*
Y288500D01*
X290750Y257750D02*
Y288500D01*
X280150Y274650D02*
X285450D01*
X280150Y271850D02*
X285450D01*
X285250Y150750D02*
Y181500D01*
X269250Y150750D02*
Y181500D01*
X274550Y164600D02*
X279850D01*
X274550Y167400D02*
X279850D01*
X186000Y110750D02*
Y146750D01*
X166000Y110750D02*
X186000D01*
X166000Y146750D02*
X186000D01*
X166000Y110750D02*
Y146750D01*
X173250Y126000D02*
Y131500D01*
Y126000D02*
X179000D01*
Y131500D01*
X173250D02*
X179000D01*
X143250Y110750D02*
Y146750D01*
X163250D01*
X143250Y110750D02*
X163250D01*
Y146750D01*
X156000Y126000D02*
Y131500D01*
X150250D02*
X156000D01*
X150250Y126000D02*
Y131500D01*
Y126000D02*
X156000D01*
X208750Y110750D02*
Y146750D01*
X188750Y110750D02*
X208750D01*
X188750Y146750D02*
X208750D01*
X188750Y110750D02*
Y146750D01*
X196000Y126000D02*
Y131500D01*
Y126000D02*
X201750D01*
Y131500D01*
X196000D02*
X201750D01*
X143000Y257500D02*
X179000D01*
X143000D02*
Y277500D01*
X179000Y257500D02*
Y277500D01*
X143000D02*
X179000D01*
X158250Y270250D02*
X163750D01*
X158250Y264500D02*
Y270250D01*
Y264500D02*
X163750D01*
Y270250D01*
X156150Y202650D02*
Y207950D01*
X153350Y202650D02*
Y207950D01*
X139500Y213250D02*
X170250D01*
X139500Y197250D02*
X170250D01*
D12*
X200410Y256350D02*
G03*
X200410Y256350I-3810J0D01*
G01*
D13*
X220500Y344550D02*
G03*
X220500Y344550I-1250J0D01*
G01*
D14*
X336414Y337950D02*
G03*
X336414Y337950I-1414J0D01*
G01*
X412750Y189150D02*
Y194350D01*
X385750Y189150D02*
Y194350D01*
X296500Y386250D02*
X413300D01*
X296500D02*
Y544250D01*
X413300D01*
X482500Y386250D02*
Y544250D01*
X446700Y386250D02*
X482500D01*
X446700Y544250D02*
X482500D01*
X41450Y543050D02*
X158250D01*
Y385050D02*
Y543050D01*
X41450Y385050D02*
X158250D01*
X-27750D02*
Y543050D01*
X8050D01*
X-27750Y385050D02*
X8050D01*
X265500Y186750D02*
Y256750D01*
X195500Y186750D02*
X265500D01*
X195500D02*
Y250110D01*
X202140Y256750D01*
X265500D01*
X296500Y147950D02*
Y344450D01*
Y147950D02*
X356500D01*
Y344450D01*
X296500D02*
X356500D01*
X101250Y321750D02*
X111250D01*
X101250Y293750D02*
X111250D01*
X208800Y110750D02*
X323800D01*
Y39750D02*
Y110750D01*
X208800Y39750D02*
X323800D01*
X208800D02*
Y110750D01*
D15*
X181593Y17040D02*
Y27197D01*
X176514Y22118D02*
X186671D01*
X173975Y42432D02*
Y32275D01*
X181593D01*
X179053Y37353D01*
Y39893D01*
X181593Y42432D01*
X186671D01*
X189210Y39893D01*
Y34814D01*
X186671Y32275D01*
X66975Y17290D02*
X77132D01*
X82210Y22368D01*
X77132Y27447D01*
X66975D01*
X82210Y35064D02*
Y40143D01*
X79671Y42682D01*
X74592D01*
X72053Y40143D01*
Y35064D01*
X74592Y32525D01*
X79671D01*
X82210Y35064D01*
X72053Y47760D02*
X79671D01*
X82210Y50299D01*
Y57917D01*
X72053D01*
X69514Y65534D02*
X72053D01*
Y62995D01*
Y68074D01*
Y65534D01*
X79671D01*
X82210Y68074D01*
X116790Y184040D02*
Y199275D01*
X124408D01*
X126947Y196736D01*
Y191658D01*
X124408Y189118D01*
X116790D01*
X121868D02*
X126947Y184040D01*
M02*
