G04*
G04 #@! TF.GenerationSoftware,Altium Limited,Altium Designer,20.0.13 (296)*
G04*
G04 Layer_Color=16711935*
%FSLAX44Y44*%
%MOMM*%
G71*
G01*
G75*
%ADD24R,1.6032X1.2032*%
%ADD29R,1.0032X1.2032*%
%ADD30R,2.3200X0.7200*%
%ADD32R,1.2032X1.6032*%
%ADD33R,1.3112X1.3112*%
%ADD34C,1.3112*%
%ADD35C,3.7032*%
%ADD36R,1.7272X3.2512*%
%ADD37O,1.7272X3.2512*%
%ADD38C,3.3782*%
%ADD39C,1.8032*%
%ADD40R,1.8032X1.8032*%
%ADD41R,1.8082X1.8082*%
%ADD42C,1.8082*%
%ADD43C,1.7200*%
%ADD44R,1.7200X1.7200*%
%ADD45C,1.4912*%
%ADD46R,1.4912X1.4912*%
%ADD47R,1.7032X1.7032*%
%ADD48C,1.7032*%
%ADD75R,1.2200X0.9200*%
%ADD76R,0.8032X2.2632*%
%ADD77R,2.9232X1.7332*%
D24*
X207500Y168250D02*
D03*
Y188250D02*
D03*
X227250D02*
D03*
Y168250D02*
D03*
X320750Y233250D02*
D03*
Y253250D02*
D03*
X321000Y193250D02*
D03*
Y213250D02*
D03*
D29*
X251750Y165750D02*
D03*
X267750D02*
D03*
X186500Y406250D02*
D03*
X170500D02*
D03*
X169500Y260500D02*
D03*
X185500D02*
D03*
D30*
X229250Y203450D02*
D03*
Y216150D02*
D03*
Y228850D02*
D03*
Y241550D02*
D03*
X277250Y203450D02*
D03*
Y216150D02*
D03*
Y228850D02*
D03*
Y241550D02*
D03*
D32*
X318000Y23500D02*
D03*
X298000D02*
D03*
D33*
X137500Y171250D02*
D03*
D34*
Y131250D02*
D03*
Y151250D02*
D03*
D35*
X72500Y336250D02*
D03*
D36*
X430650Y218750D02*
D03*
D37*
X405250D02*
D03*
X379850D02*
D03*
D38*
X405250Y36250D02*
D03*
D39*
X348000Y250050D02*
D03*
Y275450D02*
D03*
Y300850D02*
D03*
Y326250D02*
D03*
Y377050D02*
D03*
D40*
Y402450D02*
D03*
D41*
X258100Y66000D02*
D03*
D42*
Y40600D02*
D03*
X232700Y66000D02*
D03*
Y40600D02*
D03*
X207300Y66000D02*
D03*
Y40600D02*
D03*
X181900Y66000D02*
D03*
Y40600D02*
D03*
X156500Y66000D02*
D03*
Y40600D02*
D03*
D43*
X336250Y139100D02*
D03*
Y164500D02*
D03*
D44*
Y113700D02*
D03*
D45*
X296950Y125500D02*
D03*
X271550D02*
D03*
X246150D02*
D03*
D46*
X220750D02*
D03*
D47*
X435500Y366200D02*
D03*
D48*
Y340800D02*
D03*
Y315400D02*
D03*
Y290000D02*
D03*
Y264600D02*
D03*
D75*
X278750Y45500D02*
D03*
Y64500D02*
D03*
X301250Y55000D02*
D03*
D76*
X171750Y376750D02*
D03*
X184450D02*
D03*
X197150D02*
D03*
X209850D02*
D03*
X222550D02*
D03*
X235250D02*
D03*
X247950D02*
D03*
X260650D02*
D03*
Y283950D02*
D03*
X247950D02*
D03*
X235250D02*
D03*
X222550D02*
D03*
X209850D02*
D03*
X197150D02*
D03*
X184450D02*
D03*
X171750D02*
D03*
D77*
X382250Y257840D02*
D03*
Y284660D02*
D03*
M02*
