G04*
G04 #@! TF.GenerationSoftware,Altium Limited,Altium Designer,20.0.13 (296)*
G04*
G04 Layer_Physical_Order=3*
G04 Layer_Color=16440176*
%FSLAX44Y44*%
%MOMM*%
G71*
G01*
G75*
%ADD49C,0.6000*%
%ADD50C,0.2540*%
%ADD51C,0.5000*%
%ADD54C,1.0000*%
%ADD56C,1.1080*%
%ADD58R,1.5240X3.0480*%
%ADD59O,1.5240X3.0480*%
%ADD61C,1.6000*%
%ADD62R,1.6000X1.6000*%
%ADD66C,1.2880*%
%ADD68R,1.5000X1.5000*%
%ADD69C,1.5000*%
%ADD70C,0.8000*%
%ADD71C,1.2700*%
G36*
X460431Y3569D02*
X3569D01*
Y444931D01*
X460431D01*
Y3569D01*
D02*
G37*
%LPC*%
G36*
X342642Y434310D02*
X159444D01*
X157616Y434070D01*
X155913Y433364D01*
X154451Y432243D01*
X98258Y376049D01*
X97135Y374586D01*
X96430Y372884D01*
X96190Y371056D01*
Y223500D01*
X96430Y221673D01*
X97135Y219970D01*
X98258Y218508D01*
X115508Y201257D01*
X116970Y200135D01*
X118673Y199430D01*
X120500Y199190D01*
X166026D01*
X183615Y181600D01*
X140532Y138517D01*
X139659D01*
X139468Y138596D01*
X137500Y138855D01*
X135532Y138596D01*
X133698Y137836D01*
X132122Y136628D01*
X130914Y135052D01*
X130154Y133218D01*
X129895Y131250D01*
X130154Y129282D01*
X130914Y127447D01*
X132122Y125872D01*
X133698Y124664D01*
X135532Y123904D01*
X137500Y123645D01*
X139468Y123904D01*
X140656Y124396D01*
X143457D01*
X145284Y124637D01*
X146987Y125342D01*
X148449Y126464D01*
X196525Y174540D01*
X244725D01*
X289339Y129927D01*
Y129179D01*
X288727Y127703D01*
X288437Y125500D01*
X288727Y123297D01*
X289578Y121244D01*
X289890Y120837D01*
Y110300D01*
X290130Y108473D01*
X290835Y106770D01*
X291958Y105308D01*
X311558Y85708D01*
X313020Y84586D01*
X314723Y83880D01*
X316550Y83640D01*
X373992D01*
X375820Y83880D01*
X377522Y84586D01*
X378985Y85708D01*
X384842Y91565D01*
X385965Y93028D01*
X386670Y94731D01*
X386910Y96558D01*
Y204529D01*
X388253Y206278D01*
X389222Y208619D01*
X389553Y211130D01*
Y226370D01*
X389222Y228881D01*
X388253Y231222D01*
X386711Y233231D01*
X384701Y234773D01*
X382361Y235742D01*
X379850Y236073D01*
X377339Y235742D01*
X374999Y234773D01*
X372989Y233231D01*
X371447Y231222D01*
X370478Y228881D01*
X370147Y226370D01*
Y211130D01*
X370478Y208619D01*
X371447Y206278D01*
X372790Y204529D01*
Y99482D01*
X371068Y97760D01*
X354250D01*
Y131700D01*
X354086D01*
X353200Y132970D01*
X353989Y135571D01*
X354337Y139100D01*
X353989Y142629D01*
X352960Y146022D01*
X351289Y149149D01*
X349039Y151889D01*
X346299Y154139D01*
X343329Y155726D01*
X342995Y156778D01*
X342949Y157035D01*
X343382Y157368D01*
X344985Y159457D01*
X345993Y161889D01*
X346336Y164500D01*
X345993Y167111D01*
X344985Y169543D01*
X343382Y171632D01*
X341293Y173235D01*
X338861Y174243D01*
X336250Y174586D01*
X333639Y174243D01*
X331207Y173235D01*
X329118Y171632D01*
X327515Y169543D01*
X326507Y167111D01*
X326164Y164500D01*
X326507Y161889D01*
X327515Y159457D01*
X329118Y157368D01*
X329551Y157035D01*
X329505Y156778D01*
X329171Y155726D01*
X326201Y154139D01*
X323461Y151889D01*
X321211Y149149D01*
X319540Y146022D01*
X318510Y142629D01*
X318163Y139100D01*
X318510Y135571D01*
X319300Y132970D01*
X318414Y131700D01*
X318250D01*
Y100644D01*
X317077Y100158D01*
X304010Y113224D01*
Y120837D01*
X304322Y121244D01*
X305173Y123297D01*
X305463Y125500D01*
X305173Y127703D01*
X304322Y129756D01*
X303459Y130881D01*
Y132851D01*
X303219Y134678D01*
X302513Y136381D01*
X301391Y137844D01*
X252642Y186592D01*
X251180Y187715D01*
X249477Y188420D01*
X247650Y188660D01*
X196525D01*
X173943Y211242D01*
X172480Y212364D01*
X170777Y213070D01*
X168950Y213310D01*
X123425D01*
X110310Y226425D01*
Y353196D01*
X111580Y353796D01*
X113095Y352784D01*
X115436Y352319D01*
X117777Y352784D01*
X119762Y354110D01*
X121088Y356095D01*
X121283Y357073D01*
X131362Y367152D01*
X183652D01*
Y284000D01*
X183716Y283681D01*
X178369Y278334D01*
X158988D01*
X158326Y279326D01*
X156341Y280652D01*
X154000Y281117D01*
X151659Y280652D01*
X149674Y279326D01*
X148348Y277341D01*
X147882Y275000D01*
X148348Y272659D01*
X149674Y270674D01*
X151659Y269348D01*
X154000Y268883D01*
X156341Y269348D01*
X158326Y270674D01*
X158988Y271666D01*
X179750D01*
X181026Y271920D01*
X182108Y272642D01*
X187503Y278038D01*
X210145Y255395D01*
X211799Y254290D01*
X213750Y253902D01*
X295106D01*
X295856Y253401D01*
X298197Y252936D01*
X300538Y253401D01*
X302522Y254728D01*
X303849Y256712D01*
X304314Y259053D01*
X303849Y261394D01*
X302522Y263379D01*
X300538Y264705D01*
X298197Y265171D01*
X295856Y264705D01*
X294947Y264098D01*
X244967D01*
X244481Y265271D01*
X290862Y311652D01*
X311500D01*
X313451Y312040D01*
X315105Y313145D01*
X342112Y340152D01*
X353138D01*
X400152Y293138D01*
Y259000D01*
Y234584D01*
X398389Y233231D01*
X396847Y231222D01*
X395878Y228881D01*
X395547Y226370D01*
Y211130D01*
X395878Y208619D01*
X396847Y206278D01*
X398389Y204269D01*
X400398Y202727D01*
X402739Y201758D01*
X405250Y201427D01*
X407761Y201758D01*
X410102Y202727D01*
X412111Y204269D01*
X413653Y206278D01*
X414622Y208619D01*
X414953Y211130D01*
Y226370D01*
X414622Y228881D01*
X413653Y231222D01*
X412111Y233231D01*
X410348Y234584D01*
Y256888D01*
X412962Y259502D01*
X427437D01*
X428725Y257825D01*
X430709Y256302D01*
X433020Y255345D01*
X435500Y255018D01*
X437980Y255345D01*
X440291Y256302D01*
X442275Y257825D01*
X443798Y259809D01*
X444755Y262120D01*
X445082Y264600D01*
X444755Y267080D01*
X443798Y269391D01*
X442275Y271376D01*
X440291Y272898D01*
X437980Y273855D01*
X435500Y274182D01*
X433020Y273855D01*
X430709Y272898D01*
X428725Y271376D01*
X427437Y269698D01*
X410850D01*
X410348Y270110D01*
Y295250D01*
X409960Y297201D01*
X408855Y298855D01*
X358855Y348855D01*
X357201Y349960D01*
X355250Y350348D01*
X340000D01*
X338049Y349960D01*
X336395Y348855D01*
X309388Y321848D01*
X288750D01*
X286799Y321460D01*
X285145Y320355D01*
X228888Y264098D01*
X215862D01*
X193848Y286112D01*
Y369638D01*
X231862Y407652D01*
X236299D01*
X236878Y406382D01*
X235848Y404841D01*
X235382Y402500D01*
X235848Y400159D01*
X237174Y398174D01*
X239159Y396848D01*
X241500Y396382D01*
X243336Y396748D01*
X244451Y395844D01*
X244382Y395500D01*
X244615Y394330D01*
X200383Y350098D01*
X199660Y349016D01*
X199406Y347740D01*
Y314754D01*
X199660Y313478D01*
X200383Y312397D01*
X204641Y308138D01*
X205723Y307415D01*
X206999Y307161D01*
X221287D01*
X221435Y306939D01*
X223420Y305613D01*
X225761Y305148D01*
X228102Y305613D01*
X230087Y306939D01*
X231413Y308924D01*
X231879Y311265D01*
X231413Y313606D01*
X230087Y315591D01*
X228102Y316917D01*
X225761Y317383D01*
X223420Y316917D01*
X221435Y315591D01*
X220258Y313829D01*
X215944D01*
X215345Y314950D01*
X215662Y315424D01*
X216128Y317766D01*
X215798Y319422D01*
X217268Y320892D01*
X217644Y321219D01*
X219052Y321111D01*
X220170Y320364D01*
X222511Y319898D01*
X224852Y320364D01*
X226837Y321690D01*
X227319Y322412D01*
X228667Y322143D01*
X228860Y321175D01*
X230186Y319190D01*
X232170Y317864D01*
X234511Y317398D01*
X236852Y317864D01*
X238837Y319190D01*
X240163Y321175D01*
X240629Y323516D01*
X240163Y325857D01*
X238837Y327841D01*
X236852Y329168D01*
X234511Y329633D01*
X232170Y329168D01*
X230186Y327841D01*
X229704Y327120D01*
X228355Y327388D01*
X228163Y328357D01*
X226837Y330342D01*
X224852Y331668D01*
X224292Y331779D01*
X223923Y332994D01*
X231845Y340916D01*
X310750D01*
X312026Y341170D01*
X313108Y341893D01*
X329381Y358166D01*
X332791D01*
X333278Y356993D01*
X310119Y333834D01*
X266488D01*
X265826Y334826D01*
X263841Y336152D01*
X261500Y336618D01*
X259159Y336152D01*
X257174Y334826D01*
X255848Y332841D01*
X255382Y330500D01*
X255848Y328159D01*
X257174Y326174D01*
X259159Y324848D01*
X261500Y324383D01*
X263841Y324848D01*
X265826Y326174D01*
X266488Y327166D01*
X311500D01*
X312776Y327420D01*
X313857Y328143D01*
X339341Y353626D01*
X357409D01*
X423320Y287715D01*
X424402Y286992D01*
X425678Y286738D01*
X426568D01*
X427202Y285209D01*
X428725Y283225D01*
X430709Y281702D01*
X433020Y280744D01*
X435500Y280418D01*
X437980Y280744D01*
X440291Y281702D01*
X442275Y283225D01*
X443798Y285209D01*
X444755Y287520D01*
X445082Y290000D01*
X444755Y292480D01*
X443798Y294791D01*
X442275Y296775D01*
X440291Y298298D01*
X437980Y299256D01*
X435500Y299582D01*
X433020Y299256D01*
X430709Y298298D01*
X428725Y296775D01*
X427318Y294943D01*
X426727Y294674D01*
X425946Y294519D01*
X363473Y356993D01*
X363959Y358166D01*
X426000D01*
Y356700D01*
X445000D01*
Y375700D01*
X426000D01*
Y364834D01*
X328000D01*
X326724Y364580D01*
X325643Y363857D01*
X309369Y347584D01*
X230464D01*
X229188Y347330D01*
X228106Y346608D01*
X212883Y331385D01*
X212161Y330303D01*
X211907Y329027D01*
Y324961D01*
X210693Y323747D01*
X210010Y323883D01*
X207669Y323417D01*
X207194Y323100D01*
X206074Y323699D01*
Y346359D01*
X249330Y389615D01*
X250500Y389383D01*
X252841Y389848D01*
X254826Y391174D01*
X256152Y393159D01*
X256618Y395500D01*
X256152Y397841D01*
X254826Y399826D01*
X252841Y401152D01*
X250500Y401618D01*
X248664Y401252D01*
X247549Y402155D01*
X247617Y402500D01*
X247152Y404841D01*
X246122Y406382D01*
X246701Y407652D01*
X285711D01*
X286310Y406532D01*
X285848Y405841D01*
X285382Y403500D01*
X285848Y401159D01*
X287174Y399174D01*
X289159Y397848D01*
X289918Y397697D01*
Y396402D01*
X288659Y396152D01*
X286674Y394826D01*
X285348Y392841D01*
X284883Y390500D01*
X285348Y388159D01*
X286674Y386174D01*
X288659Y384848D01*
X291000Y384383D01*
X293341Y384848D01*
X295326Y386174D01*
X296652Y388159D01*
X297118Y390500D01*
X296652Y392841D01*
X295326Y394826D01*
X293341Y396152D01*
X292582Y396303D01*
Y397598D01*
X293841Y397848D01*
X295826Y399174D01*
X297152Y401159D01*
X297617Y403500D01*
X297152Y405841D01*
X296690Y406532D01*
X297289Y407652D01*
X300108D01*
X300636Y407124D01*
Y368654D01*
X300082Y367825D01*
X299617Y365484D01*
X300082Y363143D01*
X301409Y361159D01*
X303393Y359832D01*
X305734Y359367D01*
X308075Y359832D01*
X310060Y361159D01*
X311386Y363143D01*
X311852Y365484D01*
X311386Y367825D01*
X310832Y368654D01*
Y409235D01*
X310444Y411186D01*
X309339Y412840D01*
X305824Y416355D01*
X304170Y417460D01*
X302220Y417848D01*
X229750D01*
X227799Y417460D01*
X226145Y416355D01*
X187138Y377348D01*
X129250D01*
X127299Y376960D01*
X125645Y375855D01*
X114073Y364282D01*
X113095Y364088D01*
X111580Y363076D01*
X110310Y363677D01*
Y368132D01*
X162368Y420190D01*
X197069D01*
X197668Y419070D01*
X197348Y418591D01*
X196882Y416250D01*
X197348Y413909D01*
X198674Y411924D01*
X200659Y410598D01*
X203000Y410132D01*
X205341Y410598D01*
X207326Y411924D01*
X208652Y413909D01*
X209118Y416250D01*
X208652Y418591D01*
X208332Y419070D01*
X208931Y420190D01*
X339718D01*
X341440Y418468D01*
Y412450D01*
X338000D01*
Y392450D01*
X358000D01*
Y412450D01*
X355560D01*
Y421392D01*
X355320Y423219D01*
X354614Y424922D01*
X353492Y426385D01*
X347635Y432243D01*
X346172Y433364D01*
X344469Y434070D01*
X342642Y434310D01*
D02*
G37*
G36*
X349270Y387514D02*
Y378320D01*
X358464D01*
X358269Y379801D01*
X357207Y382365D01*
X355517Y384567D01*
X353316Y386257D01*
X350751Y387319D01*
X349270Y387514D01*
D02*
G37*
G36*
X346730Y387514D02*
X345248Y387319D01*
X342685Y386257D01*
X340483Y384567D01*
X338793Y382365D01*
X337731Y379801D01*
X337536Y378320D01*
X346730D01*
Y387514D01*
D02*
G37*
G36*
Y375780D02*
X337536D01*
X337731Y374299D01*
X338793Y371735D01*
X340483Y369533D01*
X342685Y367843D01*
X345248Y366781D01*
X346730Y366586D01*
Y375780D01*
D02*
G37*
G36*
X358464D02*
X349270D01*
Y366586D01*
X350751Y366781D01*
X353316Y367843D01*
X355517Y369533D01*
X357207Y371735D01*
X358269Y374299D01*
X358464Y375780D01*
D02*
G37*
G36*
X271500Y367368D02*
X269159Y366902D01*
X267174Y365576D01*
X265848Y363591D01*
X265382Y361250D01*
X265848Y358909D01*
X267174Y356924D01*
X269159Y355598D01*
X271500Y355132D01*
X273841Y355598D01*
X275826Y356924D01*
X277152Y358909D01*
X277617Y361250D01*
X277152Y363591D01*
X275826Y365576D01*
X273841Y366902D01*
X271500Y367368D01*
D02*
G37*
G36*
X137520Y356549D02*
Y349020D01*
X145049D01*
X144911Y350071D01*
X144015Y352233D01*
X142590Y354090D01*
X140733Y355515D01*
X138571Y356411D01*
X137520Y356549D01*
D02*
G37*
G36*
X134980D02*
X133929Y356411D01*
X131767Y355515D01*
X129910Y354090D01*
X128485Y352233D01*
X127589Y350071D01*
X127451Y349020D01*
X134980D01*
Y356549D01*
D02*
G37*
G36*
X145049Y346480D02*
X137520D01*
Y338951D01*
X138571Y339089D01*
X140733Y339985D01*
X142590Y341410D01*
X144015Y343267D01*
X144911Y345429D01*
X145049Y346480D01*
D02*
G37*
G36*
X134980D02*
X127451D01*
X127589Y345429D01*
X128485Y343267D01*
X129910Y341410D01*
X131767Y339985D01*
X133929Y339089D01*
X134980Y338951D01*
Y346480D01*
D02*
G37*
G36*
X435500Y350382D02*
X433020Y350056D01*
X430709Y349098D01*
X428725Y347575D01*
X427202Y345591D01*
X426245Y343280D01*
X425918Y340800D01*
X426245Y338320D01*
X427202Y336009D01*
X428725Y334025D01*
X430709Y332502D01*
X433020Y331544D01*
X435500Y331218D01*
X437980Y331544D01*
X440291Y332502D01*
X442275Y334025D01*
X443798Y336009D01*
X444755Y338320D01*
X445082Y340800D01*
X444755Y343280D01*
X443798Y345591D01*
X442275Y347575D01*
X440291Y349098D01*
X437980Y350056D01*
X435500Y350382D01*
D02*
G37*
G36*
X35770Y330299D02*
Y322770D01*
X43299D01*
X43161Y323821D01*
X42265Y325983D01*
X40840Y327840D01*
X38983Y329265D01*
X36821Y330161D01*
X35770Y330299D01*
D02*
G37*
G36*
X33230D02*
X32179Y330161D01*
X30017Y329265D01*
X28160Y327840D01*
X26735Y325983D01*
X25839Y323821D01*
X25701Y322770D01*
X33230D01*
Y330299D01*
D02*
G37*
G36*
X436770Y325359D02*
Y316670D01*
X445459D01*
X445282Y318021D01*
X444270Y320463D01*
X442661Y322561D01*
X440563Y324170D01*
X438121Y325182D01*
X436770Y325359D01*
D02*
G37*
G36*
X434230D02*
X432879Y325182D01*
X430437Y324170D01*
X428339Y322561D01*
X426730Y320463D01*
X425718Y318021D01*
X425541Y316670D01*
X434230D01*
Y325359D01*
D02*
G37*
G36*
X72500Y355844D02*
X68677Y355468D01*
X65002Y354353D01*
X61614Y352542D01*
X58645Y350105D01*
X56208Y347136D01*
X54397Y343748D01*
X53282Y340073D01*
X52906Y336250D01*
X53282Y332427D01*
X54397Y328752D01*
X56208Y325364D01*
X58645Y322395D01*
X61614Y319958D01*
X65002Y318147D01*
X68677Y317032D01*
X72500Y316656D01*
X76323Y317032D01*
X79998Y318147D01*
X83386Y319958D01*
X86355Y322395D01*
X88792Y325364D01*
X90603Y328752D01*
X91718Y332427D01*
X92094Y336250D01*
X91718Y340073D01*
X90603Y343748D01*
X88792Y347136D01*
X86355Y350105D01*
X83386Y352542D01*
X79998Y354353D01*
X76323Y355468D01*
X72500Y355844D01*
D02*
G37*
G36*
X249262Y327883D02*
X246921Y327418D01*
X244936Y326091D01*
X243610Y324107D01*
X243145Y321766D01*
X243610Y319425D01*
X244936Y317440D01*
X246921Y316114D01*
X249262Y315648D01*
X251603Y316114D01*
X253588Y317440D01*
X254914Y319425D01*
X255380Y321766D01*
X254914Y324107D01*
X253588Y326091D01*
X251603Y327418D01*
X249262Y327883D01*
D02*
G37*
G36*
X43299Y320230D02*
X35770D01*
Y312701D01*
X36821Y312839D01*
X38983Y313735D01*
X40840Y315160D01*
X42265Y317017D01*
X43161Y319179D01*
X43299Y320230D01*
D02*
G37*
G36*
X33230D02*
X25701D01*
X25839Y319179D01*
X26735Y317017D01*
X28160Y315160D01*
X30017Y313735D01*
X32179Y312839D01*
X33230Y312701D01*
Y320230D01*
D02*
G37*
G36*
X262500Y321618D02*
X260159Y321152D01*
X258174Y319826D01*
X256848Y317841D01*
X256383Y315500D01*
X256848Y313159D01*
X258174Y311174D01*
X260159Y309848D01*
X262500Y309382D01*
X264841Y309848D01*
X266826Y311174D01*
X268152Y313159D01*
X268617Y315500D01*
X268152Y317841D01*
X266826Y319826D01*
X264841Y321152D01*
X262500Y321618D01*
D02*
G37*
G36*
X445459Y314130D02*
X436770D01*
Y305441D01*
X438121Y305618D01*
X440563Y306630D01*
X442661Y308239D01*
X444270Y310337D01*
X445282Y312779D01*
X445459Y314130D01*
D02*
G37*
G36*
X434230D02*
X425541D01*
X425718Y312779D01*
X426730Y310337D01*
X428339Y308239D01*
X430437Y306630D01*
X432879Y305618D01*
X434230Y305441D01*
Y314130D01*
D02*
G37*
G36*
X35770Y306549D02*
Y299020D01*
X43299D01*
X43161Y300071D01*
X42265Y302233D01*
X40840Y304090D01*
X38983Y305515D01*
X36821Y306411D01*
X35770Y306549D01*
D02*
G37*
G36*
X33230D02*
X32179Y306411D01*
X30017Y305515D01*
X28160Y304090D01*
X26735Y302233D01*
X25839Y300071D01*
X25701Y299020D01*
X33230D01*
Y306549D01*
D02*
G37*
G36*
X294500Y308368D02*
X292159Y307902D01*
X290174Y306576D01*
X288848Y304591D01*
X288382Y302250D01*
X288848Y299909D01*
X290174Y297924D01*
X292159Y296598D01*
X294500Y296133D01*
X296841Y296598D01*
X298826Y297924D01*
X300152Y299909D01*
X300618Y302250D01*
X300152Y304591D01*
X298826Y306576D01*
X296841Y307902D01*
X294500Y308368D01*
D02*
G37*
G36*
X43299Y296480D02*
X35770D01*
Y288951D01*
X36821Y289089D01*
X38983Y289985D01*
X40840Y291410D01*
X42265Y293267D01*
X43161Y295429D01*
X43299Y296480D01*
D02*
G37*
G36*
X33230D02*
X25701D01*
X25839Y295429D01*
X26735Y293267D01*
X28160Y291410D01*
X30017Y289985D01*
X32179Y289089D01*
X33230Y288951D01*
Y296480D01*
D02*
G37*
G36*
X307875Y301117D02*
X305534Y300652D01*
X303549Y299326D01*
X302223Y297341D01*
X301758Y295000D01*
X302223Y292659D01*
X303549Y290674D01*
X305534Y289348D01*
X307875Y288883D01*
X310058Y289317D01*
X310462Y288965D01*
X310897Y288287D01*
X310098Y287091D01*
X309632Y284750D01*
X310098Y282409D01*
X311424Y280424D01*
X313409Y279098D01*
X313918Y278997D01*
Y277702D01*
X312409Y277402D01*
X310424Y276076D01*
X309098Y274091D01*
X308633Y271750D01*
X309098Y269409D01*
X310424Y267424D01*
X312409Y266098D01*
X314750Y265632D01*
X317091Y266098D01*
X319076Y267424D01*
X320402Y269409D01*
X320868Y271750D01*
X320402Y274091D01*
X319076Y276076D01*
X317091Y277402D01*
X316582Y277503D01*
Y278798D01*
X318091Y279098D01*
X320076Y280424D01*
X321402Y282409D01*
X321867Y284750D01*
X321402Y287091D01*
X320076Y289076D01*
X318091Y290402D01*
X315750Y290868D01*
X313567Y290433D01*
X313163Y290785D01*
X312728Y291463D01*
X313527Y292659D01*
X313993Y295000D01*
X313527Y297341D01*
X312201Y299326D01*
X310216Y300652D01*
X307875Y301117D01*
D02*
G37*
G36*
X348000Y336336D02*
X345390Y335993D01*
X342957Y334985D01*
X340868Y333382D01*
X339265Y331293D01*
X338257Y328861D01*
X337914Y326250D01*
X338257Y323639D01*
X339265Y321207D01*
X340868Y319118D01*
X341301Y318785D01*
X341255Y318528D01*
X340921Y317476D01*
X337951Y315889D01*
X335210Y313640D01*
X332961Y310899D01*
X331290Y307772D01*
X330261Y304379D01*
X329913Y300850D01*
X330261Y297321D01*
X331290Y293928D01*
X332961Y290801D01*
X335210Y288060D01*
X337951Y285811D01*
X340921Y284224D01*
X341255Y283172D01*
X341301Y282915D01*
X340868Y282582D01*
X339265Y280493D01*
X338257Y278060D01*
X337914Y275450D01*
X338257Y272840D01*
X339265Y270407D01*
X340868Y268318D01*
X341301Y267985D01*
X341255Y267728D01*
X340921Y266676D01*
X337951Y265089D01*
X335210Y262840D01*
X332961Y260099D01*
X331290Y256972D01*
X330261Y253579D01*
X329942Y250349D01*
X329916Y250178D01*
X329914Y250059D01*
X329913Y250050D01*
X329913Y250044D01*
X329908Y249788D01*
X280302Y200182D01*
X279010D01*
X277905Y200640D01*
X274250Y201121D01*
X270595Y200640D01*
X267190Y199229D01*
X264265Y196985D01*
X262021Y194060D01*
X260610Y190655D01*
X260129Y187000D01*
X260610Y183345D01*
X262021Y179940D01*
X264265Y177015D01*
X267190Y174771D01*
X270595Y173360D01*
X274250Y172879D01*
X277905Y173360D01*
X281310Y174771D01*
X281565Y174966D01*
X285524D01*
X288787Y175396D01*
X291828Y176655D01*
X294439Y178659D01*
X347738Y231958D01*
X347994Y231964D01*
X348000Y231963D01*
X348009Y231964D01*
X348128Y231966D01*
X348299Y231992D01*
X351529Y232311D01*
X354922Y233340D01*
X358049Y235011D01*
X360789Y237260D01*
X363039Y240001D01*
X364710Y243128D01*
X365740Y246521D01*
X366087Y250050D01*
X365740Y253579D01*
X364710Y256972D01*
X363039Y260099D01*
X360789Y262840D01*
X358049Y265089D01*
X355079Y266676D01*
X354745Y267728D01*
X354699Y267985D01*
X355132Y268318D01*
X356735Y270407D01*
X357743Y272840D01*
X358086Y275450D01*
X357743Y278060D01*
X356735Y280493D01*
X355132Y282582D01*
X354699Y282915D01*
X354745Y283172D01*
X355079Y284224D01*
X358049Y285811D01*
X360789Y288060D01*
X363039Y290801D01*
X364710Y293928D01*
X365740Y297321D01*
X366087Y300850D01*
X365740Y304379D01*
X364710Y307772D01*
X363039Y310899D01*
X360789Y313640D01*
X358049Y315889D01*
X355079Y317476D01*
X354745Y318528D01*
X354699Y318785D01*
X355132Y319118D01*
X356735Y321207D01*
X357743Y323639D01*
X358086Y326250D01*
X357743Y328861D01*
X356735Y331293D01*
X355132Y333382D01*
X353043Y334985D01*
X350611Y335993D01*
X348000Y336336D01*
D02*
G37*
G36*
X60270Y227799D02*
Y220270D01*
X67800D01*
X67661Y221321D01*
X66765Y223483D01*
X65340Y225340D01*
X63483Y226765D01*
X61321Y227661D01*
X60270Y227799D01*
D02*
G37*
G36*
X57730D02*
X56679Y227661D01*
X54517Y226765D01*
X52660Y225340D01*
X51235Y223483D01*
X50339Y221321D01*
X50201Y220270D01*
X57730D01*
Y227799D01*
D02*
G37*
G36*
X440810Y236530D02*
X431920D01*
Y220020D01*
X440810D01*
Y236530D01*
D02*
G37*
G36*
X429380D02*
X420490D01*
Y220020D01*
X429380D01*
Y236530D01*
D02*
G37*
G36*
X67800Y217730D02*
X60270D01*
Y210201D01*
X61321Y210339D01*
X63483Y211235D01*
X65340Y212660D01*
X66765Y214517D01*
X67661Y216679D01*
X67800Y217730D01*
D02*
G37*
G36*
X57730D02*
X50201D01*
X50339Y216679D01*
X51235Y214517D01*
X52660Y212660D01*
X54517Y211235D01*
X56679Y210339D01*
X57730Y210201D01*
Y217730D01*
D02*
G37*
G36*
X440810Y217480D02*
X431920D01*
Y200970D01*
X440810D01*
Y217480D01*
D02*
G37*
G36*
X429380D02*
X420490D01*
Y200970D01*
X429380D01*
Y217480D01*
D02*
G37*
G36*
X145040Y178790D02*
X129960D01*
Y163710D01*
X145040D01*
Y178790D01*
D02*
G37*
G36*
X137500Y158855D02*
X135532Y158596D01*
X133698Y157836D01*
X132122Y156628D01*
X130914Y155052D01*
X130154Y153218D01*
X129895Y151250D01*
X130154Y149282D01*
X130914Y147448D01*
X132122Y145872D01*
X133698Y144664D01*
X135532Y143904D01*
X137500Y143645D01*
X139468Y143904D01*
X141302Y144664D01*
X142878Y145872D01*
X144086Y147448D01*
X144846Y149282D01*
X145105Y151250D01*
X144846Y153218D01*
X144086Y155052D01*
X142878Y156628D01*
X141302Y157836D01*
X139468Y158596D01*
X137500Y158855D01*
D02*
G37*
G36*
X272820Y134390D02*
Y126770D01*
X280440D01*
X280299Y127844D01*
X279394Y130029D01*
X277955Y131905D01*
X276079Y133344D01*
X273894Y134249D01*
X272820Y134390D01*
D02*
G37*
G36*
X270280D02*
X269206Y134249D01*
X267021Y133344D01*
X265145Y131905D01*
X263706Y130029D01*
X262801Y127844D01*
X262660Y126770D01*
X270280D01*
Y134390D01*
D02*
G37*
G36*
X97500Y133868D02*
X95159Y133402D01*
X93174Y132076D01*
X91848Y130091D01*
X91383Y127750D01*
X91848Y125409D01*
X93174Y123424D01*
X95159Y122098D01*
X97500Y121632D01*
X99841Y122098D01*
X101826Y123424D01*
X103152Y125409D01*
X103617Y127750D01*
X103152Y130091D01*
X101826Y132076D01*
X99841Y133402D01*
X97500Y133868D01*
D02*
G37*
G36*
X229190Y133940D02*
X212310D01*
Y117060D01*
X229190D01*
Y133940D01*
D02*
G37*
G36*
X246150Y134013D02*
X243947Y133723D01*
X241894Y132872D01*
X240131Y131519D01*
X238778Y129756D01*
X237927Y127703D01*
X237637Y125500D01*
X237927Y123297D01*
X238778Y121244D01*
X240131Y119480D01*
X241894Y118128D01*
X243947Y117277D01*
X246150Y116987D01*
X248353Y117277D01*
X250406Y118128D01*
X252169Y119480D01*
X253522Y121244D01*
X254373Y123297D01*
X254663Y125500D01*
X254373Y127703D01*
X253522Y129756D01*
X252169Y131519D01*
X250406Y132872D01*
X248353Y133723D01*
X246150Y134013D01*
D02*
G37*
G36*
X280440Y124230D02*
X272820D01*
Y116610D01*
X273894Y116751D01*
X276079Y117656D01*
X277955Y119095D01*
X279394Y120971D01*
X280299Y123156D01*
X280440Y124230D01*
D02*
G37*
G36*
X270280D02*
X262660D01*
X262801Y123156D01*
X263706Y120971D01*
X265145Y119095D01*
X267021Y117656D01*
X269206Y116751D01*
X270280Y116610D01*
Y124230D01*
D02*
G37*
G36*
X232700Y84112D02*
X229167Y83764D01*
X225769Y82733D01*
X222637Y81060D01*
X219893Y78807D01*
X217640Y76063D01*
X216070Y73125D01*
X214768Y72735D01*
X214450Y73150D01*
X212356Y74757D01*
X209917Y75767D01*
X207300Y76111D01*
X204683Y75767D01*
X202244Y74757D01*
X200150Y73150D01*
X199832Y72735D01*
X198530Y73125D01*
X196960Y76063D01*
X194707Y78807D01*
X191963Y81060D01*
X188831Y82733D01*
X185434Y83764D01*
X181900Y84112D01*
X178367Y83764D01*
X174969Y82733D01*
X171837Y81060D01*
X169093Y78807D01*
X166840Y76063D01*
X165270Y73125D01*
X163968Y72735D01*
X163650Y73150D01*
X161556Y74757D01*
X159117Y75767D01*
X156500Y76111D01*
X153883Y75767D01*
X151444Y74757D01*
X149350Y73150D01*
X147743Y71056D01*
X146733Y68617D01*
X146389Y66000D01*
X146733Y63383D01*
X147743Y60944D01*
X149350Y58850D01*
X151444Y57243D01*
X153883Y56233D01*
X156500Y55889D01*
X159117Y56233D01*
X161556Y57243D01*
X163650Y58850D01*
X163968Y59265D01*
X165270Y58875D01*
X166840Y55937D01*
X169093Y53193D01*
X171837Y50940D01*
X174775Y49370D01*
X175165Y48068D01*
X174750Y47750D01*
X173143Y45656D01*
X172133Y43217D01*
X171789Y40600D01*
X172133Y37983D01*
X173143Y35544D01*
X174750Y33450D01*
X176844Y31843D01*
X179283Y30833D01*
X181900Y30489D01*
X184517Y30833D01*
X186956Y31843D01*
X189050Y33450D01*
X190657Y35544D01*
X191667Y37983D01*
X192012Y40600D01*
X191667Y43217D01*
X190657Y45656D01*
X189050Y47750D01*
X188635Y48068D01*
X189025Y49370D01*
X191963Y50940D01*
X194707Y53193D01*
X196960Y55937D01*
X198530Y58875D01*
X199832Y59265D01*
X200150Y58850D01*
X202244Y57243D01*
X204683Y56233D01*
X207300Y55889D01*
X209917Y56233D01*
X212356Y57243D01*
X214450Y58850D01*
X214768Y59265D01*
X216070Y58875D01*
X217640Y55937D01*
X219805Y53300D01*
X217640Y50663D01*
X216070Y47725D01*
X214768Y47335D01*
X214450Y47750D01*
X212356Y49357D01*
X209917Y50367D01*
X207300Y50711D01*
X204683Y50367D01*
X202244Y49357D01*
X200150Y47750D01*
X198543Y45656D01*
X197533Y43217D01*
X197188Y40600D01*
X197533Y37983D01*
X198543Y35544D01*
X200150Y33450D01*
X202244Y31843D01*
X204683Y30833D01*
X207300Y30489D01*
X209917Y30833D01*
X212356Y31843D01*
X214450Y33450D01*
X214768Y33865D01*
X216070Y33475D01*
X217640Y30537D01*
X219893Y27793D01*
X222637Y25540D01*
X225769Y23867D01*
X229167Y22836D01*
X232700Y22488D01*
X236234Y22836D01*
X239631Y23867D01*
X242763Y25540D01*
X245400Y27705D01*
X248037Y25540D01*
X251169Y23867D01*
X254566Y22836D01*
X258100Y22488D01*
X261633Y22836D01*
X265031Y23867D01*
X268163Y25540D01*
X270907Y27793D01*
X273160Y30537D01*
X274834Y33669D01*
X275864Y37067D01*
X276212Y40600D01*
X275864Y44134D01*
X275084Y46705D01*
X275987Y47975D01*
X276125D01*
Y84025D01*
X240075D01*
Y83887D01*
X238805Y82984D01*
X236234Y83764D01*
X232700Y84112D01*
D02*
G37*
G36*
X308500Y80371D02*
X304845Y79890D01*
X301440Y78479D01*
X298515Y76235D01*
X296271Y73310D01*
X294860Y69905D01*
X294379Y66250D01*
X294860Y62595D01*
X296271Y59190D01*
X298515Y56265D01*
X301440Y54021D01*
X304845Y52610D01*
X308500Y52129D01*
X312155Y52610D01*
X315496Y53994D01*
X317015Y52015D01*
X319940Y49771D01*
X323345Y48360D01*
X327000Y47879D01*
X330655Y48360D01*
X334060Y49771D01*
X336985Y52015D01*
X339229Y54940D01*
X340640Y58345D01*
X341121Y62000D01*
X340640Y65655D01*
X339229Y69060D01*
X336985Y71985D01*
X334060Y74229D01*
X330655Y75640D01*
X327000Y76121D01*
X323345Y75640D01*
X320004Y74256D01*
X318485Y76235D01*
X315560Y78479D01*
X312155Y79890D01*
X308500Y80371D01*
D02*
G37*
G36*
X156500Y50711D02*
X153883Y50367D01*
X151444Y49357D01*
X149350Y47750D01*
X147743Y45656D01*
X146733Y43217D01*
X146389Y40600D01*
X146733Y37983D01*
X147743Y35544D01*
X149350Y33450D01*
X151444Y31843D01*
X153883Y30833D01*
X156500Y30489D01*
X159117Y30833D01*
X161556Y31843D01*
X163650Y33450D01*
X165257Y35544D01*
X166267Y37983D01*
X166611Y40600D01*
X166267Y43217D01*
X165257Y45656D01*
X163650Y47750D01*
X161556Y49357D01*
X159117Y50367D01*
X156500Y50711D01*
D02*
G37*
G36*
X405250Y54212D02*
X401746Y53866D01*
X398376Y52844D01*
X395271Y51184D01*
X392549Y48951D01*
X390316Y46229D01*
X388656Y43124D01*
X387634Y39754D01*
X387289Y36250D01*
X387634Y32746D01*
X388656Y29376D01*
X390316Y26271D01*
X392549Y23549D01*
X395271Y21316D01*
X398376Y19656D01*
X401746Y18634D01*
X405250Y18289D01*
X408754Y18634D01*
X412124Y19656D01*
X415229Y21316D01*
X417951Y23549D01*
X420184Y26271D01*
X421844Y29376D01*
X422866Y32746D01*
X423212Y36250D01*
X422866Y39754D01*
X421844Y43124D01*
X420184Y46229D01*
X417951Y48951D01*
X415229Y51184D01*
X412124Y52844D01*
X408754Y53866D01*
X405250Y54212D01*
D02*
G37*
%LPD*%
G36*
X428061Y358960D02*
X428035Y359201D01*
X427958Y359417D01*
X427830Y359608D01*
X427650Y359773D01*
X427418Y359912D01*
X427136Y360027D01*
X426801Y360116D01*
X426416Y360179D01*
X425979Y360217D01*
X425490Y360230D01*
Y362770D01*
X425979Y362783D01*
X426416Y362821D01*
X426801Y362884D01*
X427136Y362973D01*
X427418Y363088D01*
X427650Y363227D01*
X427830Y363392D01*
X427958Y363583D01*
X428035Y363799D01*
X428061Y364040D01*
Y358960D01*
D02*
G37*
G36*
X347920Y242050D02*
X347070Y242033D01*
X346254Y241963D01*
X345474Y241840D01*
X344729Y241665D01*
X344020Y241438D01*
X343345Y241158D01*
X342706Y240826D01*
X342102Y240441D01*
X341534Y240004D01*
X341000Y239515D01*
X337465Y243050D01*
X337954Y243584D01*
X338391Y244152D01*
X338776Y244756D01*
X339108Y245395D01*
X339388Y246070D01*
X339616Y246779D01*
X339790Y247524D01*
X339913Y248304D01*
X339983Y249119D01*
X340000Y249970D01*
X347920Y242050D01*
D02*
G37*
G36*
X276726Y190161D02*
X276821Y190142D01*
X276962Y190126D01*
X277655Y190091D01*
X279209Y190074D01*
X280156Y185074D01*
X279704Y185070D01*
X278307Y184965D01*
X278060Y184917D01*
X277853Y184861D01*
X277688Y184795D01*
X277563Y184722D01*
X277479Y184639D01*
X276675Y190181D01*
X276726Y190161D01*
D02*
G37*
D49*
X405250Y218750D02*
Y259000D01*
X231000D02*
X298143D01*
X405250D02*
Y295250D01*
X231000Y259000D02*
X288750Y316750D01*
X213750Y259000D02*
X231000D01*
X288750Y316750D02*
X311500D01*
X340000Y345250D01*
X355250D01*
X405250Y295250D01*
X305734Y365484D02*
Y409235D01*
X302220Y412750D02*
X305734Y409235D01*
X298143Y259000D02*
X298197Y259053D01*
X115436Y358436D02*
X129250Y372250D01*
X189250D01*
X188750Y284000D02*
Y371750D01*
X229750Y412750D02*
X302220D01*
X188750Y371750D02*
X229750Y412750D01*
X188750Y284000D02*
X213750Y259000D01*
X410850Y264600D02*
X435500D01*
X405250Y259000D02*
X410850Y264600D01*
D50*
X154000Y275000D02*
X179750D01*
X188750Y284000D01*
X202740Y347740D02*
X250500Y395500D01*
X202740Y314754D02*
Y347740D01*
Y314754D02*
X206999Y310495D01*
X224991D01*
X225761Y311265D01*
X230464Y344250D02*
X310750D01*
X215241Y329027D02*
X230464Y344250D01*
X215241Y323580D02*
Y329027D01*
X210010Y318349D02*
X215241Y323580D01*
X210010Y317766D02*
Y318349D01*
X435428Y290072D02*
X435500Y290000D01*
X337960Y356960D02*
X358790D01*
X425678Y290072D02*
X435428D01*
X358790Y356960D02*
X425678Y290072D01*
X311500Y330500D02*
X337960Y356960D01*
X261500Y330500D02*
X311500D01*
X310750Y344250D02*
X328000Y361500D01*
X430800D02*
X435500Y366200D01*
X328000Y361500D02*
X430800D01*
D51*
X274250Y187000D02*
X274824Y187574D01*
X285524D01*
X348000Y250050D01*
D54*
X296950Y110300D02*
X316550Y90700D01*
X379850Y96558D02*
Y218750D01*
X296950Y110300D02*
Y125500D01*
X373992Y90700D02*
X379850Y96558D01*
X316550Y90700D02*
X373992D01*
X296399Y126051D02*
X296950Y125500D01*
X193600Y181600D02*
X193600D01*
X137500Y131250D02*
X137707Y131457D01*
X143457D01*
X193600Y181600D01*
X193600D02*
X247650D01*
X296399Y126051D02*
Y132851D01*
X247650Y181600D02*
X296399Y132851D01*
X168950Y206250D02*
X190725Y184475D01*
X193600Y181600D01*
X348000Y402450D02*
Y404950D01*
X348500Y405450D01*
Y421392D01*
X342642Y427250D02*
X348500Y421392D01*
X159444Y427250D02*
X342642D01*
X103250Y371056D02*
X159444Y427250D01*
X103250Y223500D02*
Y371056D01*
Y223500D02*
X120500Y206250D01*
X168950D01*
D56*
X137500Y131250D02*
D03*
D58*
X430650Y218750D02*
D03*
D59*
X405250D02*
D03*
X379850D02*
D03*
D61*
X348000Y250050D02*
D03*
Y377050D02*
D03*
D62*
Y402450D02*
D03*
D66*
X296950Y125500D02*
D03*
X271550D02*
D03*
D68*
X435500Y366200D02*
D03*
D69*
Y315400D02*
D03*
Y290000D02*
D03*
Y264600D02*
D03*
D70*
X305734Y365484D02*
D03*
X274250Y187000D02*
D03*
X298197Y259053D02*
D03*
X115436Y358436D02*
D03*
X154000Y275000D02*
D03*
X225761Y311265D02*
D03*
X210010Y317766D02*
D03*
X250500Y395500D02*
D03*
X261500Y330500D02*
D03*
D71*
X59000Y219000D02*
D03*
X34500Y297750D02*
D03*
Y321500D02*
D03*
X136250Y347750D02*
D03*
M02*
