G04*
G04 #@! TF.GenerationSoftware,Altium Limited,Altium Designer,20.0.13 (296)*
G04*
G04 Layer_Color=8388736*
%FSLAX44Y44*%
%MOMM*%
G71*
G01*
G75*
%ADD24R,1.6032X1.2032*%
%ADD25R,1.2200X4.9200*%
%ADD26R,1.2032X1.0032*%
%ADD27R,0.5032X1.7032*%
%ADD28R,1.7032X0.5032*%
%ADD29R,1.0032X1.2032*%
%ADD30R,2.3200X0.7200*%
%ADD31R,1.7032X1.1032*%
%ADD32R,1.2032X1.6032*%
%ADD33R,1.3112X1.3112*%
%ADD34C,1.3112*%
%ADD35C,3.7032*%
%ADD36R,1.7272X3.2512*%
%ADD37O,1.7272X3.2512*%
%ADD38C,3.3782*%
%ADD39C,1.8032*%
%ADD40R,1.8032X1.8032*%
%ADD41R,1.8082X1.8082*%
%ADD42C,1.8082*%
%ADD43C,1.7200*%
%ADD44R,1.7200X1.7200*%
%ADD45C,1.4912*%
%ADD46R,1.4912X1.4912*%
%ADD47R,1.7032X1.7032*%
%ADD48C,1.7032*%
D24*
X114500Y150000D02*
D03*
Y170000D02*
D03*
X30000Y97750D02*
D03*
Y77750D02*
D03*
X53500Y97750D02*
D03*
Y77750D02*
D03*
X76500Y97750D02*
D03*
Y77750D02*
D03*
X180000Y198250D02*
D03*
Y218250D02*
D03*
X157250D02*
D03*
Y198250D02*
D03*
X202750D02*
D03*
Y218250D02*
D03*
D25*
X59500Y267500D02*
D03*
Y171500D02*
D03*
D26*
X24250Y248500D02*
D03*
Y264500D02*
D03*
Y188750D02*
D03*
Y172750D02*
D03*
X194000Y376750D02*
D03*
Y360750D02*
D03*
X286750Y360750D02*
D03*
Y344750D02*
D03*
X281250Y237500D02*
D03*
Y253500D02*
D03*
D27*
X207000Y345750D02*
D03*
X212000D02*
D03*
X217000D02*
D03*
X222000D02*
D03*
X227000D02*
D03*
X232000D02*
D03*
X237000D02*
D03*
X242000D02*
D03*
X247000D02*
D03*
X252000D02*
D03*
X257000D02*
D03*
X262000D02*
D03*
Y256750D02*
D03*
X257000D02*
D03*
X252000D02*
D03*
X247000D02*
D03*
X242000D02*
D03*
X237000D02*
D03*
X232000D02*
D03*
X227000D02*
D03*
X222000D02*
D03*
X217000D02*
D03*
X212000D02*
D03*
X207000D02*
D03*
D28*
X279000Y328750D02*
D03*
Y323750D02*
D03*
Y318750D02*
D03*
Y313750D02*
D03*
Y308750D02*
D03*
Y303750D02*
D03*
Y298750D02*
D03*
Y293750D02*
D03*
Y288750D02*
D03*
Y283750D02*
D03*
Y278750D02*
D03*
Y273750D02*
D03*
X190000D02*
D03*
Y278750D02*
D03*
Y283750D02*
D03*
Y288750D02*
D03*
Y293750D02*
D03*
Y298750D02*
D03*
Y303750D02*
D03*
Y308750D02*
D03*
Y313750D02*
D03*
Y318750D02*
D03*
Y323750D02*
D03*
Y328750D02*
D03*
D29*
X108500Y195750D02*
D03*
X124500D02*
D03*
X274750Y435750D02*
D03*
X258750D02*
D03*
X166750Y292500D02*
D03*
X150750D02*
D03*
D30*
X223250Y415550D02*
D03*
Y402850D02*
D03*
Y390150D02*
D03*
Y377450D02*
D03*
X271250Y415550D02*
D03*
Y402850D02*
D03*
Y390150D02*
D03*
Y377450D02*
D03*
D31*
X43500Y45750D02*
D03*
Y31750D02*
D03*
X74500D02*
D03*
Y45750D02*
D03*
D32*
X155000Y347000D02*
D03*
X175000D02*
D03*
D33*
X137500Y171250D02*
D03*
D34*
Y131250D02*
D03*
Y151250D02*
D03*
D35*
X72500Y336250D02*
D03*
D36*
X430650Y218750D02*
D03*
D37*
X405250D02*
D03*
X379850D02*
D03*
D38*
X405250Y36250D02*
D03*
D39*
X348000Y250050D02*
D03*
Y275450D02*
D03*
Y300850D02*
D03*
Y326250D02*
D03*
Y377050D02*
D03*
D40*
Y402450D02*
D03*
D41*
X258100Y66000D02*
D03*
D42*
Y40600D02*
D03*
X232700Y66000D02*
D03*
Y40600D02*
D03*
X207300Y66000D02*
D03*
Y40600D02*
D03*
X181900Y66000D02*
D03*
Y40600D02*
D03*
X156500Y66000D02*
D03*
Y40600D02*
D03*
D43*
X336250Y139100D02*
D03*
Y164500D02*
D03*
D44*
Y113700D02*
D03*
D45*
X296950Y125500D02*
D03*
X271550D02*
D03*
X246150D02*
D03*
D46*
X220750D02*
D03*
D47*
X435500Y366200D02*
D03*
D48*
Y340800D02*
D03*
Y315400D02*
D03*
Y290000D02*
D03*
Y264600D02*
D03*
M02*
