G04*
G04 #@! TF.GenerationSoftware,Altium Limited,Altium Designer,20.0.13 (296)*
G04*
G04 Layer_Color=32896*
%FSLAX44Y44*%
%MOMM*%
G71*
G01*
G75*
%ADD10C,0.2000*%
%ADD11C,0.1500*%
%ADD13C,0.2500*%
%ADD14C,0.1270*%
%ADD54C,0.3000*%
D10*
X164750Y313850D02*
G03*
X164750Y313850I-1000J0D01*
G01*
X170500Y396000D02*
Y405000D01*
Y396000D02*
X178500D01*
X200500D02*
Y405000D01*
X192500Y396000D02*
X200500D01*
X241000Y123500D02*
Y173500D01*
X259000Y123500D02*
Y173500D01*
X241000Y123500D02*
X259000D01*
X241000Y173500D02*
X259000D01*
X186748Y106831D02*
X176752D01*
Y101832D01*
X178418Y100166D01*
X181750D01*
X183416Y101832D01*
Y106831D01*
Y103498D02*
X186748Y100166D01*
X176752Y90169D02*
Y96834D01*
X181750D01*
X180084Y93502D01*
Y91835D01*
X181750Y90169D01*
X185082D01*
X186748Y91835D01*
Y95168D01*
X185082Y96834D01*
X170748Y106081D02*
X160752D01*
Y101082D01*
X162418Y99416D01*
X165750D01*
X167416Y101082D01*
Y106081D01*
Y102748D02*
X170748Y99416D01*
Y91085D02*
X160752D01*
X165750Y96084D01*
Y89419D01*
X320002Y188419D02*
X329998D01*
Y193418D01*
X328332Y195084D01*
X325000D01*
X323334Y193418D01*
Y188419D01*
Y191752D02*
X320002Y195084D01*
X328332Y198416D02*
X329998Y200082D01*
Y203414D01*
X328332Y205081D01*
X326666D01*
X325000Y203414D01*
Y201748D01*
Y203414D01*
X323334Y205081D01*
X321668D01*
X320002Y203414D01*
Y200082D01*
X321668Y198416D01*
X308252Y82919D02*
X318248D01*
Y87918D01*
X316582Y89584D01*
X313250D01*
X311584Y87918D01*
Y82919D01*
Y86252D02*
X308252Y89584D01*
Y99581D02*
Y92916D01*
X314916Y99581D01*
X316582D01*
X318248Y97914D01*
Y94582D01*
X316582Y92916D01*
X264412Y424432D02*
Y434429D01*
X259414D01*
X257747Y432763D01*
Y429430D01*
X259414Y427764D01*
X264412D01*
X261080D02*
X257747Y424432D01*
X254415D02*
X251083D01*
X252749D01*
Y434429D01*
X254415Y432763D01*
X271252Y264578D02*
Y261246D01*
Y262912D01*
X281248D01*
Y264578D01*
Y261246D01*
X272918Y249583D02*
X271252Y251249D01*
Y254581D01*
X272918Y256248D01*
X274584D01*
X276250Y254581D01*
Y251249D01*
X277916Y249583D01*
X279582D01*
X281248Y251249D01*
Y254581D01*
X279582Y256248D01*
X271252Y241252D02*
Y244585D01*
X272918Y246251D01*
X279582D01*
X281248Y244585D01*
Y241252D01*
X279582Y239586D01*
X272918D01*
X271252Y241252D01*
X281248Y236254D02*
Y232922D01*
Y234588D01*
X271252D01*
X272918Y236254D01*
X286002Y193637D02*
Y183640D01*
X281004D01*
X279338Y185306D01*
Y191971D01*
X281004Y193637D01*
X286002D01*
X276005D02*
Y183640D01*
X271007D01*
X269341Y185306D01*
Y191971D01*
X271007Y193637D01*
X276005D01*
X266008Y183640D02*
X262676D01*
X264342D01*
Y193637D01*
X266008Y191971D01*
X194331Y437498D02*
Y427502D01*
X189332D01*
X187666Y429168D01*
Y435832D01*
X189332Y437498D01*
X194331D01*
X177669Y427502D02*
X184334D01*
X177669Y434166D01*
Y435832D01*
X179335Y437498D01*
X182668D01*
X184334Y435832D01*
X286584Y82418D02*
X284918Y80752D01*
X281586D01*
X279919Y82418D01*
Y89082D01*
X281586Y90748D01*
X284918D01*
X286584Y89082D01*
X294914Y90748D02*
Y80752D01*
X289916Y85750D01*
X296581D01*
X206916Y184582D02*
X208582Y186248D01*
X211915D01*
X213581Y184582D01*
Y177918D01*
X211915Y176252D01*
X208582D01*
X206916Y177918D01*
X203584Y184582D02*
X201918Y186248D01*
X198585D01*
X196919Y184582D01*
Y182916D01*
X198585Y181250D01*
X200252D01*
X198585D01*
X196919Y179584D01*
Y177918D01*
X198585Y176252D01*
X201918D01*
X203584Y177918D01*
X176166Y347582D02*
X177832Y349248D01*
X181164D01*
X182831Y347582D01*
Y340918D01*
X181164Y339252D01*
X177832D01*
X176166Y340918D01*
X166169Y339252D02*
X172834D01*
X166169Y345916D01*
Y347582D01*
X167836Y349248D01*
X171168D01*
X172834Y347582D01*
D11*
X240150Y94150D02*
G03*
X240046Y78238I12064J-8036D01*
G01*
X271050Y78350D02*
G03*
X271155Y94263I-12064J8036D01*
G01*
X190100Y318850D02*
G03*
X190205Y334763I-12064J8036D01*
G01*
X159200Y334650D02*
G03*
X159095Y318738I12064J-8036D01*
G01*
X157900Y188900D02*
G03*
X157795Y172987I12064J-8036D01*
G01*
X188800Y173100D02*
G03*
X188905Y189013I-12064J8036D01*
G01*
X193500Y80750D02*
Y116750D01*
Y80750D02*
X213500D01*
X193500Y116750D02*
X213500D01*
Y80750D02*
Y116750D01*
X206250Y96000D02*
Y101500D01*
X200500Y96000D02*
X206250D01*
X200500D02*
Y101500D01*
X206250D01*
X233250Y80750D02*
Y116750D01*
X213250D02*
X233250D01*
X213250Y80750D02*
X233250D01*
X213250D02*
Y116750D01*
X220500Y96000D02*
Y101500D01*
X226250D01*
Y96000D02*
Y101500D01*
X220500Y96000D02*
X226250D01*
X254350Y83650D02*
Y88950D01*
X257150Y83650D02*
Y88950D01*
X240250Y94250D02*
X271000D01*
X240250Y78250D02*
X271000D01*
X175900Y324050D02*
Y329350D01*
X173100Y324050D02*
Y329350D01*
X159250Y318750D02*
X190000D01*
X159250Y334750D02*
X190000D01*
X172100Y178400D02*
Y183700D01*
X174900Y178400D02*
Y183700D01*
X158000Y189000D02*
X188750D01*
X158000Y173000D02*
X188750D01*
X314000Y161000D02*
X319750D01*
Y166500D01*
X314000D02*
X319750D01*
X314000Y161000D02*
Y166500D01*
X306750Y145750D02*
Y181750D01*
Y145750D02*
X326750D01*
X306750Y181750D02*
X326750D01*
Y145750D02*
Y181750D01*
X314250Y121000D02*
X320000D01*
Y126500D01*
X314250D02*
X320000D01*
X314250Y121000D02*
Y126500D01*
X307000Y105750D02*
Y141750D01*
Y105750D02*
X327000D01*
X307000Y141750D02*
X327000D01*
Y105750D02*
Y141750D01*
X252750Y401250D02*
X258500D01*
X252750Y395750D02*
Y401250D01*
Y395750D02*
X258500D01*
Y401250D01*
X265750Y380500D02*
Y416500D01*
X245750D02*
X265750D01*
X245750Y380500D02*
X265750D01*
X245750D02*
Y416500D01*
D13*
X227250Y120950D02*
G03*
X227250Y120950I-1250J0D01*
G01*
D14*
X160700Y213350D02*
Y288350D01*
X263700Y213350D02*
Y288350D01*
D54*
X461840Y61410D02*
Y222700D01*
X355160Y61410D02*
X461840D01*
X355160D02*
Y222700D01*
X461840D01*
M02*
