G04*
G04 #@! TF.GenerationSoftware,Altium Limited,Altium Designer,20.0.13 (296)*
G04*
G04 Layer_Color=8421504*
%FSLAX44Y44*%
%MOMM*%
G71*
G01*
G75*
%ADD16R,2.7200X1.5300*%
%ADD17R,1.5000X1.5000*%
%ADD18R,1.0000X1.4000*%
%ADD19R,1.4000X1.0000*%
%ADD20R,1.1000X4.8000*%
%ADD21R,1.0000X0.8000*%
%ADD22R,0.3000X1.5000*%
%ADD23R,1.5000X0.3000*%
%ADD24R,2.2000X0.6000*%
%ADD25R,0.8000X1.0000*%
%ADD26R,1.5000X0.9000*%
D16*
X399250Y205160D02*
D03*
Y178340D02*
D03*
D17*
X279000Y537000D02*
D03*
X244000D02*
D03*
D18*
X187750Y535250D02*
D03*
X207750D02*
D03*
X151000Y267500D02*
D03*
X171000D02*
D03*
D19*
X152250Y69750D02*
D03*
Y89750D02*
D03*
X108750Y256500D02*
D03*
Y276500D02*
D03*
X85250Y256500D02*
D03*
Y276500D02*
D03*
X62250Y256500D02*
D03*
Y276500D02*
D03*
X176000Y118750D02*
D03*
Y138750D02*
D03*
X153250D02*
D03*
Y118750D02*
D03*
X198750D02*
D03*
Y138750D02*
D03*
D20*
X52500Y216250D02*
D03*
Y120250D02*
D03*
D21*
X17250Y197250D02*
D03*
Y213250D02*
D03*
Y137500D02*
D03*
Y121500D02*
D03*
X190000Y297250D02*
D03*
Y281250D02*
D03*
X223250Y138250D02*
D03*
Y122250D02*
D03*
X282750Y281250D02*
D03*
Y265250D02*
D03*
X277250Y158000D02*
D03*
Y174000D02*
D03*
D22*
X203000Y266250D02*
D03*
X208000D02*
D03*
X213000D02*
D03*
X218000D02*
D03*
X223000D02*
D03*
X228000D02*
D03*
X233000D02*
D03*
X238000D02*
D03*
X243000D02*
D03*
X248000D02*
D03*
X253000D02*
D03*
X258000D02*
D03*
Y177250D02*
D03*
X253000D02*
D03*
X248000D02*
D03*
X243000D02*
D03*
X238000D02*
D03*
X233000D02*
D03*
X228000D02*
D03*
X223000D02*
D03*
X218000D02*
D03*
X213000D02*
D03*
X208000D02*
D03*
X203000D02*
D03*
D23*
X275000Y249250D02*
D03*
Y244250D02*
D03*
Y239250D02*
D03*
Y234250D02*
D03*
Y229250D02*
D03*
Y224250D02*
D03*
Y219250D02*
D03*
Y214250D02*
D03*
Y209250D02*
D03*
Y204250D02*
D03*
Y199250D02*
D03*
Y194250D02*
D03*
X186000D02*
D03*
Y199250D02*
D03*
Y204250D02*
D03*
Y209250D02*
D03*
Y214250D02*
D03*
Y219250D02*
D03*
Y224250D02*
D03*
Y229250D02*
D03*
Y234250D02*
D03*
Y239250D02*
D03*
Y244250D02*
D03*
Y249250D02*
D03*
D24*
X219250Y336050D02*
D03*
Y323350D02*
D03*
Y310650D02*
D03*
Y297950D02*
D03*
X267250Y336050D02*
D03*
Y323350D02*
D03*
Y310650D02*
D03*
Y297950D02*
D03*
D25*
X270750Y356250D02*
D03*
X254750D02*
D03*
X162750Y205250D02*
D03*
X146750D02*
D03*
D26*
X121750Y300750D02*
D03*
Y314750D02*
D03*
X90750D02*
D03*
Y300750D02*
D03*
M02*
