G04*
G04 #@! TF.GenerationSoftware,Altium Limited,Altium Designer,20.0.13 (296)*
G04*
G04 Layer_Physical_Order=1*
G04 Layer_Color=255*
%FSLAX44Y44*%
%MOMM*%
G71*
G01*
G75*
%ADD15C,0.2540*%
%ADD16R,2.7200X1.5300*%
%ADD17R,1.5000X1.5000*%
%ADD18R,1.0000X1.4000*%
%ADD19R,1.4000X1.0000*%
%ADD20R,1.1000X4.8000*%
%ADD21R,1.0000X0.8000*%
%ADD22R,0.3000X1.5000*%
%ADD23R,1.5000X0.3000*%
%ADD24R,2.2000X0.6000*%
%ADD25R,0.8000X1.0000*%
%ADD26R,1.5000X0.9000*%
%ADD54C,0.3000*%
%ADD55C,1.0000*%
%ADD56C,0.5000*%
%ADD57C,0.6000*%
%ADD58C,1.5000*%
%ADD59R,1.5000X1.5000*%
%ADD60C,3.4000*%
%ADD61R,1.6500X1.6500*%
%ADD62C,1.6500*%
%ADD63C,2.7000*%
%ADD64R,1.5240X3.0480*%
%ADD65O,1.5240X3.0480*%
%ADD66C,3.1750*%
%ADD67C,1.6000*%
%ADD68R,1.6000X1.6000*%
%ADD69R,1.6000X1.6000*%
%ADD70C,1.2880*%
%ADD71R,1.2880X1.2880*%
%ADD72C,4.0000*%
%ADD73C,0.8000*%
%ADD74C,1.2700*%
G36*
X460431Y3569D02*
X3569D01*
Y567681D01*
X460431D01*
X460431Y3569D01*
D02*
G37*
%LPC*%
G36*
X253500Y546500D02*
X234500D01*
Y544060D01*
X214750D01*
Y544250D01*
X200750D01*
Y537459D01*
X200690Y537000D01*
Y535250D01*
X200750Y534791D01*
Y526250D01*
X214750D01*
Y529940D01*
X234500D01*
Y527500D01*
X253500D01*
Y546500D01*
D02*
G37*
G36*
X430000Y558325D02*
X426962Y558026D01*
X424040Y557139D01*
X421347Y555700D01*
X418987Y553763D01*
X417050Y551403D01*
X415611Y548710D01*
X414724Y545788D01*
X414425Y542750D01*
X414724Y539711D01*
X415611Y536790D01*
X417050Y534097D01*
X418987Y531737D01*
X421347Y529800D01*
X424040Y528361D01*
X426962Y527474D01*
X430000Y527175D01*
X433038Y527474D01*
X435960Y528361D01*
X438653Y529800D01*
X441013Y531737D01*
X442950Y534097D01*
X444389Y536790D01*
X445276Y539711D01*
X445575Y542750D01*
X445276Y545788D01*
X444389Y548710D01*
X442950Y551403D01*
X441013Y553763D01*
X438653Y555700D01*
X435960Y557139D01*
X433038Y558026D01*
X430000Y558325D01*
D02*
G37*
G36*
X24750Y557125D02*
X21711Y556826D01*
X18790Y555939D01*
X16097Y554500D01*
X13737Y552563D01*
X11800Y550203D01*
X10361Y547510D01*
X9474Y544589D01*
X9175Y541550D01*
X9474Y538512D01*
X10361Y535590D01*
X11800Y532897D01*
X13737Y530537D01*
X16097Y528600D01*
X18790Y527161D01*
X21711Y526274D01*
X24750Y525975D01*
X27789Y526274D01*
X30710Y527161D01*
X33403Y528600D01*
X35763Y530537D01*
X37700Y532897D01*
X39139Y535590D01*
X40026Y538512D01*
X40325Y541550D01*
X40026Y544589D01*
X39139Y547510D01*
X37700Y550203D01*
X35763Y552563D01*
X33403Y554500D01*
X30710Y555939D01*
X27789Y556826D01*
X24750Y557125D01*
D02*
G37*
G36*
X399500Y541492D02*
X395775Y541125D01*
X392194Y540039D01*
X388893Y538274D01*
X386000Y535900D01*
X383626Y533007D01*
X381861Y529706D01*
X380775Y526125D01*
X380408Y522400D01*
X380775Y518675D01*
X381861Y515094D01*
X383626Y511793D01*
X386000Y508900D01*
X388893Y506526D01*
X392194Y504761D01*
X395775Y503675D01*
X399500Y503308D01*
X403225Y503675D01*
X406806Y504761D01*
X410107Y506526D01*
X413000Y508900D01*
X415374Y511793D01*
X417139Y515094D01*
X418225Y518675D01*
X418592Y522400D01*
X418225Y526125D01*
X417139Y529706D01*
X415374Y533007D01*
X413000Y535900D01*
X410107Y538274D01*
X406806Y540039D01*
X403225Y541125D01*
X399500Y541492D01*
D02*
G37*
G36*
X55250Y540292D02*
X51525Y539925D01*
X47944Y538839D01*
X44643Y537074D01*
X41750Y534700D01*
X39376Y531807D01*
X37611Y528506D01*
X36525Y524925D01*
X36158Y521200D01*
X36525Y517475D01*
X37611Y513894D01*
X39376Y510593D01*
X41750Y507700D01*
X44643Y505326D01*
X47944Y503561D01*
X51525Y502475D01*
X55250Y502108D01*
X58975Y502475D01*
X62556Y503561D01*
X65857Y505326D01*
X68750Y507700D01*
X71124Y510593D01*
X72889Y513894D01*
X73975Y517475D01*
X74342Y521200D01*
X73975Y524925D01*
X72889Y528506D01*
X71124Y531807D01*
X68750Y534700D01*
X65857Y537074D01*
X62556Y538839D01*
X58975Y539925D01*
X55250Y540292D01*
D02*
G37*
G36*
X194750Y544250D02*
X180750D01*
Y535709D01*
X180690Y535250D01*
Y522600D01*
X180680Y522577D01*
X180440Y520750D01*
X180680Y518923D01*
X181385Y517220D01*
X182508Y515758D01*
X193558Y504708D01*
X195020Y503586D01*
X196723Y502880D01*
X198550Y502640D01*
X303098D01*
X303290Y502390D01*
X305431Y500747D01*
X307924Y499714D01*
X310600Y499362D01*
X313276Y499714D01*
X315769Y500747D01*
X317910Y502390D01*
X319553Y504531D01*
X320586Y507024D01*
X320938Y509700D01*
X320586Y512376D01*
X319553Y514869D01*
X317910Y517010D01*
X315769Y518653D01*
X313276Y519686D01*
X310600Y520038D01*
X307924Y519686D01*
X305431Y518653D01*
X303290Y517010D01*
X303098Y516760D01*
X201474D01*
X194810Y523424D01*
Y535250D01*
X194750Y535709D01*
Y544250D01*
D02*
G37*
G36*
X129000Y518750D02*
X108500D01*
Y498250D01*
X129000D01*
Y518750D01*
D02*
G37*
G36*
X308500Y562560D02*
X122750D01*
X120923Y562320D01*
X119220Y561614D01*
X117758Y560493D01*
X87258Y529992D01*
X86136Y528530D01*
X85430Y526827D01*
X85190Y525000D01*
Y440750D01*
X85430Y438923D01*
X86136Y437220D01*
X87258Y435757D01*
X94464Y428551D01*
X95926Y427429D01*
X97629Y426724D01*
X99456Y426483D01*
X110294D01*
X111440Y424990D01*
X113581Y423347D01*
X116074Y422314D01*
X118750Y421962D01*
X121426Y422314D01*
X123919Y423347D01*
X126060Y424990D01*
X127703Y427131D01*
X128736Y429624D01*
X129088Y432300D01*
X128736Y434976D01*
X127703Y437469D01*
X126060Y439610D01*
X123919Y441253D01*
X121426Y442286D01*
X118750Y442638D01*
X116074Y442286D01*
X113581Y441253D01*
X112735Y440604D01*
X102381D01*
X99310Y443675D01*
Y522076D01*
X125674Y548440D01*
X271940D01*
Y546500D01*
X269500D01*
Y527500D01*
X288500D01*
Y546500D01*
X286060D01*
Y548440D01*
X305576D01*
X330183Y523832D01*
Y505457D01*
X328690Y504310D01*
X327047Y502169D01*
X326014Y499676D01*
X325662Y497000D01*
X326014Y494324D01*
X327047Y491831D01*
X328690Y489690D01*
X330831Y488047D01*
X333324Y487014D01*
X336000Y486662D01*
X338676Y487014D01*
X341169Y488047D01*
X343310Y489690D01*
X344953Y491831D01*
X345986Y494324D01*
X346338Y497000D01*
X345986Y499676D01*
X344953Y502169D01*
X344304Y503015D01*
Y526756D01*
X344063Y528584D01*
X343358Y530286D01*
X342236Y531749D01*
X313493Y560493D01*
X312030Y561614D01*
X310327Y562320D01*
X308500Y562560D01*
D02*
G37*
G36*
X310600Y494638D02*
X307924Y494286D01*
X305431Y493253D01*
X303290Y491610D01*
X301647Y489469D01*
X300614Y486976D01*
X300262Y484300D01*
X300614Y481624D01*
X301647Y479131D01*
X303290Y476990D01*
X305431Y475347D01*
X307924Y474314D01*
X310600Y473962D01*
X313276Y474314D01*
X315769Y475347D01*
X317910Y476990D01*
X319553Y479131D01*
X320586Y481624D01*
X320938Y484300D01*
X320586Y486976D01*
X319553Y489469D01*
X317910Y491610D01*
X315769Y493253D01*
X313276Y494286D01*
X310600Y494638D01*
D02*
G37*
G36*
X118750Y493438D02*
X116074Y493086D01*
X113581Y492053D01*
X111440Y490410D01*
X109797Y488269D01*
X108764Y485776D01*
X108412Y483100D01*
X108764Y480424D01*
X109797Y477931D01*
X111440Y475790D01*
X113581Y474147D01*
X116074Y473114D01*
X118750Y472762D01*
X121426Y473114D01*
X123919Y474147D01*
X126060Y475790D01*
X127703Y477931D01*
X128736Y480424D01*
X129088Y483100D01*
X128736Y485776D01*
X127703Y488269D01*
X126060Y490410D01*
X123919Y492053D01*
X121426Y493086D01*
X118750Y493438D01*
D02*
G37*
G36*
X336000Y481938D02*
X333324Y481586D01*
X330831Y480553D01*
X328690Y478910D01*
X327047Y476769D01*
X326014Y474276D01*
X325662Y471600D01*
X326014Y468924D01*
X327047Y466431D01*
X328690Y464290D01*
X330831Y462647D01*
X333324Y461614D01*
X336000Y461262D01*
X338676Y461614D01*
X341169Y462647D01*
X343310Y464290D01*
X344953Y466431D01*
X345986Y468924D01*
X346338Y471600D01*
X345986Y474276D01*
X344953Y476769D01*
X343310Y478910D01*
X341169Y480553D01*
X338676Y481586D01*
X336000Y481938D01*
D02*
G37*
G36*
X144150Y480738D02*
X141474Y480386D01*
X138981Y479353D01*
X136840Y477710D01*
X135197Y475569D01*
X134164Y473076D01*
X133812Y470400D01*
X134164Y467724D01*
X135197Y465231D01*
X136840Y463090D01*
X138981Y461447D01*
X141474Y460414D01*
X144150Y460062D01*
X146826Y460414D01*
X149319Y461447D01*
X151460Y463090D01*
X153103Y465231D01*
X154136Y467724D01*
X154488Y470400D01*
X154136Y473076D01*
X153103Y475569D01*
X151460Y477710D01*
X149319Y479353D01*
X146826Y480386D01*
X144150Y480738D01*
D02*
G37*
G36*
X310600Y469238D02*
X307924Y468886D01*
X305431Y467853D01*
X303290Y466210D01*
X301647Y464069D01*
X300614Y461576D01*
X300262Y458900D01*
X300614Y456224D01*
X301647Y453731D01*
X303290Y451590D01*
X305431Y449947D01*
X307924Y448914D01*
X310600Y448562D01*
X313276Y448914D01*
X315769Y449947D01*
X317910Y451590D01*
X319553Y453731D01*
X320586Y456224D01*
X320938Y458900D01*
X320586Y461576D01*
X319553Y464069D01*
X317910Y466210D01*
X315769Y467853D01*
X313276Y468886D01*
X310600Y469238D01*
D02*
G37*
G36*
X118750Y468038D02*
X116074Y467686D01*
X113581Y466653D01*
X111440Y465010D01*
X109797Y462869D01*
X108764Y460376D01*
X108412Y457700D01*
X108764Y455024D01*
X109797Y452531D01*
X111440Y450390D01*
X113581Y448747D01*
X116074Y447714D01*
X118750Y447362D01*
X121426Y447714D01*
X123919Y448747D01*
X126060Y450390D01*
X127703Y452531D01*
X128736Y455024D01*
X129088Y457700D01*
X128736Y460376D01*
X127703Y462869D01*
X126060Y465010D01*
X123919Y466653D01*
X121426Y467686D01*
X118750Y468038D01*
D02*
G37*
G36*
X336000Y456538D02*
X333324Y456186D01*
X330831Y455153D01*
X328690Y453510D01*
X327047Y451369D01*
X326014Y448876D01*
X325662Y446200D01*
X326014Y443524D01*
X327047Y441031D01*
X328690Y438890D01*
X330831Y437247D01*
X333324Y436214D01*
X336000Y435862D01*
X338676Y436214D01*
X341169Y437247D01*
X343310Y438890D01*
X344953Y441031D01*
X345986Y443524D01*
X346338Y446200D01*
X345986Y448876D01*
X344953Y451369D01*
X343310Y453510D01*
X341169Y455153D01*
X338676Y456186D01*
X336000Y456538D01*
D02*
G37*
G36*
X144150Y455338D02*
X141474Y454986D01*
X138981Y453953D01*
X136840Y452310D01*
X135197Y450169D01*
X134164Y447676D01*
X133812Y445000D01*
X134164Y442324D01*
X135197Y439831D01*
X136840Y437690D01*
X138981Y436047D01*
X141474Y435014D01*
X144150Y434662D01*
X146826Y435014D01*
X149319Y436047D01*
X151460Y437690D01*
X153103Y439831D01*
X154136Y442324D01*
X154488Y445000D01*
X154136Y447676D01*
X153103Y450169D01*
X151460Y452310D01*
X149319Y453953D01*
X146826Y454986D01*
X144150Y455338D01*
D02*
G37*
G36*
X236750Y445900D02*
X216750D01*
Y425900D01*
X236750D01*
Y445900D01*
D02*
G37*
G36*
X144150Y506138D02*
X141474Y505786D01*
X138981Y504753D01*
X136840Y503110D01*
X135197Y500969D01*
X134164Y498476D01*
X133812Y495800D01*
X134164Y493124D01*
X135197Y490631D01*
X136840Y488490D01*
X138981Y486847D01*
X141474Y485814D01*
X144150Y485462D01*
X146826Y485814D01*
X149319Y486847D01*
X151460Y488490D01*
X153103Y490631D01*
X153344Y491212D01*
X197799D01*
X260256Y428756D01*
X261744Y427761D01*
X263500Y427412D01*
X302352D01*
X303290Y426190D01*
X305431Y424547D01*
X307924Y423514D01*
X310600Y423162D01*
X313276Y423514D01*
X315769Y424547D01*
X317910Y426190D01*
X319553Y428331D01*
X320586Y430824D01*
X320938Y433500D01*
X320586Y436176D01*
X319553Y438669D01*
X317910Y440810D01*
X315769Y442453D01*
X313276Y443486D01*
X310600Y443838D01*
X307924Y443486D01*
X305431Y442453D01*
X303290Y440810D01*
X301647Y438669D01*
X300785Y436588D01*
X265401D01*
X202944Y499044D01*
X201456Y500039D01*
X199700Y500388D01*
X153344D01*
X153103Y500969D01*
X151460Y503110D01*
X149319Y504753D01*
X146826Y505786D01*
X144150Y506138D01*
D02*
G37*
G36*
X346250Y431050D02*
X325750D01*
Y410550D01*
X346250D01*
Y431050D01*
D02*
G37*
G36*
X144150Y429938D02*
X141474Y429586D01*
X138981Y428553D01*
X136840Y426910D01*
X135197Y424769D01*
X134164Y422276D01*
X133812Y419600D01*
X134164Y416924D01*
X135197Y414431D01*
X136840Y412290D01*
X138981Y410647D01*
X141474Y409614D01*
X144150Y409262D01*
X146826Y409614D01*
X149319Y410647D01*
X151460Y412290D01*
X153103Y414431D01*
X154136Y416924D01*
X154488Y419600D01*
X154136Y422276D01*
X153103Y424769D01*
X151460Y426910D01*
X149319Y428553D01*
X146826Y429586D01*
X144150Y429938D01*
D02*
G37*
G36*
X226750Y420586D02*
X224139Y420243D01*
X221707Y419235D01*
X219618Y417632D01*
X218015Y415543D01*
X217007Y413111D01*
X216664Y410500D01*
X217007Y407890D01*
X218015Y405457D01*
X219618Y403368D01*
X221707Y401765D01*
X224139Y400757D01*
X226750Y400414D01*
X229361Y400757D01*
X231793Y401765D01*
X233882Y403368D01*
X235485Y405457D01*
X236493Y407890D01*
X236836Y410500D01*
X236493Y413111D01*
X235485Y415543D01*
X233882Y417632D01*
X231793Y419235D01*
X229361Y420243D01*
X226750Y420586D01*
D02*
G37*
G36*
X399500Y427192D02*
X395775Y426825D01*
X392194Y425739D01*
X388893Y423974D01*
X386000Y421600D01*
X383626Y418707D01*
X381861Y415406D01*
X380775Y411825D01*
X380408Y408100D01*
X380775Y404375D01*
X381861Y400794D01*
X383626Y397493D01*
X386000Y394600D01*
X388893Y392226D01*
X392194Y390461D01*
X395775Y389375D01*
X399500Y389008D01*
X403225Y389375D01*
X406806Y390461D01*
X410107Y392226D01*
X413000Y394600D01*
X415374Y397493D01*
X417139Y400794D01*
X418225Y404375D01*
X418592Y408100D01*
X418225Y411825D01*
X417139Y415406D01*
X415374Y418707D01*
X413000Y421600D01*
X410107Y423974D01*
X406806Y425739D01*
X403225Y426825D01*
X399500Y427192D01*
D02*
G37*
G36*
X55250Y425992D02*
X51525Y425625D01*
X47944Y424539D01*
X44643Y422774D01*
X41750Y420400D01*
X39376Y417507D01*
X37611Y414206D01*
X36525Y410625D01*
X36158Y406900D01*
X36525Y403175D01*
X37611Y399594D01*
X39376Y396293D01*
X41750Y393400D01*
X44643Y391026D01*
X47944Y389261D01*
X51525Y388175D01*
X55250Y387808D01*
X58975Y388175D01*
X62556Y389261D01*
X65857Y391026D01*
X68750Y393400D01*
X71124Y396293D01*
X72889Y399594D01*
X73975Y403175D01*
X74342Y406900D01*
X73975Y410625D01*
X72889Y414206D01*
X71124Y417507D01*
X68750Y420400D01*
X65857Y422774D01*
X62556Y424539D01*
X58975Y425625D01*
X55250Y425992D01*
D02*
G37*
G36*
X226750Y395186D02*
X224139Y394843D01*
X221707Y393835D01*
X219618Y392232D01*
X218015Y390143D01*
X217007Y387710D01*
X216664Y385100D01*
X217007Y382490D01*
X218015Y380057D01*
X219618Y377968D01*
X221707Y376365D01*
X224139Y375357D01*
X226750Y375014D01*
X229361Y375357D01*
X231793Y376365D01*
X233882Y377968D01*
X235485Y380057D01*
X236493Y382490D01*
X236836Y385100D01*
X236493Y387710D01*
X235485Y390143D01*
X233882Y392232D01*
X231793Y393835D01*
X229361Y394843D01*
X226750Y395186D01*
D02*
G37*
G36*
X430000Y403325D02*
X426962Y403026D01*
X424040Y402139D01*
X421347Y400700D01*
X418987Y398763D01*
X417050Y396403D01*
X415611Y393710D01*
X414724Y390788D01*
X414425Y387750D01*
X414724Y384711D01*
X415611Y381790D01*
X417050Y379097D01*
X418987Y376737D01*
X421347Y374800D01*
X424040Y373361D01*
X426962Y372474D01*
X430000Y372175D01*
X433038Y372474D01*
X435960Y373361D01*
X438653Y374800D01*
X441013Y376737D01*
X442950Y379097D01*
X444389Y381790D01*
X445276Y384711D01*
X445575Y387750D01*
X445276Y390788D01*
X444389Y393710D01*
X442950Y396403D01*
X441013Y398763D01*
X438653Y400700D01*
X435960Y402139D01*
X433038Y403026D01*
X430000Y403325D01*
D02*
G37*
G36*
X24750Y402125D02*
X21711Y401826D01*
X18790Y400939D01*
X16097Y399500D01*
X13737Y397563D01*
X11800Y395203D01*
X10361Y392510D01*
X9474Y389589D01*
X9175Y386550D01*
X9474Y383512D01*
X10361Y380590D01*
X11800Y377897D01*
X13737Y375537D01*
X16097Y373600D01*
X18790Y372161D01*
X21711Y371274D01*
X24750Y370975D01*
X27789Y371274D01*
X30710Y372161D01*
X33403Y373600D01*
X35763Y375537D01*
X37700Y377897D01*
X39139Y380590D01*
X40026Y383512D01*
X40325Y386550D01*
X40026Y389589D01*
X39139Y392510D01*
X37700Y395203D01*
X35763Y397563D01*
X33403Y399500D01*
X30710Y400939D01*
X27789Y401826D01*
X24750Y402125D01*
D02*
G37*
G36*
X261290Y363790D02*
X256020D01*
Y357520D01*
X261290D01*
Y363790D01*
D02*
G37*
G36*
X253480D02*
X248210D01*
Y357520D01*
X253480D01*
Y363790D01*
D02*
G37*
G36*
X261290Y354980D02*
X256020D01*
Y348710D01*
X261290D01*
Y354980D01*
D02*
G37*
G36*
X253480D02*
X248210D01*
Y348710D01*
X253480D01*
Y354980D01*
D02*
G37*
G36*
X199000Y342868D02*
X196659Y342402D01*
X194674Y341076D01*
X193348Y339091D01*
X192882Y336750D01*
X193348Y334409D01*
X194674Y332424D01*
X196659Y331098D01*
X199000Y330633D01*
X201341Y331098D01*
X203326Y332424D01*
X203988Y333416D01*
X206250D01*
Y331050D01*
X232250D01*
Y341050D01*
X213806D01*
X213484Y341114D01*
X213162Y341050D01*
X208313D01*
X208268Y341059D01*
X208225Y341050D01*
X206250D01*
Y340084D01*
X203988D01*
X203326Y341076D01*
X201341Y342402D01*
X199000Y342868D01*
D02*
G37*
G36*
X405770Y352274D02*
Y331020D01*
X427024D01*
X426714Y334169D01*
X425425Y338417D01*
X423332Y342333D01*
X420515Y345765D01*
X417083Y348582D01*
X413167Y350675D01*
X408919Y351964D01*
X405770Y352274D01*
D02*
G37*
G36*
X403230D02*
X400081Y351964D01*
X395833Y350675D01*
X391917Y348582D01*
X388485Y345765D01*
X385668Y342333D01*
X383575Y338417D01*
X382286Y334169D01*
X381976Y331020D01*
X403230D01*
Y352274D01*
D02*
G37*
G36*
X35770D02*
Y331020D01*
X57024D01*
X56714Y334169D01*
X55425Y338417D01*
X53332Y342333D01*
X50515Y345765D01*
X47083Y348582D01*
X43167Y350675D01*
X38919Y351964D01*
X35770Y352274D01*
D02*
G37*
G36*
X33230D02*
X30081Y351964D01*
X25833Y350675D01*
X21917Y348582D01*
X18485Y345765D01*
X15668Y342333D01*
X13575Y338417D01*
X12286Y334169D01*
X11976Y331020D01*
X33230D01*
Y352274D01*
D02*
G37*
G36*
X237500Y329118D02*
X235159Y328652D01*
X234203Y328013D01*
X234017Y327934D01*
X233572Y327628D01*
X233520Y327597D01*
X232250Y328320D01*
Y328350D01*
X206250D01*
Y318350D01*
X232250D01*
X232250Y318350D01*
X233494Y318461D01*
X233781Y318242D01*
X233930Y318170D01*
X235159Y317348D01*
X237500Y316882D01*
X239336Y317248D01*
X240451Y316345D01*
X240382Y316000D01*
X240558Y315118D01*
X239424Y313984D01*
X232250D01*
Y315650D01*
X206250D01*
Y305650D01*
X232250D01*
Y307316D01*
X240805D01*
X242081Y307570D01*
X243163Y308293D01*
X245042Y310172D01*
X246500Y309883D01*
X248841Y310348D01*
X250826Y311674D01*
X252152Y313659D01*
X252618Y316000D01*
X252152Y318341D01*
X250826Y320326D01*
X248841Y321652D01*
X246500Y322118D01*
X244664Y321752D01*
X243549Y322655D01*
X243617Y323000D01*
X243152Y325341D01*
X241826Y327326D01*
X239841Y328652D01*
X237500Y329118D01*
D02*
G37*
G36*
X287500Y330118D02*
X285159Y329652D01*
X283174Y328326D01*
X282294Y327009D01*
X280250D01*
Y328350D01*
X254250D01*
Y318350D01*
X280250D01*
Y320341D01*
X282729D01*
X283174Y319674D01*
X285159Y318348D01*
X285918Y318197D01*
Y316902D01*
X284659Y316652D01*
X282674Y315326D01*
X281895Y314159D01*
X280250D01*
Y315650D01*
X254250D01*
Y305650D01*
X280250D01*
Y307491D01*
X282129D01*
X282674Y306674D01*
X284659Y305348D01*
X287000Y304883D01*
X289341Y305348D01*
X291326Y306674D01*
X292652Y308659D01*
X293118Y311000D01*
X292652Y313341D01*
X291326Y315326D01*
X289341Y316652D01*
X288582Y316803D01*
Y318098D01*
X289841Y318348D01*
X291826Y319674D01*
X293152Y321659D01*
X293617Y324000D01*
X293152Y326341D01*
X291826Y328326D01*
X289841Y329652D01*
X287500Y330118D01*
D02*
G37*
G36*
X354000Y332950D02*
X334000D01*
Y312950D01*
X354000D01*
Y332950D01*
D02*
G37*
G36*
X57024Y328480D02*
X35770D01*
Y307226D01*
X38919Y307536D01*
X43167Y308825D01*
X47083Y310918D01*
X50515Y313735D01*
X53332Y317167D01*
X55425Y321083D01*
X56714Y325331D01*
X57024Y328480D01*
D02*
G37*
G36*
X33230D02*
X11976D01*
X12286Y325331D01*
X13575Y321083D01*
X15668Y317167D01*
X18485Y313735D01*
X21917Y310918D01*
X25833Y308825D01*
X30081Y307536D01*
X33230Y307226D01*
Y328480D01*
D02*
G37*
G36*
X427024D02*
X405770D01*
Y307226D01*
X408919Y307536D01*
X413167Y308825D01*
X417083Y310918D01*
X420515Y313735D01*
X423332Y317167D01*
X425425Y321083D01*
X426714Y325331D01*
X427024Y328480D01*
D02*
G37*
G36*
X403230D02*
X381976D01*
X382286Y325331D01*
X383575Y321083D01*
X385668Y317167D01*
X388485Y313735D01*
X391917Y310918D01*
X395833Y308825D01*
X400081Y307536D01*
X403230Y307226D01*
Y328480D01*
D02*
G37*
G36*
X232790Y303490D02*
X220520D01*
Y299220D01*
X232790D01*
Y303490D01*
D02*
G37*
G36*
X217980D02*
X205710D01*
Y299220D01*
X217980D01*
Y303490D01*
D02*
G37*
G36*
X345270Y308014D02*
Y298820D01*
X354464D01*
X354269Y300301D01*
X353207Y302866D01*
X351517Y305067D01*
X349315Y306757D01*
X346752Y307819D01*
X345270Y308014D01*
D02*
G37*
G36*
X342730Y308014D02*
X341249Y307819D01*
X338685Y306757D01*
X336483Y305067D01*
X334793Y302866D01*
X333731Y300301D01*
X333536Y298820D01*
X342730D01*
Y308014D01*
D02*
G37*
G36*
X197540Y303790D02*
X191270D01*
Y298520D01*
X197540D01*
Y303790D01*
D02*
G37*
G36*
X188730D02*
X182460D01*
Y298520D01*
X188730D01*
Y303790D01*
D02*
G37*
G36*
X342730Y296280D02*
X333536D01*
X333731Y294799D01*
X334793Y292234D01*
X336483Y290033D01*
X338685Y288343D01*
X341249Y287281D01*
X342730Y287086D01*
Y296280D01*
D02*
G37*
G36*
X354464D02*
X345270D01*
Y287086D01*
X346752Y287281D01*
X349315Y288343D01*
X351517Y290033D01*
X353207Y292234D01*
X354269Y294799D01*
X354464Y296280D01*
D02*
G37*
G36*
X290290Y287790D02*
X284020D01*
Y282520D01*
X290290D01*
Y287790D01*
D02*
G37*
G36*
X281480D02*
X275210D01*
Y282520D01*
X281480D01*
Y287790D01*
D02*
G37*
G36*
X276750Y363250D02*
X264750D01*
Y349250D01*
X267416D01*
Y341050D01*
X254250D01*
Y331050D01*
X280250D01*
Y341050D01*
X274084D01*
Y349250D01*
X276750D01*
Y352551D01*
X278020Y352765D01*
X298400Y332385D01*
Y290973D01*
X297409Y290310D01*
X296082Y288325D01*
X295617Y285984D01*
X296082Y283643D01*
X296621Y282836D01*
X291463Y277678D01*
X290290Y278164D01*
Y279980D01*
X284020D01*
Y274710D01*
X286836D01*
X287322Y273537D01*
X285035Y271250D01*
X275750D01*
Y263965D01*
X272642Y260858D01*
X271920Y259776D01*
X271666Y258500D01*
Y252750D01*
X265500D01*
Y248290D01*
X264960D01*
Y245520D01*
X275000D01*
X285040D01*
Y248290D01*
X284500D01*
Y252750D01*
X278334D01*
Y257119D01*
X280465Y259250D01*
X289750D01*
Y266535D01*
X303047Y279832D01*
X303275Y280173D01*
X304075Y280333D01*
X306060Y281659D01*
X307386Y283643D01*
X307852Y285984D01*
X307386Y288325D01*
X306060Y290310D01*
X305068Y290973D01*
Y333766D01*
X304815Y335042D01*
X304092Y336123D01*
X281607Y358607D01*
X280526Y359330D01*
X279250Y359584D01*
X276750D01*
Y363250D01*
D02*
G37*
G36*
X280250Y302950D02*
X254250D01*
Y292950D01*
X264166D01*
Y286738D01*
X263174Y286076D01*
X261848Y284091D01*
X261383Y281750D01*
X261848Y279409D01*
X263174Y277424D01*
X265159Y276098D01*
X267500Y275632D01*
X269841Y276098D01*
X271826Y277424D01*
X273152Y279409D01*
X273617Y281750D01*
X273152Y284091D01*
X271826Y286076D01*
X270834Y286738D01*
Y292950D01*
X280250D01*
Y302950D01*
D02*
G37*
G36*
X444060Y291280D02*
X435170D01*
Y274770D01*
X444060D01*
Y291280D01*
D02*
G37*
G36*
X432630D02*
X423740D01*
Y274770D01*
X432630D01*
Y291280D01*
D02*
G37*
G36*
X281480Y279980D02*
X275210D01*
Y274710D01*
X281480D01*
Y279980D01*
D02*
G37*
G36*
X152270Y277040D02*
Y268770D01*
X158540D01*
Y277040D01*
X152270D01*
D02*
G37*
G36*
X408500Y290823D02*
X405989Y290492D01*
X403648Y289523D01*
X401639Y287981D01*
X400097Y285972D01*
X399128Y283631D01*
X398797Y281120D01*
Y265880D01*
X399128Y263369D01*
X400097Y261028D01*
X401639Y259019D01*
X403648Y257477D01*
X405989Y256508D01*
X408500Y256177D01*
X411011Y256508D01*
X413352Y257477D01*
X415361Y259019D01*
X416903Y261028D01*
X417872Y263369D01*
X418203Y265880D01*
Y281120D01*
X417872Y283631D01*
X416903Y285972D01*
X415361Y287981D01*
X413352Y289523D01*
X411011Y290492D01*
X408500Y290823D01*
D02*
G37*
G36*
X383100D02*
X380589Y290492D01*
X378248Y289523D01*
X376239Y287981D01*
X374697Y285972D01*
X373728Y283631D01*
X373397Y281120D01*
Y265880D01*
X373728Y263369D01*
X374697Y261028D01*
X376239Y259019D01*
X378248Y257477D01*
X380589Y256508D01*
X383100Y256177D01*
X385611Y256508D01*
X387952Y257477D01*
X389961Y259019D01*
X391503Y261028D01*
X392472Y263369D01*
X392803Y265880D01*
Y281120D01*
X392472Y283631D01*
X391503Y285972D01*
X389961Y287981D01*
X387952Y289523D01*
X385611Y290492D01*
X383100Y290823D01*
D02*
G37*
G36*
X444060Y272230D02*
X435170D01*
Y255720D01*
X444060D01*
Y272230D01*
D02*
G37*
G36*
X432630D02*
X423740D01*
Y255720D01*
X432630D01*
Y272230D01*
D02*
G37*
G36*
X130700Y326319D02*
X105757D01*
X104392Y326047D01*
X103234Y325273D01*
X101477Y323516D01*
X100703Y322358D01*
X100698Y322334D01*
X100250Y321250D01*
X81250D01*
Y313715D01*
X77622Y310088D01*
X76900Y309006D01*
X76646Y307730D01*
Y295611D01*
X65623Y284587D01*
X64900Y283506D01*
X64899Y283500D01*
X53250D01*
Y269500D01*
X71250D01*
Y279908D01*
X71314Y280230D01*
Y280849D01*
X82338Y291873D01*
X83060Y292954D01*
X83314Y294230D01*
Y294250D01*
X98489D01*
X99015Y292980D01*
X89535Y283500D01*
X76250D01*
Y269500D01*
X94250D01*
Y278785D01*
X98480Y283015D01*
X99750Y282489D01*
Y269500D01*
X117750D01*
Y280785D01*
X124108Y287143D01*
X124830Y288224D01*
X125084Y289500D01*
Y294250D01*
X131250D01*
Y307250D01*
X131250Y307250D01*
Y308250D01*
X131250D01*
X131250Y308520D01*
Y315494D01*
X132423Y315980D01*
X136203Y312200D01*
Y261779D01*
X136475Y260413D01*
X137248Y259255D01*
X147277Y249227D01*
X147835Y248854D01*
X147449Y247584D01*
X124381D01*
X117750Y254215D01*
Y263500D01*
X99750D01*
Y250511D01*
X98480Y249985D01*
X94250Y254215D01*
Y263500D01*
X76250D01*
Y251011D01*
X74980Y250485D01*
X71250Y254215D01*
Y263500D01*
X53250D01*
Y249500D01*
X66535D01*
X84142Y231893D01*
X85224Y231170D01*
X86500Y230916D01*
X120042D01*
X120527Y229743D01*
X110369Y219584D01*
X60000D01*
Y242250D01*
X45000D01*
Y203498D01*
X42925Y201423D01*
X34792D01*
X24250Y211965D01*
Y219250D01*
X10250D01*
Y207250D01*
X19535D01*
X21822Y204963D01*
X21336Y203790D01*
X18520D01*
Y198520D01*
X24790D01*
Y200336D01*
X25963Y200822D01*
X31054Y195731D01*
X32135Y195009D01*
X33411Y194755D01*
X44306D01*
X45000Y194185D01*
Y190250D01*
X60000D01*
Y209068D01*
X61233Y210300D01*
X61955Y211382D01*
X62209Y212658D01*
Y212889D01*
X62232Y212896D01*
X62356Y212916D01*
X86041D01*
X86528Y211743D01*
X50142Y175357D01*
X49420Y174276D01*
X49166Y173000D01*
Y172896D01*
X47896Y172465D01*
X46840Y173840D01*
X44983Y175265D01*
X42821Y176161D01*
X41770Y176299D01*
Y167500D01*
Y158701D01*
X42821Y158839D01*
X44983Y159735D01*
X46840Y161160D01*
X47896Y162535D01*
X49166Y162104D01*
Y146250D01*
X45000D01*
Y122104D01*
X24250D01*
Y127500D01*
X10250D01*
Y115500D01*
X19658D01*
X19980Y115436D01*
X45000D01*
Y94250D01*
X60000D01*
Y146250D01*
X55834D01*
Y171619D01*
X92591Y208376D01*
X113631D01*
X114906Y208630D01*
X115546Y209057D01*
X116355Y208071D01*
X108749Y200464D01*
X103230D01*
X102908Y200400D01*
X87500D01*
Y181400D01*
X106500D01*
Y193796D01*
X110130D01*
X111406Y194050D01*
X112487Y194772D01*
X133631Y215916D01*
X175960D01*
Y215520D01*
X196040D01*
Y218290D01*
X195500D01*
Y230750D01*
Y240750D01*
Y252750D01*
X193607D01*
X193585Y252884D01*
X193569Y253068D01*
Y264750D01*
Y274932D01*
X193585Y275116D01*
X193596Y275186D01*
X195349D01*
X199500Y271035D01*
Y256750D01*
X203960D01*
Y256210D01*
X208978D01*
X209216Y254940D01*
X208392Y254389D01*
X200893Y246890D01*
X200170Y245809D01*
X199916Y244533D01*
Y239488D01*
X198924Y238826D01*
X197598Y236841D01*
X197132Y234500D01*
X197598Y232159D01*
X198924Y230174D01*
X200909Y228848D01*
X203250Y228382D01*
X205591Y228848D01*
X207576Y230174D01*
X208902Y232159D01*
X209156Y233438D01*
X210426Y233313D01*
Y221069D01*
X210680Y219793D01*
X211403Y218712D01*
X239666Y190448D01*
Y186750D01*
X199500D01*
Y167750D01*
X204666D01*
Y158381D01*
X196642Y150358D01*
X195920Y149276D01*
X195666Y148000D01*
Y145750D01*
X189750D01*
Y131750D01*
X207750D01*
Y145750D01*
X203261D01*
X202735Y147020D01*
X210357Y154642D01*
X211080Y155724D01*
X211334Y157000D01*
Y167750D01*
X248960D01*
Y167210D01*
X251730D01*
Y177250D01*
Y187290D01*
X251334D01*
Y193250D01*
X251080Y194526D01*
X250357Y195608D01*
X225095Y220870D01*
Y226777D01*
X226087Y227439D01*
X227413Y229424D01*
X227879Y231765D01*
X227413Y234106D01*
X226087Y236091D01*
X224102Y237417D01*
X221761Y237883D01*
X219420Y237417D01*
X218365Y236712D01*
X217094Y237391D01*
Y239774D01*
X218086Y240436D01*
X219412Y242421D01*
X219524Y242981D01*
X220739Y243350D01*
X232376Y231713D01*
Y222230D01*
X232630Y220954D01*
X233353Y219872D01*
X261332Y191893D01*
X262414Y191170D01*
X263690Y190916D01*
X265500D01*
Y190750D01*
X267487D01*
X267530Y190741D01*
X267574Y190750D01*
X284500D01*
Y195916D01*
X298500D01*
X299219Y196059D01*
X299982Y194916D01*
X299598Y194341D01*
X299132Y192000D01*
X299598Y189659D01*
X300924Y187674D01*
X302909Y186348D01*
X305250Y185882D01*
X307591Y186348D01*
X309576Y187674D01*
X310238Y188666D01*
X312250D01*
X313526Y188920D01*
X314608Y189643D01*
X321377Y196413D01*
X322100Y197494D01*
X322354Y198770D01*
Y210636D01*
X322100Y211912D01*
X321377Y212994D01*
X292764Y241607D01*
X291682Y242330D01*
X290406Y242584D01*
X285040D01*
Y242980D01*
X275000D01*
X264960D01*
Y240210D01*
X265500D01*
Y238073D01*
X264230Y237948D01*
X264152Y238341D01*
X262826Y240326D01*
X260841Y241652D01*
X258500Y242118D01*
X256159Y241652D01*
X254174Y240326D01*
X252848Y238341D01*
X252737Y237781D01*
X251521Y237412D01*
X249584Y239350D01*
Y243512D01*
X250576Y244174D01*
X251902Y246159D01*
X251949Y246396D01*
X253285Y246600D01*
X255159Y245348D01*
X257500Y244883D01*
X259841Y245348D01*
X261826Y246674D01*
X263152Y248659D01*
X263618Y251000D01*
X263152Y253341D01*
X261826Y255326D01*
X261559Y255504D01*
X261500Y256750D01*
X261500D01*
Y258594D01*
X261500Y258595D01*
X261500Y258598D01*
Y258737D01*
X261509Y258780D01*
X261500Y258824D01*
Y275750D01*
X226334D01*
Y285750D01*
X226080Y287026D01*
X225357Y288107D01*
X222325Y291140D01*
X222851Y292410D01*
X232790D01*
Y296680D01*
X219250D01*
X205710D01*
Y292834D01*
X197540D01*
Y295980D01*
X190000D01*
X182460D01*
Y292834D01*
X175250D01*
X173974Y292580D01*
X172892Y291857D01*
X168892Y287857D01*
X168170Y286776D01*
X167916Y285500D01*
Y276500D01*
X164000D01*
Y258500D01*
X164165D01*
X164402Y257230D01*
X162674Y256076D01*
X162168Y255319D01*
X151278D01*
X149810Y256787D01*
X150296Y257960D01*
X158540D01*
Y266230D01*
X151000D01*
Y267500D01*
X149730D01*
Y277040D01*
X143460D01*
X143340Y278260D01*
Y313678D01*
X143069Y315044D01*
X142295Y316201D01*
X133223Y325273D01*
X132065Y326047D01*
X130700Y326319D01*
D02*
G37*
G36*
X344000Y256836D02*
X341390Y256493D01*
X338957Y255485D01*
X336868Y253882D01*
X335265Y251793D01*
X334257Y249361D01*
X333914Y246750D01*
X334257Y244139D01*
X335265Y241707D01*
X336868Y239618D01*
X338957Y238015D01*
X341390Y237007D01*
X344000Y236664D01*
X346610Y237007D01*
X349043Y238015D01*
X351132Y239618D01*
X352735Y241707D01*
X353743Y244139D01*
X354086Y246750D01*
X353743Y249361D01*
X352735Y251793D01*
X351132Y253882D01*
X349043Y255485D01*
X346610Y256493D01*
X344000Y256836D01*
D02*
G37*
G36*
X153290Y212790D02*
X148020D01*
Y206520D01*
X153290D01*
Y212790D01*
D02*
G37*
G36*
X145480D02*
X140210D01*
Y206520D01*
X145480D01*
Y212790D01*
D02*
G37*
G36*
X15980Y203790D02*
X9710D01*
Y198520D01*
X15980D01*
Y203790D01*
D02*
G37*
G36*
X145480Y203980D02*
X140210D01*
Y197710D01*
X145480D01*
Y203980D01*
D02*
G37*
G36*
X344000Y231436D02*
X341390Y231093D01*
X338957Y230085D01*
X336868Y228482D01*
X335265Y226393D01*
X334257Y223960D01*
X333914Y221350D01*
X334257Y218739D01*
X335265Y216307D01*
X336868Y214218D01*
X338957Y212615D01*
X341390Y211607D01*
X344000Y211264D01*
X346610Y211607D01*
X349043Y212615D01*
X351132Y214218D01*
X351187Y214290D01*
X380135D01*
X383590Y210835D01*
Y207810D01*
X383650Y207351D01*
Y195510D01*
X414850D01*
Y214810D01*
X397572D01*
X397470Y215587D01*
X396764Y217290D01*
X395643Y218752D01*
X388052Y226342D01*
X386590Y227465D01*
X384887Y228170D01*
X383060Y228410D01*
X351187D01*
X351132Y228482D01*
X349043Y230085D01*
X346610Y231093D01*
X344000Y231436D01*
D02*
G37*
G36*
X24790Y195980D02*
X18520D01*
Y190710D01*
X24790D01*
Y195980D01*
D02*
G37*
G36*
X15980D02*
X9710D01*
Y190710D01*
X15980D01*
Y195980D01*
D02*
G37*
G36*
X344000Y206036D02*
X341390Y205693D01*
X338957Y204685D01*
X336868Y203082D01*
X335265Y200993D01*
X334257Y198561D01*
X333914Y195950D01*
X334257Y193340D01*
X335265Y190907D01*
X336868Y188818D01*
X338957Y187215D01*
X341390Y186207D01*
X344000Y185864D01*
X346610Y186207D01*
X349043Y187215D01*
X351132Y188818D01*
X352735Y190907D01*
X353743Y193340D01*
X354086Y195950D01*
X353743Y198561D01*
X352735Y200993D01*
X351132Y203082D01*
X349043Y204685D01*
X346610Y205693D01*
X344000Y206036D01*
D02*
G37*
G36*
X414850Y187990D02*
X383650D01*
Y178675D01*
X382585Y177610D01*
X351187D01*
X351132Y177682D01*
X349043Y179285D01*
X346610Y180293D01*
X344000Y180636D01*
X341390Y180293D01*
X338957Y179285D01*
X336868Y177682D01*
X335265Y175593D01*
X334257Y173160D01*
X333914Y170550D01*
X334257Y167939D01*
X335265Y165507D01*
X336868Y163418D01*
X338957Y161815D01*
X341390Y160807D01*
X344000Y160464D01*
X346610Y160807D01*
X349043Y161815D01*
X351132Y163418D01*
X351187Y163490D01*
X385510D01*
X387337Y163730D01*
X389040Y164436D01*
X390502Y165558D01*
X393635Y168690D01*
X414850D01*
Y187990D01*
D02*
G37*
G36*
X39230Y176299D02*
X38179Y176161D01*
X36017Y175265D01*
X34160Y173840D01*
X32735Y171983D01*
X31839Y169821D01*
X31700Y168770D01*
X39230D01*
Y176299D01*
D02*
G37*
G36*
X257040Y187290D02*
X254270D01*
Y177250D01*
Y167210D01*
X257040D01*
Y167750D01*
X261500D01*
Y168902D01*
X270250D01*
Y168000D01*
X284250D01*
Y168902D01*
X288750D01*
X290701Y169290D01*
X292355Y170395D01*
X295693Y173733D01*
X296538Y173901D01*
X298522Y175228D01*
X299849Y177212D01*
X300314Y179553D01*
X299849Y181894D01*
X298522Y183879D01*
X296538Y185205D01*
X294197Y185671D01*
X291856Y185205D01*
X289871Y183879D01*
X288545Y181894D01*
X288324Y180783D01*
X286638Y179098D01*
X284250D01*
Y180000D01*
X270250D01*
Y179098D01*
X261500D01*
Y186750D01*
X257040D01*
Y187290D01*
D02*
G37*
G36*
X284790Y164540D02*
X278520D01*
Y159270D01*
X284790D01*
Y164540D01*
D02*
G37*
G36*
X275980D02*
X269710D01*
Y159270D01*
X275980D01*
Y164540D01*
D02*
G37*
G36*
X39230Y166230D02*
X31700D01*
X31839Y165179D01*
X32735Y163017D01*
X34160Y161160D01*
X36017Y159735D01*
X38179Y158839D01*
X39230Y158701D01*
Y166230D01*
D02*
G37*
G36*
X284790Y156730D02*
X278520D01*
Y151460D01*
X284790D01*
Y156730D01*
D02*
G37*
G36*
X275980D02*
X269710D01*
Y151460D01*
X275980D01*
Y156730D01*
D02*
G37*
G36*
X154500Y161367D02*
X152159Y160902D01*
X150174Y159576D01*
X149512Y158584D01*
X137550D01*
X136274Y158330D01*
X135192Y157607D01*
X100937Y123352D01*
X99480Y123955D01*
X97000Y124282D01*
X94520Y123955D01*
X92209Y122998D01*
X90225Y121475D01*
X88702Y119491D01*
X87745Y117180D01*
X87418Y114700D01*
X87745Y112220D01*
X88702Y109909D01*
X90225Y107924D01*
X92209Y106402D01*
X94520Y105444D01*
X97000Y105118D01*
X99480Y105444D01*
X101791Y106402D01*
X103776Y107924D01*
X105298Y109909D01*
X106256Y112220D01*
X106582Y114700D01*
X106256Y117180D01*
X105652Y118637D01*
X138931Y151916D01*
X149512D01*
X150174Y150924D01*
X152159Y149598D01*
X154500Y149132D01*
X156841Y149598D01*
X158826Y150924D01*
X160152Y152909D01*
X160618Y155250D01*
X160152Y157591D01*
X158826Y159576D01*
X156841Y160902D01*
X154500Y161367D01*
D02*
G37*
G36*
X98270Y150059D02*
Y141370D01*
X106959D01*
X106782Y142721D01*
X105770Y145163D01*
X104161Y147261D01*
X102063Y148870D01*
X99621Y149882D01*
X98270Y150059D01*
D02*
G37*
G36*
X95730D02*
X94379Y149882D01*
X91937Y148870D01*
X89839Y147261D01*
X88230Y145163D01*
X87218Y142721D01*
X87041Y141370D01*
X95730D01*
Y150059D01*
D02*
G37*
G36*
X301750Y153118D02*
X299409Y152652D01*
X297424Y151326D01*
X296098Y149341D01*
X295632Y147000D01*
X296098Y144659D01*
X297424Y142674D01*
X299409Y141348D01*
X301750Y140883D01*
X304091Y141348D01*
X306076Y142674D01*
X307402Y144659D01*
X307868Y147000D01*
X307402Y149341D01*
X306076Y151326D01*
X304091Y152652D01*
X301750Y153118D01*
D02*
G37*
G36*
X230790Y144790D02*
X224520D01*
Y139520D01*
X230790D01*
Y144790D01*
D02*
G37*
G36*
X221980D02*
X215710D01*
Y139520D01*
X221980D01*
Y144790D01*
D02*
G37*
G36*
X24790Y144040D02*
X18520D01*
Y138770D01*
X24790D01*
Y144040D01*
D02*
G37*
G36*
X15980D02*
X9710D01*
Y138770D01*
X15980D01*
Y144040D01*
D02*
G37*
G36*
X196040Y212980D02*
X175960D01*
Y212584D01*
X165750D01*
X164474Y212330D01*
X164354Y212250D01*
X156750D01*
Y202965D01*
X154463Y200678D01*
X153290Y201164D01*
Y203980D01*
X148020D01*
Y197710D01*
X149836D01*
X150322Y196537D01*
X148892Y195107D01*
X148170Y194026D01*
X147916Y192750D01*
Y185738D01*
X146924Y185076D01*
X145598Y183091D01*
X145132Y180750D01*
X145598Y178409D01*
X146924Y176424D01*
X148909Y175098D01*
X150840Y174714D01*
X151198Y173426D01*
X150674Y173076D01*
X149348Y171091D01*
X149338Y171039D01*
X104724D01*
X103776Y172275D01*
X101791Y173798D01*
X99480Y174755D01*
X97000Y175082D01*
X94520Y174755D01*
X92209Y173798D01*
X90225Y172275D01*
X88702Y170291D01*
X87745Y167980D01*
X87418Y165500D01*
X87745Y163020D01*
X88702Y160709D01*
X90225Y158724D01*
X92209Y157202D01*
X94520Y156244D01*
X97000Y155918D01*
X99480Y156244D01*
X101791Y157202D01*
X103776Y158724D01*
X105298Y160709D01*
X106256Y163020D01*
X106433Y164371D01*
X150754D01*
X152659Y163098D01*
X155000Y162633D01*
X157341Y163098D01*
X159326Y164424D01*
X160652Y166409D01*
X161117Y168750D01*
X160652Y171091D01*
X159326Y173076D01*
X157341Y174402D01*
X155410Y174786D01*
X155052Y176074D01*
X155576Y176424D01*
X156902Y178409D01*
X157367Y180750D01*
X156902Y183091D01*
X155576Y185076D01*
X154584Y185738D01*
Y191369D01*
X161465Y198250D01*
X168750D01*
Y205916D01*
X170564D01*
X171168Y204646D01*
X170762Y204038D01*
X170508Y202762D01*
Y173700D01*
X170762Y172424D01*
X171485Y171343D01*
X172666Y170161D01*
Y145750D01*
X167000D01*
Y131750D01*
X185000D01*
Y145750D01*
X179334D01*
Y171542D01*
X179080Y172818D01*
X178358Y173900D01*
X177176Y175081D01*
Y190750D01*
X195500D01*
Y200750D01*
Y210210D01*
X196040D01*
Y212980D01*
D02*
G37*
G36*
X230790Y136980D02*
X224520D01*
Y131710D01*
X230790D01*
Y136980D01*
D02*
G37*
G36*
X221980D02*
X215710D01*
Y131710D01*
X221980D01*
Y136980D01*
D02*
G37*
G36*
X24790Y136230D02*
X18520D01*
Y130960D01*
X24790D01*
Y136230D01*
D02*
G37*
G36*
X15980D02*
X9710D01*
Y130960D01*
X15980D01*
Y136230D01*
D02*
G37*
G36*
X95730Y138830D02*
X87041D01*
X87218Y137479D01*
X88230Y135037D01*
X89839Y132939D01*
X91937Y131330D01*
X94379Y130318D01*
X95730Y130141D01*
Y138830D01*
D02*
G37*
G36*
X106959D02*
X98270D01*
Y130141D01*
X99621Y130318D01*
X102063Y131330D01*
X104161Y132939D01*
X105770Y135037D01*
X106782Y137479D01*
X106959Y138830D01*
D02*
G37*
G36*
X162250Y145750D02*
X144250D01*
Y142084D01*
X142440D01*
X141164Y141830D01*
X140083Y141108D01*
X137595Y138620D01*
X136872Y137538D01*
X136618Y136262D01*
Y114929D01*
X136383Y113750D01*
Y111798D01*
X136655Y110432D01*
X137429Y109275D01*
X148681Y98022D01*
Y97068D01*
X148665Y96884D01*
X148643Y96750D01*
X143250D01*
Y87797D01*
X100677Y45223D01*
X99903Y44066D01*
X99631Y42700D01*
Y40068D01*
X99615Y39884D01*
X99593Y39750D01*
X93700D01*
Y20750D01*
X112700D01*
Y39750D01*
X106807D01*
X106785Y39884D01*
X106769Y40068D01*
Y41222D01*
X141537Y75990D01*
X142710Y75504D01*
Y71020D01*
X150980D01*
Y77290D01*
X144496D01*
X144010Y78463D01*
X148297Y82750D01*
X161250D01*
Y96750D01*
X155857D01*
X155835Y96884D01*
X155819Y97068D01*
Y99500D01*
X155547Y100866D01*
X154773Y102023D01*
X146220Y110577D01*
X146706Y111750D01*
X162250D01*
Y115416D01*
X167000D01*
Y111750D01*
X185000D01*
Y115416D01*
X189750D01*
Y111750D01*
X207750D01*
Y117416D01*
X216250D01*
Y116250D01*
X218237D01*
X218281Y116241D01*
X218324Y116250D01*
X230250D01*
Y128250D01*
X216250D01*
Y124084D01*
X207750D01*
Y125750D01*
X189750D01*
Y122084D01*
X185000D01*
Y125750D01*
X167000D01*
Y122084D01*
X162250D01*
Y125750D01*
X144250D01*
X143286Y126489D01*
Y131011D01*
X144250Y131750D01*
X162250D01*
Y145750D01*
D02*
G37*
G36*
X298500Y118368D02*
X296159Y117902D01*
X294174Y116576D01*
X292848Y114591D01*
X292383Y112250D01*
X292848Y109909D01*
X294174Y107924D01*
X296159Y106598D01*
X298500Y106132D01*
X300841Y106598D01*
X302826Y107924D01*
X304152Y109909D01*
X304618Y112250D01*
X304152Y114591D01*
X302826Y116576D01*
X300841Y117902D01*
X298500Y118368D01*
D02*
G37*
G36*
X270250Y113618D02*
X267909Y113152D01*
X265924Y111826D01*
X264598Y109841D01*
X264132Y107500D01*
X264598Y105159D01*
X265924Y103174D01*
X267909Y101848D01*
X270250Y101383D01*
X272591Y101848D01*
X274576Y103174D01*
X275902Y105159D01*
X276367Y107500D01*
X275902Y109841D01*
X274576Y111826D01*
X272591Y113152D01*
X270250Y113618D01*
D02*
G37*
G36*
X97000Y98882D02*
X94520Y98555D01*
X92209Y97598D01*
X90225Y96075D01*
X88702Y94091D01*
X87745Y91780D01*
X87418Y89300D01*
X87745Y86820D01*
X88702Y84509D01*
X90225Y82524D01*
X92209Y81002D01*
X94520Y80044D01*
X97000Y79718D01*
X99480Y80044D01*
X101791Y81002D01*
X103776Y82524D01*
X105298Y84509D01*
X106256Y86820D01*
X106582Y89300D01*
X106256Y91780D01*
X105298Y94091D01*
X103776Y96075D01*
X101791Y97598D01*
X99480Y98555D01*
X97000Y98882D01*
D02*
G37*
G36*
X408500Y108961D02*
X404996Y108616D01*
X401626Y107594D01*
X398521Y105934D01*
X395799Y103701D01*
X393566Y100979D01*
X391906Y97874D01*
X390884Y94504D01*
X390538Y91000D01*
X390884Y87496D01*
X391906Y84126D01*
X393566Y81021D01*
X395799Y78299D01*
X398521Y76066D01*
X401626Y74406D01*
X404996Y73384D01*
X408500Y73039D01*
X412004Y73384D01*
X415374Y74406D01*
X418479Y76066D01*
X421201Y78299D01*
X423434Y81021D01*
X425094Y84126D01*
X426116Y87496D01*
X426461Y91000D01*
X426116Y94504D01*
X425094Y97874D01*
X423434Y100979D01*
X421201Y103701D01*
X418479Y105934D01*
X415374Y107594D01*
X412004Y108616D01*
X408500Y108961D01*
D02*
G37*
G36*
X161790Y77290D02*
X153520D01*
Y71020D01*
X161790D01*
Y77290D01*
D02*
G37*
G36*
Y68480D02*
X153520D01*
Y62210D01*
X161790D01*
Y68480D01*
D02*
G37*
G36*
X150980D02*
X142710D01*
Y62210D01*
X150980D01*
Y68480D01*
D02*
G37*
G36*
X279870Y65390D02*
Y57770D01*
X287490D01*
X287349Y58844D01*
X286444Y61029D01*
X285005Y62905D01*
X283129Y64344D01*
X280944Y65249D01*
X279870Y65390D01*
D02*
G37*
G36*
X277330D02*
X276256Y65249D01*
X274071Y64344D01*
X272195Y62905D01*
X270756Y61029D01*
X269851Y58844D01*
X269710Y57770D01*
X277330D01*
Y65390D01*
D02*
G37*
G36*
X236240Y64940D02*
X219360D01*
Y48060D01*
X236240D01*
Y64940D01*
D02*
G37*
G36*
X304000Y65013D02*
X301797Y64723D01*
X299744Y63872D01*
X297980Y62519D01*
X296628Y60756D01*
X295777Y58703D01*
X295487Y56500D01*
X295777Y54297D01*
X296628Y52244D01*
X297980Y50480D01*
X299744Y49128D01*
X301797Y48277D01*
X304000Y47987D01*
X306203Y48277D01*
X308256Y49128D01*
X310019Y50480D01*
X311372Y52244D01*
X312223Y54297D01*
X312513Y56500D01*
X312223Y58703D01*
X311372Y60756D01*
X310019Y62519D01*
X308256Y63872D01*
X306203Y64723D01*
X304000Y65013D01*
D02*
G37*
G36*
X253200D02*
X250997Y64723D01*
X248944Y63872D01*
X247181Y62519D01*
X245828Y60756D01*
X244977Y58703D01*
X244687Y56500D01*
X244977Y54297D01*
X245828Y52244D01*
X247181Y50480D01*
X248944Y49128D01*
X250997Y48277D01*
X253200Y47987D01*
X255403Y48277D01*
X257456Y49128D01*
X259219Y50480D01*
X260572Y52244D01*
X261423Y54297D01*
X261713Y56500D01*
X261423Y58703D01*
X260572Y60756D01*
X259219Y62519D01*
X257456Y63872D01*
X255403Y64723D01*
X253200Y65013D01*
D02*
G37*
G36*
X287490Y55230D02*
X279870D01*
Y47610D01*
X280944Y47751D01*
X283129Y48656D01*
X285005Y50095D01*
X286444Y51971D01*
X287349Y54156D01*
X287490Y55230D01*
D02*
G37*
G36*
X277330D02*
X269710D01*
X269851Y54156D01*
X270756Y51971D01*
X272195Y50095D01*
X274071Y48656D01*
X276256Y47751D01*
X277330Y47610D01*
Y55230D01*
D02*
G37*
G36*
X129870Y40209D02*
Y31520D01*
X138559D01*
X138382Y32871D01*
X137370Y35313D01*
X135761Y37411D01*
X133663Y39020D01*
X131221Y40032D01*
X129870Y40209D01*
D02*
G37*
G36*
X127330D02*
X125979Y40032D01*
X123537Y39020D01*
X121439Y37411D01*
X119830Y35313D01*
X118818Y32871D01*
X118641Y31520D01*
X127330D01*
Y40209D01*
D02*
G37*
G36*
X405770Y52274D02*
Y31020D01*
X427024D01*
X426714Y34169D01*
X425425Y38417D01*
X423332Y42333D01*
X420515Y45765D01*
X417083Y48582D01*
X413167Y50675D01*
X408919Y51964D01*
X405770Y52274D01*
D02*
G37*
G36*
X403230D02*
X400081Y51964D01*
X395833Y50675D01*
X391917Y48582D01*
X388485Y45765D01*
X385668Y42333D01*
X383575Y38417D01*
X382286Y34169D01*
X381976Y31020D01*
X403230D01*
Y52274D01*
D02*
G37*
G36*
X35770D02*
Y31020D01*
X57024D01*
X56714Y34169D01*
X55425Y38417D01*
X53332Y42333D01*
X50515Y45765D01*
X47083Y48582D01*
X43167Y50675D01*
X38919Y51964D01*
X35770Y52274D01*
D02*
G37*
G36*
X33230D02*
X30081Y51964D01*
X25833Y50675D01*
X21917Y48582D01*
X18485Y45765D01*
X15668Y42333D01*
X13575Y38417D01*
X12286Y34169D01*
X11976Y31020D01*
X33230D01*
Y52274D01*
D02*
G37*
G36*
X154000Y39832D02*
X151520Y39506D01*
X149209Y38548D01*
X147225Y37025D01*
X145702Y35041D01*
X144745Y32730D01*
X144418Y30250D01*
X144745Y27770D01*
X145702Y25459D01*
X147225Y23475D01*
X149209Y21952D01*
X151520Y20995D01*
X154000Y20668D01*
X156480Y20995D01*
X158791Y21952D01*
X160775Y23475D01*
X162298Y25459D01*
X163256Y27770D01*
X163582Y30250D01*
X163256Y32730D01*
X162298Y35041D01*
X160775Y37025D01*
X158791Y38548D01*
X156480Y39506D01*
X154000Y39832D01*
D02*
G37*
G36*
X138559Y28980D02*
X129870D01*
Y20291D01*
X131221Y20468D01*
X133663Y21480D01*
X135761Y23089D01*
X137370Y25187D01*
X138382Y27629D01*
X138559Y28980D01*
D02*
G37*
G36*
X127330D02*
X118641D01*
X118818Y27629D01*
X119830Y25187D01*
X121439Y23089D01*
X123537Y21480D01*
X125979Y20468D01*
X127330Y20291D01*
Y28980D01*
D02*
G37*
G36*
X427024Y28480D02*
X405770D01*
Y7226D01*
X408919Y7536D01*
X413167Y8825D01*
X417083Y10918D01*
X420515Y13735D01*
X423332Y17167D01*
X425425Y21083D01*
X426714Y25331D01*
X427024Y28480D01*
D02*
G37*
G36*
X403230D02*
X381976D01*
X382286Y25331D01*
X383575Y21083D01*
X385668Y17167D01*
X388485Y13735D01*
X391917Y10918D01*
X395833Y8825D01*
X400081Y7536D01*
X403230Y7226D01*
Y28480D01*
D02*
G37*
G36*
X57024D02*
X35770D01*
Y7226D01*
X38919Y7536D01*
X43167Y8825D01*
X47083Y10918D01*
X50515Y13735D01*
X53332Y17167D01*
X55425Y21083D01*
X56714Y25331D01*
X57024Y28480D01*
D02*
G37*
G36*
X33230D02*
X11976D01*
X12286Y25331D01*
X13575Y21083D01*
X15668Y17167D01*
X18485Y13735D01*
X21917Y10918D01*
X25833Y8825D01*
X30081Y7536D01*
X33230Y7226D01*
Y28480D01*
D02*
G37*
%LPD*%
G36*
X208311Y334210D02*
X208284Y334451D01*
X208206Y334667D01*
X208076Y334858D01*
X207896Y335023D01*
X207664Y335163D01*
X207382Y335277D01*
X207048Y335366D01*
X206663Y335429D01*
X206227Y335467D01*
X205741Y335480D01*
Y338020D01*
X206223Y338030D01*
X207036Y338110D01*
X207366Y338180D01*
X207645Y338270D01*
X207874Y338380D01*
X208052Y338510D01*
X208179Y338660D01*
X208255Y338830D01*
X208281Y339020D01*
X208311Y334210D01*
D02*
G37*
G36*
X235016Y319865D02*
X234507Y320252D01*
X233524Y320905D01*
X233050Y321171D01*
X232588Y321395D01*
X232137Y321579D01*
X231698Y321721D01*
X231438Y321784D01*
X231134Y321702D01*
X230854Y321587D01*
X230626Y321448D01*
X230448Y321283D01*
X230321Y321092D01*
X230245Y320876D01*
X230219Y320635D01*
Y325715D01*
X230245Y325474D01*
X230321Y325258D01*
X230448Y325067D01*
X230626Y324902D01*
X230854Y324762D01*
X231134Y324648D01*
X231464Y324559D01*
X231552Y324545D01*
X231857Y324608D01*
X232303Y324734D01*
X232759Y324897D01*
X233224Y325096D01*
X233697Y325331D01*
X234671Y325909D01*
X235171Y326252D01*
X235016Y319865D01*
D02*
G37*
G36*
X230245Y312949D02*
X230321Y312733D01*
X230448Y312542D01*
X230626Y312377D01*
X230854Y312237D01*
X231134Y312123D01*
X231464Y312034D01*
X231845Y311971D01*
X232277Y311933D01*
X232759Y311920D01*
Y309380D01*
X232277Y309367D01*
X231845Y309329D01*
X231464Y309266D01*
X231134Y309177D01*
X230854Y309062D01*
X230626Y308923D01*
X230448Y308758D01*
X230321Y308567D01*
X230245Y308351D01*
X230219Y308110D01*
Y313190D01*
X230245Y312949D01*
D02*
G37*
G36*
X278245Y325974D02*
X278321Y325758D01*
X278448Y325567D01*
X278626Y325402D01*
X278855Y325262D01*
X279134Y325148D01*
X279464Y325059D01*
X279845Y324996D01*
X280277Y324958D01*
X280760Y324945D01*
Y322405D01*
X280277Y322392D01*
X279845Y322354D01*
X279464Y322291D01*
X279134Y322202D01*
X278855Y322088D01*
X278626Y321948D01*
X278448Y321783D01*
X278321Y321592D01*
X278245Y321376D01*
X278220Y321135D01*
Y326215D01*
X278245Y325974D01*
D02*
G37*
G36*
Y313124D02*
X278321Y312908D01*
X278448Y312717D01*
X278626Y312552D01*
X278855Y312412D01*
X279134Y312298D01*
X279464Y312209D01*
X279845Y312146D01*
X280277Y312108D01*
X280760Y312095D01*
Y309555D01*
X280277Y309542D01*
X279845Y309504D01*
X279464Y309441D01*
X279134Y309352D01*
X278855Y309237D01*
X278626Y309098D01*
X278448Y308933D01*
X278321Y308742D01*
X278245Y308526D01*
X278220Y308285D01*
Y313365D01*
X278245Y313124D01*
D02*
G37*
G36*
X274715Y358549D02*
X274792Y358333D01*
X274920Y358142D01*
X275100Y357977D01*
X275332Y357837D01*
X275614Y357723D01*
X275949Y357634D01*
X276334Y357571D01*
X276771Y357533D01*
X277260Y357520D01*
Y354980D01*
X276771Y354967D01*
X276334Y354929D01*
X275949Y354866D01*
X275614Y354777D01*
X275332Y354663D01*
X275100Y354523D01*
X274920Y354358D01*
X274792Y354167D01*
X274715Y353951D01*
X274689Y353710D01*
Y358790D01*
X274715Y358549D01*
D02*
G37*
G36*
X273049Y351285D02*
X272833Y351208D01*
X272642Y351080D01*
X272477Y350900D01*
X272337Y350668D01*
X272223Y350386D01*
X272134Y350051D01*
X272071Y349666D01*
X272033Y349229D01*
X272020Y348741D01*
X269480D01*
X269467Y349229D01*
X269429Y349666D01*
X269366Y350051D01*
X269277Y350386D01*
X269163Y350668D01*
X269023Y350900D01*
X268858Y351080D01*
X268667Y351208D01*
X268451Y351285D01*
X268210Y351311D01*
X273290D01*
X273049Y351285D01*
D02*
G37*
G36*
X272033Y341071D02*
X272071Y340634D01*
X272134Y340249D01*
X272223Y339914D01*
X272337Y339632D01*
X272477Y339400D01*
X272642Y339220D01*
X272833Y339092D01*
X273049Y339015D01*
X273290Y338989D01*
X268210D01*
X268451Y339015D01*
X268667Y339092D01*
X268858Y339220D01*
X269023Y339400D01*
X269163Y339632D01*
X269277Y339914D01*
X269366Y340249D01*
X269429Y340634D01*
X269467Y341071D01*
X269480Y341559D01*
X272020D01*
X272033Y341071D01*
D02*
G37*
G36*
X276283Y252777D02*
X276321Y252345D01*
X276384Y251964D01*
X276473Y251634D01*
X276588Y251355D01*
X276727Y251126D01*
X276892Y250948D01*
X277083Y250821D01*
X277299Y250745D01*
X277540Y250720D01*
X272460D01*
X272701Y250745D01*
X272917Y250821D01*
X273108Y250948D01*
X273273Y251126D01*
X273412Y251355D01*
X273527Y251634D01*
X273616Y251964D01*
X273679Y252345D01*
X273717Y252777D01*
X273730Y253260D01*
X276270D01*
X276283Y252777D01*
D02*
G37*
G36*
X269799Y294985D02*
X269583Y294908D01*
X269392Y294780D01*
X269227Y294600D01*
X269088Y294368D01*
X268973Y294086D01*
X268884Y293751D01*
X268821Y293366D01*
X268783Y292929D01*
X268770Y292440D01*
X266230D01*
X266217Y292929D01*
X266179Y293366D01*
X266116Y293751D01*
X266027Y294086D01*
X265912Y294368D01*
X265773Y294600D01*
X265608Y294780D01*
X265417Y294908D01*
X265201Y294985D01*
X264960Y295011D01*
X270040D01*
X269799Y294985D01*
D02*
G37*
G36*
X116840Y310311D02*
X116692Y310498D01*
X116496Y310602D01*
X116254Y310625D01*
X115965Y310565D01*
X115629Y310424D01*
X115246Y310200D01*
X114817Y309894D01*
X114341Y309506D01*
X113248Y308484D01*
X111586Y310415D01*
X112217Y311063D01*
X113631Y312742D01*
X113943Y313213D01*
X114176Y313640D01*
X114329Y314022D01*
X114403Y314361D01*
X114397Y314655D01*
X114311Y314905D01*
X116840Y310311D01*
D02*
G37*
G36*
X101220Y302250D02*
X100646Y302235D01*
X100132Y302190D01*
X99678Y302115D01*
X99285Y302010D01*
X98952Y301875D01*
X98679Y301710D01*
X98466Y301515D01*
X98314Y301290D01*
X98221Y301035D01*
X98189Y300750D01*
X98219Y305219D01*
X98250Y305225D01*
X98340Y305231D01*
X101220Y305250D01*
Y302250D01*
D02*
G37*
G36*
X124049Y296285D02*
X123833Y296208D01*
X123642Y296080D01*
X123477Y295900D01*
X123337Y295668D01*
X123223Y295386D01*
X123134Y295051D01*
X123071Y294666D01*
X123033Y294229D01*
X123020Y293741D01*
X120480D01*
X120467Y294229D01*
X120429Y294666D01*
X120366Y295051D01*
X120277Y295386D01*
X120162Y295668D01*
X120023Y295900D01*
X119858Y296080D01*
X119667Y296208D01*
X119451Y296285D01*
X119210Y296311D01*
X124290D01*
X124049Y296285D01*
D02*
G37*
G36*
X194958Y280187D02*
X195012Y280104D01*
X195102Y280030D01*
X195228Y279967D01*
X195389Y279913D01*
X195586Y279869D01*
X195819Y279834D01*
X196087Y279810D01*
X196730Y279790D01*
Y277250D01*
X194970Y277281D01*
X194939Y280280D01*
X194958Y280187D01*
D02*
G37*
G36*
X219666Y284369D02*
Y275750D01*
X212040D01*
Y276290D01*
X209270D01*
Y266250D01*
X206730D01*
Y276290D01*
X203960D01*
X203960Y276290D01*
Y276290D01*
X202999Y276967D01*
X199088Y280877D01*
X198006Y281600D01*
X197000Y281800D01*
Y286166D01*
X217869D01*
X219666Y284369D01*
D02*
G37*
G36*
X172533Y276527D02*
X172571Y276095D01*
X172634Y275714D01*
X172723Y275384D01*
X172838Y275105D01*
X172977Y274876D01*
X173142Y274698D01*
X173333Y274571D01*
X173549Y274495D01*
X173790Y274470D01*
X168710D01*
X168951Y274495D01*
X169167Y274571D01*
X169358Y274698D01*
X169523Y274876D01*
X169662Y275105D01*
X169777Y275384D01*
X169866Y275714D01*
X169929Y276095D01*
X169967Y276527D01*
X169980Y277010D01*
X172520D01*
X172533Y276527D01*
D02*
G37*
G36*
X192715Y277281D02*
X192460Y277190D01*
X192235Y277038D01*
X192040Y276826D01*
X191875Y276553D01*
X191740Y276220D01*
X191635Y275826D01*
X191560Y275371D01*
X191515Y274856D01*
X191500Y274280D01*
X188500D01*
X188485Y274856D01*
X188440Y275371D01*
X188365Y275826D01*
X188260Y276220D01*
X188125Y276553D01*
X187960Y276826D01*
X187765Y277038D01*
X187540Y277190D01*
X187285Y277281D01*
X187000Y277311D01*
X193000D01*
X192715Y277281D01*
D02*
G37*
G36*
X224272Y275777D02*
X224398Y273821D01*
X224432Y273745D01*
X224470Y273720D01*
X221530D01*
X221568Y273745D01*
X221602Y273821D01*
X221632Y273948D01*
X221658Y274126D01*
X221698Y274634D01*
X221730Y276259D01*
X224270D01*
X224272Y275777D01*
D02*
G37*
G36*
X191500Y264750D02*
X188500Y258129D01*
X188479Y258678D01*
X188415Y259124D01*
X188309Y259468D01*
X188161Y259709D01*
X187970Y259848D01*
X187736Y259885D01*
X187461Y259819D01*
X187142Y259651D01*
X186782Y259380D01*
X186379Y259007D01*
Y263250D01*
X186782Y263683D01*
X187142Y264134D01*
X187461Y264602D01*
X187736Y265088D01*
X187970Y265591D01*
X188161Y266112D01*
X188309Y266650D01*
X188415Y267206D01*
X188479Y267780D01*
X188500Y268371D01*
X191500Y264750D01*
D02*
G37*
G36*
X209133Y258797D02*
X209114Y258754D01*
X209096Y258683D01*
X209081Y258584D01*
X209058Y258301D01*
X209041Y257664D01*
X209040Y257395D01*
X206500D01*
X206530Y258780D01*
X209155Y258811D01*
X209133Y258797D01*
D02*
G37*
G36*
X259388Y258755D02*
X259315Y258679D01*
X259251Y258552D01*
X259195Y258374D01*
X259147Y258146D01*
X259109Y257866D01*
X259057Y257155D01*
X259040Y256241D01*
X256500D01*
X256530Y258780D01*
X259470D01*
X259388Y258755D01*
D02*
G37*
G36*
X191515Y253144D02*
X191560Y252628D01*
X191635Y252174D01*
X191740Y251780D01*
X191875Y251447D01*
X192040Y251174D01*
X192235Y250962D01*
X192460Y250810D01*
X192715Y250719D01*
X193000Y250689D01*
X187000D01*
X187285Y250719D01*
X187540Y250810D01*
X187765Y250962D01*
X187960Y251174D01*
X188125Y251447D01*
X188260Y251780D01*
X188365Y252174D01*
X188440Y252628D01*
X188485Y253144D01*
X188500Y253720D01*
X191500D01*
X191515Y253144D01*
D02*
G37*
G36*
X168559Y255456D02*
X168813Y255413D01*
X169147Y255374D01*
X170614Y255291D01*
X173664Y255250D01*
X174169Y252250D01*
X173799Y252221D01*
X173425Y252135D01*
X173044Y251991D01*
X172658Y251790D01*
X172266Y251532D01*
X171868Y251216D01*
X171465Y250842D01*
X171056Y250411D01*
X170641Y249923D01*
X170220Y249377D01*
X168382Y255504D01*
X168559Y255456D01*
D02*
G37*
G36*
X178531Y242780D02*
X178505Y242818D01*
X178429Y242852D01*
X178302Y242882D01*
X178124Y242908D01*
X177616Y242948D01*
X175991Y242980D01*
Y245520D01*
X176473Y245522D01*
X178429Y245648D01*
X178505Y245682D01*
X178531Y245720D01*
Y242780D01*
D02*
G37*
G36*
X238810Y244691D02*
X239067Y243562D01*
X239226Y243050D01*
X239404Y242572D01*
X239602Y242129D01*
X239820Y241721D01*
X240058Y241347D01*
X240315Y241008D01*
X240593Y240703D01*
X238797Y238907D01*
X238492Y239184D01*
X238153Y239442D01*
X237779Y239680D01*
X237371Y239898D01*
X236928Y240096D01*
X236450Y240274D01*
X235938Y240433D01*
X234809Y240690D01*
X234193Y240789D01*
X238711Y245307D01*
X238810Y244691D01*
D02*
G37*
G36*
X282495Y240682D02*
X282571Y240648D01*
X282698Y240618D01*
X282876Y240592D01*
X283384Y240552D01*
X285009Y240520D01*
Y237980D01*
X284527Y237978D01*
X282571Y237852D01*
X282495Y237818D01*
X282470Y237780D01*
Y240720D01*
X282495Y240682D01*
D02*
G37*
G36*
X178531Y237780D02*
X178505Y237818D01*
X178429Y237852D01*
X178302Y237882D01*
X178124Y237908D01*
X177616Y237948D01*
X175991Y237980D01*
Y240520D01*
X176473Y240522D01*
X178429Y240648D01*
X178505Y240682D01*
X178531Y240720D01*
Y237780D01*
D02*
G37*
G36*
X267530Y232780D02*
X267505Y232818D01*
X267429Y232852D01*
X267302Y232882D01*
X267124Y232908D01*
X266616Y232948D01*
X264991Y232980D01*
Y235520D01*
X265473Y235522D01*
X267429Y235648D01*
X267505Y235682D01*
X267530Y235720D01*
Y232780D01*
D02*
G37*
G36*
X178531D02*
X178505Y232818D01*
X178429Y232852D01*
X178302Y232882D01*
X178124Y232908D01*
X177616Y232948D01*
X175991Y232980D01*
Y235520D01*
X176473Y235522D01*
X178429Y235648D01*
X178505Y235682D01*
X178531Y235720D01*
Y232780D01*
D02*
G37*
G36*
Y227780D02*
X178505Y227818D01*
X178429Y227852D01*
X178302Y227882D01*
X178124Y227908D01*
X177616Y227948D01*
X175991Y227980D01*
Y230520D01*
X176473Y230522D01*
X178429Y230648D01*
X178505Y230682D01*
X178531Y230720D01*
Y227780D01*
D02*
G37*
G36*
X267530Y222780D02*
X267505Y222818D01*
X267429Y222852D01*
X267302Y222882D01*
X267124Y222908D01*
X266616Y222948D01*
X264991Y222980D01*
Y225520D01*
X265473Y225522D01*
X267429Y225648D01*
X267505Y225682D01*
X267530Y225720D01*
Y222780D01*
D02*
G37*
G36*
X178531D02*
X178505Y222818D01*
X178429Y222852D01*
X178302Y222882D01*
X178124Y222908D01*
X177616Y222948D01*
X175991Y222980D01*
Y225520D01*
X176473Y225522D01*
X178429Y225648D01*
X178505Y225682D01*
X178531Y225720D01*
Y222780D01*
D02*
G37*
G36*
X267530Y217780D02*
X267505Y217818D01*
X267429Y217852D01*
X267302Y217882D01*
X267124Y217908D01*
X266616Y217948D01*
X264991Y217980D01*
Y220520D01*
X265473Y220522D01*
X267429Y220648D01*
X267505Y220682D01*
X267530Y220720D01*
Y217780D01*
D02*
G37*
G36*
X178531D02*
X178505Y217818D01*
X178429Y217852D01*
X178302Y217882D01*
X178124Y217908D01*
X177616Y217948D01*
X175991Y217980D01*
Y220520D01*
X176473Y220522D01*
X178429Y220648D01*
X178505Y220682D01*
X178531Y220720D01*
Y217780D01*
D02*
G37*
G36*
X293329Y219837D02*
X292713Y218857D01*
X292463Y218383D01*
X292251Y217919D01*
X292078Y217466D01*
X291943Y217023D01*
X291847Y216590D01*
X291789Y216168D01*
X291770Y215757D01*
X289230D01*
X289211Y216168D01*
X289153Y216590D01*
X289057Y217023D01*
X288922Y217466D01*
X288749Y217919D01*
X288537Y218383D01*
X288287Y218857D01*
X287671Y219837D01*
X287305Y220343D01*
X293695D01*
X293329Y219837D01*
D02*
G37*
G36*
X62685Y214980D02*
X62202Y214957D01*
X61771Y214887D01*
X61390Y214771D01*
X61059Y214608D01*
X60780Y214400D01*
X60551Y214144D01*
X60374Y213842D01*
X60247Y213494D01*
X60170Y213099D01*
X60145Y212658D01*
X58868D01*
X59766Y211752D01*
X57939Y209941D01*
Y212658D01*
X57605D01*
X57580Y213099D01*
X57503Y213494D01*
X57376Y213842D01*
X57199Y214144D01*
X56970Y214400D01*
X56691Y214608D01*
X56360Y214771D01*
X55979Y214887D01*
X55548Y214957D01*
X55065Y214980D01*
X58875Y217520D01*
X62685Y214980D01*
D02*
G37*
G36*
X304432Y211539D02*
X303816Y211440D01*
X302687Y211183D01*
X302175Y211024D01*
X301697Y210846D01*
X301254Y210648D01*
X300846Y210430D01*
X300472Y210192D01*
X300133Y209935D01*
X299828Y209657D01*
X298032Y211453D01*
X298309Y211758D01*
X298567Y212097D01*
X298805Y212471D01*
X299023Y212879D01*
X299221Y213322D01*
X299399Y213800D01*
X299558Y214312D01*
X299815Y215441D01*
X299914Y216057D01*
X304432Y211539D01*
D02*
G37*
G36*
X282495Y210682D02*
X282571Y210648D01*
X282698Y210618D01*
X282876Y210592D01*
X283384Y210552D01*
X285009Y210520D01*
Y207980D01*
X284527Y207978D01*
X282571Y207852D01*
X282495Y207818D01*
X282470Y207780D01*
Y210720D01*
X282495Y210682D01*
D02*
G37*
G36*
Y205682D02*
X282571Y205648D01*
X282698Y205618D01*
X282876Y205592D01*
X283384Y205552D01*
X285009Y205520D01*
Y202980D01*
X284527Y202978D01*
X282571Y202852D01*
X282495Y202818D01*
X282470Y202780D01*
Y205720D01*
X282495Y205682D01*
D02*
G37*
G36*
X309343Y202055D02*
X308837Y202421D01*
X307857Y203037D01*
X307383Y203287D01*
X306919Y203499D01*
X306466Y203672D01*
X306023Y203807D01*
X305590Y203903D01*
X305168Y203961D01*
X304757Y203980D01*
Y206520D01*
X305168Y206539D01*
X305590Y206597D01*
X306023Y206693D01*
X306466Y206828D01*
X306919Y207001D01*
X307383Y207213D01*
X307857Y207463D01*
X308837Y208079D01*
X309343Y208445D01*
Y202055D01*
D02*
G37*
G36*
X282495Y200682D02*
X282571Y200648D01*
X282698Y200618D01*
X282876Y200592D01*
X283384Y200552D01*
X285009Y200520D01*
Y197980D01*
X284527Y197978D01*
X282571Y197852D01*
X282495Y197818D01*
X282470Y197780D01*
Y200720D01*
X282495Y200682D01*
D02*
G37*
G36*
X107009Y195860D02*
X106523Y195847D01*
X106087Y195809D01*
X105703Y195746D01*
X105369Y195657D01*
X105087Y195543D01*
X104855Y195403D01*
X104675Y195238D01*
X104545Y195047D01*
X104467Y194831D01*
X104439Y194590D01*
X104469Y198370D01*
X107009Y198400D01*
Y195860D01*
D02*
G37*
G36*
X267530Y192780D02*
X267505Y192818D01*
X267429Y192852D01*
X267302Y192882D01*
X267124Y192908D01*
X266616Y192948D01*
X264991Y192980D01*
Y195520D01*
X265473Y195522D01*
X267429Y195648D01*
X267505Y195682D01*
X267530Y195720D01*
Y192780D01*
D02*
G37*
G36*
X249272Y186777D02*
X249398Y184821D01*
X249432Y184745D01*
X249470Y184720D01*
X246530D01*
X246568Y184745D01*
X246602Y184821D01*
X246632Y184948D01*
X246658Y185126D01*
X246698Y185634D01*
X246730Y187260D01*
X249270D01*
X249272Y186777D01*
D02*
G37*
G36*
X244272D02*
X244398Y184821D01*
X244432Y184745D01*
X244470Y184720D01*
X241530D01*
X241568Y184745D01*
X241602Y184821D01*
X241632Y184948D01*
X241658Y185126D01*
X241698Y185634D01*
X241730Y187260D01*
X244270D01*
X244272Y186777D01*
D02*
G37*
G36*
X209432Y169755D02*
X209398Y169679D01*
X209368Y169552D01*
X209342Y169374D01*
X209302Y168866D01*
X209270Y167241D01*
X206730D01*
X206728Y167723D01*
X206602Y169679D01*
X206568Y169755D01*
X206530Y169781D01*
X209470D01*
X209432Y169755D01*
D02*
G37*
G36*
X53783Y146271D02*
X53821Y145834D01*
X53884Y145449D01*
X53973Y145114D01*
X54088Y144832D01*
X54227Y144600D01*
X54392Y144420D01*
X54583Y144292D01*
X54799Y144215D01*
X55040Y144189D01*
X49960D01*
X50201Y144215D01*
X50417Y144292D01*
X50608Y144420D01*
X50773Y144600D01*
X50912Y144832D01*
X51027Y145114D01*
X51116Y145449D01*
X51179Y145834D01*
X51217Y146271D01*
X51230Y146760D01*
X53770D01*
X53783Y146271D01*
D02*
G37*
G36*
X200283Y145771D02*
X200321Y145334D01*
X200384Y144949D01*
X200473Y144614D01*
X200588Y144332D01*
X200727Y144100D01*
X200892Y143920D01*
X201083Y143792D01*
X201299Y143715D01*
X201540Y143689D01*
X196460D01*
X196701Y143715D01*
X196917Y143792D01*
X197108Y143920D01*
X197273Y144100D01*
X197412Y144332D01*
X197527Y144614D01*
X197616Y144949D01*
X197679Y145334D01*
X197717Y145771D01*
X197730Y146259D01*
X200270D01*
X200283Y145771D01*
D02*
G37*
G36*
X22217Y121069D02*
X22295Y120853D01*
X22425Y120662D01*
X22605Y120497D01*
X22837Y120358D01*
X23119Y120243D01*
X23453Y120154D01*
X23837Y120091D01*
X24273Y120053D01*
X24760Y120040D01*
Y117500D01*
X22220Y117530D01*
X22189Y121310D01*
X22217Y121069D01*
D02*
G37*
G36*
X47031Y116230D02*
X47005Y116471D01*
X46929Y116687D01*
X46802Y116878D01*
X46624Y117043D01*
X46396Y117183D01*
X46116Y117297D01*
X45786Y117386D01*
X45405Y117449D01*
X44973Y117487D01*
X44490Y117500D01*
Y120040D01*
X44973Y120053D01*
X45405Y120091D01*
X45786Y120154D01*
X46116Y120243D01*
X46396Y120358D01*
X46624Y120497D01*
X46802Y120662D01*
X46929Y120853D01*
X47005Y121069D01*
X47031Y121310D01*
Y116230D01*
D02*
G37*
G36*
X178531Y207780D02*
X178505Y207818D01*
X178429Y207852D01*
X178302Y207882D01*
X178124Y207908D01*
X177616Y207948D01*
X175991Y207980D01*
Y210520D01*
X176473Y210522D01*
X178429Y210648D01*
X178505Y210682D01*
X178531Y210720D01*
Y207780D01*
D02*
G37*
G36*
X169259Y207980D02*
X168773Y207967D01*
X168338Y207929D01*
X167953Y207866D01*
X167620Y207777D01*
X167337Y207663D01*
X167106Y207523D01*
X166925Y207358D01*
X166795Y207167D01*
X166717Y206951D01*
X166689Y206710D01*
X166719Y210219D01*
X166745Y210277D01*
X166821Y210328D01*
X166948Y210373D01*
X167126Y210412D01*
X167355Y210445D01*
X167964Y210493D01*
X169259Y210520D01*
Y207980D01*
D02*
G37*
G36*
X178531Y202780D02*
X178505Y202818D01*
X178429Y202852D01*
X178302Y202882D01*
X178124Y202908D01*
X177616Y202948D01*
X175991Y202980D01*
Y205520D01*
X176473Y205522D01*
X178429Y205648D01*
X178505Y205682D01*
X178531Y205720D01*
Y202780D01*
D02*
G37*
G36*
X177283Y145771D02*
X177321Y145334D01*
X177384Y144949D01*
X177473Y144614D01*
X177588Y144332D01*
X177727Y144100D01*
X177892Y143920D01*
X178083Y143792D01*
X178299Y143715D01*
X178540Y143689D01*
X173460D01*
X173701Y143715D01*
X173917Y143792D01*
X174108Y143920D01*
X174273Y144100D01*
X174412Y144332D01*
X174527Y144614D01*
X174616Y144949D01*
X174679Y145334D01*
X174717Y145771D01*
X174730Y146259D01*
X177270D01*
X177283Y145771D01*
D02*
G37*
G36*
X146311Y136210D02*
X146285Y136451D01*
X146208Y136667D01*
X146080Y136858D01*
X145900Y137023D01*
X145668Y137163D01*
X145386Y137277D01*
X145051Y137366D01*
X144666Y137429D01*
X144229Y137467D01*
X143741Y137480D01*
Y140020D01*
X144229Y140033D01*
X144666Y140071D01*
X145051Y140134D01*
X145386Y140223D01*
X145668Y140337D01*
X145900Y140477D01*
X146080Y140642D01*
X146208Y140833D01*
X146285Y141049D01*
X146311Y141290D01*
Y136210D01*
D02*
G37*
G36*
X218281Y118280D02*
X218255Y118508D01*
X218179Y118712D01*
X218052Y118892D01*
X217874Y119048D01*
X217645Y119180D01*
X217366Y119288D01*
X217036Y119372D01*
X216655Y119432D01*
X216223Y119468D01*
X215741Y119480D01*
Y122020D01*
X216223Y122033D01*
X216655Y122071D01*
X217036Y122134D01*
X217366Y122223D01*
X217645Y122338D01*
X217874Y122477D01*
X218052Y122642D01*
X218179Y122833D01*
X218255Y123049D01*
X218281Y123290D01*
Y118280D01*
D02*
G37*
G36*
X205715Y123049D02*
X205792Y122833D01*
X205920Y122642D01*
X206100Y122477D01*
X206332Y122338D01*
X206614Y122223D01*
X206949Y122134D01*
X207334Y122071D01*
X207771Y122033D01*
X208260Y122020D01*
Y119480D01*
X207771Y119467D01*
X207334Y119429D01*
X206949Y119366D01*
X206614Y119277D01*
X206332Y119163D01*
X206100Y119023D01*
X205920Y118858D01*
X205792Y118667D01*
X205715Y118451D01*
X205689Y118210D01*
Y123290D01*
X205715Y123049D01*
D02*
G37*
G36*
X191780Y116210D02*
X191755Y116451D01*
X191679Y116667D01*
X191552Y116858D01*
X191374Y117023D01*
X191145Y117163D01*
X190866Y117277D01*
X190536Y117366D01*
X190155Y117429D01*
X189723Y117467D01*
X189240Y117480D01*
Y120020D01*
X189723Y120033D01*
X190155Y120071D01*
X190536Y120134D01*
X190866Y120223D01*
X191145Y120337D01*
X191374Y120477D01*
X191552Y120642D01*
X191679Y120833D01*
X191755Y121049D01*
X191780Y121290D01*
Y116210D01*
D02*
G37*
G36*
X182965Y121049D02*
X183042Y120833D01*
X183170Y120642D01*
X183350Y120477D01*
X183582Y120337D01*
X183864Y120223D01*
X184199Y120134D01*
X184584Y120071D01*
X185021Y120033D01*
X185509Y120020D01*
Y117480D01*
X185021Y117467D01*
X184584Y117429D01*
X184199Y117366D01*
X183864Y117277D01*
X183582Y117163D01*
X183350Y117023D01*
X183170Y116858D01*
X183042Y116667D01*
X182965Y116451D01*
X182939Y116210D01*
Y121290D01*
X182965Y121049D01*
D02*
G37*
G36*
X169030Y116210D02*
X169005Y116451D01*
X168929Y116667D01*
X168802Y116858D01*
X168624Y117023D01*
X168396Y117163D01*
X168116Y117277D01*
X167786Y117366D01*
X167405Y117429D01*
X166973Y117467D01*
X166490Y117480D01*
Y120020D01*
X166973Y120033D01*
X167405Y120071D01*
X167786Y120134D01*
X168116Y120223D01*
X168396Y120337D01*
X168624Y120477D01*
X168802Y120642D01*
X168929Y120833D01*
X169005Y121049D01*
X169030Y121290D01*
Y116210D01*
D02*
G37*
G36*
X160245Y121049D02*
X160321Y120833D01*
X160448Y120642D01*
X160626Y120477D01*
X160854Y120337D01*
X161134Y120223D01*
X161464Y120134D01*
X161845Y120071D01*
X162277Y120033D01*
X162759Y120020D01*
Y117480D01*
X162277Y117467D01*
X161845Y117429D01*
X161464Y117366D01*
X161134Y117277D01*
X160854Y117163D01*
X160626Y117023D01*
X160448Y116858D01*
X160321Y116667D01*
X160245Y116451D01*
X160219Y116210D01*
Y121290D01*
X160245Y121049D01*
D02*
G37*
G36*
X153765Y97144D02*
X153810Y96629D01*
X153885Y96174D01*
X153990Y95780D01*
X154125Y95447D01*
X154290Y95174D01*
X154485Y94962D01*
X154710Y94810D01*
X154965Y94719D01*
X155250Y94689D01*
X149250D01*
X149535Y94719D01*
X149790Y94810D01*
X150015Y94962D01*
X150210Y95174D01*
X150375Y95447D01*
X150510Y95780D01*
X150615Y96174D01*
X150690Y96629D01*
X150735Y97144D01*
X150750Y97719D01*
X153750D01*
X153765Y97144D01*
D02*
G37*
G36*
X104715Y40144D02*
X104760Y39629D01*
X104835Y39174D01*
X104940Y38780D01*
X105075Y38447D01*
X105240Y38174D01*
X105435Y37962D01*
X105660Y37810D01*
X105915Y37719D01*
X106200Y37689D01*
X100200D01*
X100485Y37719D01*
X100740Y37810D01*
X100965Y37962D01*
X101160Y38174D01*
X101325Y38447D01*
X101460Y38780D01*
X101565Y39174D01*
X101640Y39629D01*
X101685Y40144D01*
X101700Y40719D01*
X104700D01*
X104715Y40144D01*
D02*
G37*
D15*
X79980Y294230D02*
Y307730D01*
X62250Y276500D02*
X64250D01*
X67980Y280230D01*
Y282230D01*
X79980Y294230D01*
X87520Y311520D02*
X90750Y314750D01*
X83770Y311520D02*
X87520D01*
X79980Y307730D02*
X83770Y311520D01*
X87250Y276500D02*
X110980Y300230D01*
X114488Y311520D02*
X118520D01*
X110980Y308012D02*
X114488Y311520D01*
X110980Y300230D02*
Y308012D01*
X118520Y311520D02*
X121750Y314750D01*
X108750Y276500D02*
X121750Y289500D01*
Y300750D01*
X85250Y276500D02*
X87250D01*
X235710Y222230D02*
Y233094D01*
Y222230D02*
X263690Y194250D01*
X275000D01*
X216772Y252032D02*
X235710Y233094D01*
X243000Y177250D02*
Y191829D01*
X213760Y221069D02*
X243000Y191829D01*
X213760Y221069D02*
Y244762D01*
X319020Y198770D02*
Y210636D01*
X290406Y239250D02*
X319020Y210636D01*
X275000Y239250D02*
X290406D01*
X207770Y266020D02*
X208000Y266250D01*
X207770Y257395D02*
Y266020D01*
X201875Y251500D02*
X207770Y257395D01*
X201500Y251500D02*
X201875D01*
X210749Y252032D02*
X216772D01*
X203250Y244533D02*
X210749Y252032D01*
X203250Y234500D02*
Y244533D01*
X221761Y219489D02*
Y231765D01*
X240250Y229750D02*
Y239250D01*
X234750Y244750D02*
X240250Y239250D01*
Y229750D02*
X250750Y219250D01*
X275000D01*
X248000Y177250D02*
Y193250D01*
X221761Y219489D02*
X248000Y193250D01*
X275000Y249250D02*
Y258500D01*
X282750Y265250D02*
X283750D01*
X281750D02*
X282750D01*
X124750Y229250D02*
X186000D01*
X111750Y216250D02*
X124750Y229250D01*
X58875Y216250D02*
X111750D01*
X104500Y239250D02*
X186000D01*
X87250Y256500D02*
X90980Y252770D01*
Y252770D02*
Y252770D01*
Y252770D02*
X104500Y239250D01*
X132250Y219250D02*
X186000D01*
X97000Y190900D02*
X103230Y197130D01*
X110130D01*
X132250Y219250D01*
X208000Y157000D02*
Y177250D01*
X175330Y204250D02*
X186000D01*
X176000Y138750D02*
Y171542D01*
X173842Y173700D02*
X176000Y171542D01*
X173842Y173700D02*
Y202762D01*
X175330Y204250D01*
X86500Y234250D02*
X186000D01*
X64250Y256500D02*
X86500Y234250D01*
X91210Y211710D02*
X113631D01*
X52500Y120250D02*
Y173000D01*
X91210Y211710D01*
X165750Y209250D02*
X186000D01*
X162750Y206250D02*
X165750Y209250D01*
X219250Y289500D02*
X223000Y285750D01*
X171250Y285500D02*
X175250Y289500D01*
X171250Y267750D02*
Y285500D01*
X175250Y289500D02*
X219250D01*
X223000Y266250D02*
Y285750D01*
X123000Y244250D02*
X186000D01*
X110750Y256500D02*
X123000Y244250D01*
X192730Y278520D02*
X196730D01*
X190000Y281250D02*
X192730Y278520D01*
X196730D02*
X203000Y272250D01*
Y266250D02*
Y272250D01*
X113631Y211710D02*
X126171Y224250D01*
X186000D01*
X108750Y256500D02*
X110750D01*
X171000Y267500D02*
X171250Y267750D01*
X62250Y256500D02*
X64250D01*
X199000Y148000D02*
X208000Y157000D01*
X199000Y139000D02*
Y148000D01*
X198750Y138750D02*
X199000Y139000D01*
X85250Y256500D02*
X87250D01*
X275000Y258500D02*
X281750Y265250D01*
X312250Y192000D02*
X319020Y198770D01*
X305250Y192000D02*
X312250D01*
X301734Y285984D02*
Y333766D01*
X270750Y356250D02*
X279250D01*
X301734Y333766D01*
X198750Y118750D02*
X200750Y120750D01*
X221750D01*
X223250Y122250D01*
X153250Y118750D02*
X177500D01*
X198750D01*
X139952Y113750D02*
Y136262D01*
X97000Y114700D02*
X137550Y155250D01*
X154500D01*
X246250Y237969D02*
X259969Y224250D01*
X246250Y237969D02*
Y248500D01*
X298500Y199250D02*
X304500Y205250D01*
X275000Y199250D02*
X298500D01*
X304500Y205250D02*
X311750D01*
X97000Y165500D02*
X99205Y167705D01*
X153955D01*
X155000Y168750D01*
X151250Y192750D02*
X162750Y204250D01*
X151250Y180750D02*
Y192750D01*
X51020Y118770D02*
X52500Y120250D01*
X139952Y136262D02*
X142440Y138750D01*
X153250D01*
X17250Y121500D02*
X19980Y118770D01*
X51020D01*
X58875Y212658D02*
Y216250D01*
X44306Y198089D02*
X58875Y212658D01*
X33411Y198089D02*
X44306D01*
X18250Y213250D02*
X33411Y198089D01*
X17250Y213250D02*
X18250D01*
X52500Y216250D02*
X58875D01*
X162750Y204250D02*
Y205250D01*
X283750Y265250D02*
X300690Y282190D01*
Y284940D01*
X301734Y285984D01*
X292625Y204250D02*
X303875Y215500D01*
X275000Y204250D02*
X292625D01*
X258500Y236000D02*
X259977D01*
X261728Y234250D01*
X275000D01*
X259969Y224250D02*
X275000D01*
X270750Y337780D02*
Y356250D01*
X269020Y336050D02*
X270750Y337780D01*
X267250Y336050D02*
X269020D01*
X199000Y336750D02*
X212454D01*
X213484Y337780D01*
X215214Y336050D01*
X290500Y213954D02*
Y222750D01*
X285796Y209250D02*
X290500Y213954D01*
X275000Y209250D02*
X285796D01*
X219250Y310650D02*
X240805D01*
X246155Y316000D01*
X246500D01*
X267250Y323350D02*
X267575Y323675D01*
X287175D01*
X287500Y324000D01*
X215214Y336050D02*
X219250D01*
X257770Y251270D02*
Y266020D01*
X258000Y266250D01*
X257500Y251000D02*
X257770Y251270D01*
X267250Y297950D02*
X267500Y297700D01*
Y281750D02*
Y297700D01*
X219250Y323350D02*
X219425Y323175D01*
X237325D01*
X237500Y323000D01*
X267250Y310650D02*
X267425Y310825D01*
X286825D01*
X287000Y311000D01*
D16*
X399250Y205160D02*
D03*
Y178340D02*
D03*
D17*
X279000Y537000D02*
D03*
X244000D02*
D03*
X103200Y30250D02*
D03*
D18*
X187750Y535250D02*
D03*
X207750D02*
D03*
X151000Y267500D02*
D03*
X171000D02*
D03*
D19*
X152250Y69750D02*
D03*
Y89750D02*
D03*
X108750Y256500D02*
D03*
Y276500D02*
D03*
X85250Y256500D02*
D03*
Y276500D02*
D03*
X62250Y256500D02*
D03*
Y276500D02*
D03*
X176000Y118750D02*
D03*
Y138750D02*
D03*
X153250D02*
D03*
Y118750D02*
D03*
X198750D02*
D03*
Y138750D02*
D03*
D20*
X52500Y216250D02*
D03*
Y120250D02*
D03*
D21*
X17250Y197250D02*
D03*
Y213250D02*
D03*
Y137500D02*
D03*
Y121500D02*
D03*
X190000Y297250D02*
D03*
Y281250D02*
D03*
X223250Y138250D02*
D03*
Y122250D02*
D03*
X282750Y281250D02*
D03*
Y265250D02*
D03*
X277250Y158000D02*
D03*
Y174000D02*
D03*
D22*
X203000Y266250D02*
D03*
X208000D02*
D03*
X213000D02*
D03*
X218000D02*
D03*
X223000D02*
D03*
X228000D02*
D03*
X233000D02*
D03*
X238000D02*
D03*
X243000D02*
D03*
X248000D02*
D03*
X253000D02*
D03*
X258000D02*
D03*
Y177250D02*
D03*
X253000D02*
D03*
X248000D02*
D03*
X243000D02*
D03*
X238000D02*
D03*
X233000D02*
D03*
X228000D02*
D03*
X223000D02*
D03*
X218000D02*
D03*
X213000D02*
D03*
X208000D02*
D03*
X203000D02*
D03*
D23*
X275000Y249250D02*
D03*
Y244250D02*
D03*
Y239250D02*
D03*
Y234250D02*
D03*
Y229250D02*
D03*
Y224250D02*
D03*
Y219250D02*
D03*
Y214250D02*
D03*
Y209250D02*
D03*
Y204250D02*
D03*
Y199250D02*
D03*
Y194250D02*
D03*
X186000D02*
D03*
Y199250D02*
D03*
Y204250D02*
D03*
Y209250D02*
D03*
Y214250D02*
D03*
Y219250D02*
D03*
Y224250D02*
D03*
Y229250D02*
D03*
Y234250D02*
D03*
Y239250D02*
D03*
Y244250D02*
D03*
Y249250D02*
D03*
D24*
X219250Y336050D02*
D03*
Y323350D02*
D03*
Y310650D02*
D03*
Y297950D02*
D03*
X267250Y336050D02*
D03*
Y323350D02*
D03*
Y310650D02*
D03*
Y297950D02*
D03*
D25*
X270750Y356250D02*
D03*
X254750D02*
D03*
X162750Y205250D02*
D03*
X146750D02*
D03*
D26*
X121750Y300750D02*
D03*
Y314750D02*
D03*
X90750D02*
D03*
Y300750D02*
D03*
D54*
X105757Y322750D02*
X130700D01*
X93750Y303750D02*
X102243D01*
X104000Y305507D01*
Y320993D01*
X105757Y322750D01*
X90750Y300750D02*
X93750Y303750D01*
X149800Y251750D02*
X168353D01*
X139772Y261779D02*
X149800Y251750D01*
X139772Y261779D02*
Y313678D01*
X130700Y322750D02*
X139772Y313678D01*
X190000Y249250D02*
Y264750D01*
X186000Y249250D02*
X190000D01*
X139952Y111798D02*
Y113750D01*
X152250Y89750D02*
Y99500D01*
X139952Y111798D02*
X152250Y99500D01*
X103200Y30250D02*
Y42700D01*
X150250Y89750D01*
X152250D01*
X179000Y253750D02*
X190000Y264750D01*
X168353Y251750D02*
X170353Y253750D01*
X179000D01*
X190000Y264750D02*
Y281250D01*
D55*
X344000Y221350D02*
X383060D01*
X390650Y213760D01*
Y207810D02*
Y213760D01*
Y207810D02*
X393300Y205160D01*
X399250D01*
X344000Y170550D02*
X385510D01*
X393300Y178340D01*
X399250D01*
X187750Y521000D02*
Y535250D01*
X187500Y520750D02*
X187750Y521000D01*
X198550Y509700D02*
X310600D01*
X187500Y520750D02*
X198550Y509700D01*
X308500Y555500D02*
X337244Y526756D01*
Y498244D02*
Y526756D01*
X207750Y537000D02*
X244000D01*
X207750Y535250D02*
Y537000D01*
X278750Y555500D02*
X308500D01*
X122750D02*
X278750D01*
X279000Y537000D02*
Y555250D01*
X278750Y555500D02*
X279000Y555250D01*
X336000Y497000D02*
X337244Y498244D01*
X92250Y440750D02*
Y525000D01*
X122750Y555500D01*
X117506Y433544D02*
X118750Y432300D01*
X99456Y433544D02*
X117506D01*
X92250Y440750D02*
X99456Y433544D01*
D56*
X309100Y432000D02*
X310600Y433500D01*
X263500Y432000D02*
X309100D01*
X144150Y495800D02*
X199700D01*
X263500Y432000D01*
D57*
X277250Y174000D02*
X288750D01*
X259500D02*
X277250D01*
X288750D02*
X294197Y179447D01*
Y179553D01*
D58*
X154000Y30250D02*
D03*
X128600D02*
D03*
X97000Y89300D02*
D03*
Y114700D02*
D03*
Y140100D02*
D03*
Y165500D02*
D03*
D59*
Y190900D02*
D03*
D60*
X399500Y408100D02*
D03*
Y522400D02*
D03*
X55250Y521200D02*
D03*
Y406900D02*
D03*
D61*
X336000Y420800D02*
D03*
X118750Y508500D02*
D03*
D62*
X310600Y433500D02*
D03*
X336000Y446200D02*
D03*
X310600Y458900D02*
D03*
X336000Y471600D02*
D03*
X310600Y484300D02*
D03*
X336000Y497000D02*
D03*
X310600Y509700D02*
D03*
X144150Y495800D02*
D03*
X118750Y483100D02*
D03*
X144150Y470400D02*
D03*
X118750Y457700D02*
D03*
X144150Y445000D02*
D03*
X118750Y432300D02*
D03*
X144150Y419600D02*
D03*
D63*
X430000Y387750D02*
D03*
Y542750D02*
D03*
X24750Y541550D02*
D03*
Y386550D02*
D03*
D64*
X433900Y273500D02*
D03*
D65*
X408500D02*
D03*
X383100D02*
D03*
D66*
X408500Y91000D02*
D03*
D67*
X344000Y170550D02*
D03*
Y195950D02*
D03*
Y221350D02*
D03*
Y246750D02*
D03*
Y297550D02*
D03*
X226750Y410500D02*
D03*
Y385100D02*
D03*
D68*
X344000Y322950D02*
D03*
D69*
X226750Y435900D02*
D03*
D70*
X304000Y56500D02*
D03*
X278600D02*
D03*
X253200D02*
D03*
D71*
X227800D02*
D03*
D72*
X34500Y329750D02*
D03*
X404500D02*
D03*
Y29750D02*
D03*
X34500D02*
D03*
D73*
X213760Y244762D02*
D03*
X221761Y231765D02*
D03*
X203250Y234500D02*
D03*
X154500Y155250D02*
D03*
X305250Y192000D02*
D03*
X234750Y244750D02*
D03*
X167000Y251750D02*
D03*
X246250Y248500D02*
D03*
X155000Y168750D02*
D03*
X151250Y180750D02*
D03*
X298500Y112250D02*
D03*
X301750Y147000D02*
D03*
X301734Y285984D02*
D03*
X270250Y107500D02*
D03*
X294197Y179553D02*
D03*
X258500Y236000D02*
D03*
X199000Y336750D02*
D03*
X303875Y215500D02*
D03*
X311750Y205250D02*
D03*
X290500Y222750D02*
D03*
X246500Y316000D02*
D03*
X287500Y324000D02*
D03*
X257500Y251000D02*
D03*
X267500Y281750D02*
D03*
X237500Y323000D02*
D03*
X287000Y311000D02*
D03*
D74*
X40500Y167500D02*
D03*
M02*
