G04*
G04 #@! TF.GenerationSoftware,Altium Limited,Altium Designer,20.0.13 (296)*
G04*
G04 Layer_Color=128*
%FSLAX44Y44*%
%MOMM*%
G71*
G01*
G75*
%ADD15R,1.4000X1.0000*%
%ADD20R,0.8000X1.0000*%
%ADD21R,2.2000X0.6000*%
%ADD23R,1.0000X1.4000*%
%ADD72R,1.1000X0.8000*%
%ADD73R,0.6000X2.0600*%
%ADD74R,2.7200X1.5300*%
D15*
X207500Y168250D02*
D03*
Y188250D02*
D03*
X227250D02*
D03*
Y168250D02*
D03*
X320750Y233250D02*
D03*
Y253250D02*
D03*
X321000Y193250D02*
D03*
Y213250D02*
D03*
D20*
X251750Y165750D02*
D03*
X267750D02*
D03*
X186500Y406250D02*
D03*
X170500D02*
D03*
X169500Y260500D02*
D03*
X185500D02*
D03*
D21*
X229250Y203450D02*
D03*
Y216150D02*
D03*
Y228850D02*
D03*
Y241550D02*
D03*
X277250Y203450D02*
D03*
Y216150D02*
D03*
Y228850D02*
D03*
Y241550D02*
D03*
D23*
X318000Y23500D02*
D03*
X298000D02*
D03*
D72*
X278750Y45500D02*
D03*
Y64500D02*
D03*
X301250Y55000D02*
D03*
D73*
X171750Y376750D02*
D03*
X184450D02*
D03*
X197150D02*
D03*
X209850D02*
D03*
X222550D02*
D03*
X235250D02*
D03*
X247950D02*
D03*
X260650D02*
D03*
Y283950D02*
D03*
X247950D02*
D03*
X235250D02*
D03*
X222550D02*
D03*
X209850D02*
D03*
X197150D02*
D03*
X184450D02*
D03*
X171750D02*
D03*
D74*
X382250Y257840D02*
D03*
Y284660D02*
D03*
M02*
