G04*
G04 #@! TF.GenerationSoftware,Altium Limited,Altium Designer,20.0.13 (296)*
G04*
G04 Layer_Physical_Order=3*
G04 Layer_Color=16440176*
%FSLAX44Y44*%
%MOMM*%
G71*
G01*
G75*
%ADD15C,0.2540*%
%ADD55C,1.0000*%
%ADD56C,0.5000*%
%ADD57C,0.6000*%
%ADD58C,1.5000*%
%ADD59R,1.5000X1.5000*%
%ADD62C,1.6500*%
%ADD64R,1.5240X3.0480*%
%ADD65O,1.5240X3.0480*%
%ADD67C,1.6000*%
%ADD70C,1.2880*%
%ADD71R,1.2880X1.2880*%
%ADD72C,4.0000*%
%ADD73C,0.8000*%
%ADD74C,1.2700*%
G36*
X460431Y3569D02*
X3569D01*
Y567681D01*
X460431D01*
X460431Y3569D01*
D02*
G37*
%LPC*%
G36*
X430000Y558325D02*
X426962Y558026D01*
X424040Y557139D01*
X421347Y555700D01*
X418987Y553763D01*
X417050Y551403D01*
X415611Y548710D01*
X414724Y545788D01*
X414425Y542750D01*
X414724Y539711D01*
X415611Y536790D01*
X417050Y534097D01*
X418987Y531737D01*
X421347Y529800D01*
X424040Y528361D01*
X426962Y527474D01*
X430000Y527175D01*
X433038Y527474D01*
X435960Y528361D01*
X438653Y529800D01*
X441013Y531737D01*
X442950Y534097D01*
X444389Y536790D01*
X445276Y539711D01*
X445575Y542750D01*
X445276Y545788D01*
X444389Y548710D01*
X442950Y551403D01*
X441013Y553763D01*
X438653Y555700D01*
X435960Y557139D01*
X433038Y558026D01*
X430000Y558325D01*
D02*
G37*
G36*
X24750Y557125D02*
X21711Y556826D01*
X18790Y555939D01*
X16097Y554500D01*
X13737Y552563D01*
X11800Y550203D01*
X10361Y547510D01*
X9474Y544589D01*
X9175Y541550D01*
X9474Y538512D01*
X10361Y535590D01*
X11800Y532897D01*
X13737Y530537D01*
X16097Y528600D01*
X18790Y527161D01*
X21711Y526274D01*
X24750Y525975D01*
X27789Y526274D01*
X30710Y527161D01*
X33403Y528600D01*
X35763Y530537D01*
X37700Y532897D01*
X39139Y535590D01*
X40026Y538512D01*
X40325Y541550D01*
X40026Y544589D01*
X39139Y547510D01*
X37700Y550203D01*
X35763Y552563D01*
X33403Y554500D01*
X30710Y555939D01*
X27789Y556826D01*
X24750Y557125D01*
D02*
G37*
G36*
X399500Y541492D02*
X395775Y541125D01*
X392194Y540039D01*
X388893Y538274D01*
X386000Y535900D01*
X383626Y533007D01*
X381861Y529706D01*
X380775Y526125D01*
X380408Y522400D01*
X380775Y518675D01*
X381861Y515094D01*
X383626Y511793D01*
X386000Y508900D01*
X388893Y506526D01*
X392194Y504761D01*
X395775Y503675D01*
X399500Y503308D01*
X403225Y503675D01*
X406806Y504761D01*
X410107Y506526D01*
X413000Y508900D01*
X415374Y511793D01*
X417139Y515094D01*
X418225Y518675D01*
X418592Y522400D01*
X418225Y526125D01*
X417139Y529706D01*
X415374Y533007D01*
X413000Y535900D01*
X410107Y538274D01*
X406806Y540039D01*
X403225Y541125D01*
X399500Y541492D01*
D02*
G37*
G36*
X55250Y540292D02*
X51525Y539925D01*
X47944Y538839D01*
X44643Y537074D01*
X41750Y534700D01*
X39376Y531807D01*
X37611Y528506D01*
X36525Y524925D01*
X36158Y521200D01*
X36525Y517475D01*
X37611Y513894D01*
X39376Y510593D01*
X41750Y507700D01*
X44643Y505326D01*
X47944Y503561D01*
X51525Y502475D01*
X55250Y502108D01*
X58975Y502475D01*
X62556Y503561D01*
X65857Y505326D01*
X68750Y507700D01*
X71124Y510593D01*
X72889Y513894D01*
X73975Y517475D01*
X74342Y521200D01*
X73975Y524925D01*
X72889Y528506D01*
X71124Y531807D01*
X68750Y534700D01*
X65857Y537074D01*
X62556Y538839D01*
X58975Y539925D01*
X55250Y540292D01*
D02*
G37*
G36*
X310600Y520038D02*
X307924Y519686D01*
X305431Y518653D01*
X303290Y517010D01*
X301647Y514869D01*
X300614Y512376D01*
X300262Y509700D01*
X300614Y507024D01*
X301647Y504531D01*
X303290Y502390D01*
X305431Y500747D01*
X307924Y499714D01*
X310600Y499362D01*
X313276Y499714D01*
X315769Y500747D01*
X317910Y502390D01*
X319553Y504531D01*
X320586Y507024D01*
X320938Y509700D01*
X320586Y512376D01*
X319553Y514869D01*
X317910Y517010D01*
X315769Y518653D01*
X313276Y519686D01*
X310600Y520038D01*
D02*
G37*
G36*
X129000Y518750D02*
X108500D01*
Y498250D01*
X129000D01*
Y518750D01*
D02*
G37*
G36*
X336000Y507338D02*
X333324Y506986D01*
X330831Y505953D01*
X328690Y504310D01*
X327047Y502169D01*
X326014Y499676D01*
X325662Y497000D01*
X326014Y494324D01*
X327047Y491831D01*
X328690Y489690D01*
X330831Y488047D01*
X333324Y487014D01*
X336000Y486662D01*
X338676Y487014D01*
X341169Y488047D01*
X343310Y489690D01*
X344953Y491831D01*
X345986Y494324D01*
X346338Y497000D01*
X345986Y499676D01*
X344953Y502169D01*
X343310Y504310D01*
X341169Y505953D01*
X338676Y506986D01*
X336000Y507338D01*
D02*
G37*
G36*
X144150Y506138D02*
X141474Y505786D01*
X138981Y504753D01*
X136840Y503110D01*
X135197Y500969D01*
X134164Y498476D01*
X133812Y495800D01*
X134164Y493124D01*
X135197Y490631D01*
X136840Y488490D01*
X138981Y486847D01*
X141474Y485814D01*
X144150Y485462D01*
X146826Y485814D01*
X149319Y486847D01*
X151460Y488490D01*
X153103Y490631D01*
X154136Y493124D01*
X154488Y495800D01*
X154136Y498476D01*
X153103Y500969D01*
X151460Y503110D01*
X149319Y504753D01*
X146826Y505786D01*
X144150Y506138D01*
D02*
G37*
G36*
X342000Y539060D02*
X102750D01*
X100923Y538820D01*
X99220Y538115D01*
X97758Y536992D01*
X86508Y525742D01*
X85386Y524280D01*
X84680Y522577D01*
X84440Y520750D01*
Y464108D01*
X84680Y462281D01*
X85386Y460578D01*
X86508Y459115D01*
X92365Y453258D01*
X93828Y452136D01*
X95531Y451430D01*
X97358Y451190D01*
X110826D01*
X111440Y450390D01*
X113581Y448747D01*
X116074Y447714D01*
X118750Y447362D01*
X121426Y447714D01*
X123919Y448747D01*
X126060Y450390D01*
X127703Y452531D01*
X128736Y455024D01*
X129088Y457700D01*
X128736Y460376D01*
X127703Y462869D01*
X126060Y465010D01*
X123919Y466653D01*
X121426Y467686D01*
X118750Y468038D01*
X116074Y467686D01*
X113581Y466653D01*
X111831Y465310D01*
X100282D01*
X98560Y467032D01*
Y517826D01*
X105674Y524940D01*
X339076D01*
X350690Y513326D01*
Y479904D01*
X342015D01*
X341169Y480553D01*
X338676Y481586D01*
X336000Y481938D01*
X333324Y481586D01*
X330831Y480553D01*
X328690Y478910D01*
X327047Y476769D01*
X326014Y474276D01*
X325662Y471600D01*
X326014Y468924D01*
X327047Y466431D01*
X328690Y464290D01*
X330831Y462647D01*
X333324Y461614D01*
X336000Y461262D01*
X338676Y461614D01*
X341169Y462647D01*
X343310Y464290D01*
X344456Y465783D01*
X353736D01*
X355563Y466024D01*
X357266Y466729D01*
X358728Y467851D01*
X362743Y471865D01*
X363865Y473328D01*
X364570Y475031D01*
X364810Y476858D01*
Y516250D01*
X364570Y518077D01*
X363865Y519780D01*
X362743Y521242D01*
X346992Y536992D01*
X345530Y538115D01*
X343827Y538820D01*
X342000Y539060D01*
D02*
G37*
G36*
X310600Y494638D02*
X307924Y494286D01*
X305431Y493253D01*
X303290Y491610D01*
X303098Y491360D01*
X241550D01*
X239723Y491120D01*
X238020Y490415D01*
X236558Y489292D01*
X199326Y452060D01*
X151652D01*
X151460Y452310D01*
X149319Y453953D01*
X146826Y454986D01*
X144150Y455338D01*
X141474Y454986D01*
X138981Y453953D01*
X136840Y452310D01*
X135197Y450169D01*
X134164Y447676D01*
X133812Y445000D01*
X134164Y442324D01*
X135197Y439831D01*
X136840Y437690D01*
X138981Y436047D01*
X141474Y435014D01*
X144150Y434662D01*
X146826Y435014D01*
X149319Y436047D01*
X151460Y437690D01*
X151652Y437940D01*
X202250D01*
X204077Y438180D01*
X205780Y438885D01*
X207242Y440008D01*
X244475Y477240D01*
X303098D01*
X303290Y476990D01*
X305431Y475347D01*
X307924Y474314D01*
X310600Y473962D01*
X313276Y474314D01*
X315769Y475347D01*
X317910Y476990D01*
X319553Y479131D01*
X320586Y481624D01*
X320938Y484300D01*
X320586Y486976D01*
X319553Y489469D01*
X317910Y491610D01*
X315769Y493253D01*
X313276Y494286D01*
X310600Y494638D01*
D02*
G37*
G36*
X118750Y493438D02*
X116074Y493086D01*
X113581Y492053D01*
X111440Y490410D01*
X109797Y488269D01*
X108764Y485776D01*
X108412Y483100D01*
X108764Y480424D01*
X109797Y477931D01*
X111440Y475790D01*
X113581Y474147D01*
X116074Y473114D01*
X118750Y472762D01*
X121426Y473114D01*
X123919Y474147D01*
X126060Y475790D01*
X127703Y477931D01*
X128736Y480424D01*
X129088Y483100D01*
X128736Y485776D01*
X127703Y488269D01*
X126060Y490410D01*
X123919Y492053D01*
X121426Y493086D01*
X118750Y493438D01*
D02*
G37*
G36*
X144150Y480738D02*
X141474Y480386D01*
X138981Y479353D01*
X136840Y477710D01*
X135197Y475569D01*
X134164Y473076D01*
X133812Y470400D01*
X134164Y467724D01*
X135197Y465231D01*
X136840Y463090D01*
X138981Y461447D01*
X141474Y460414D01*
X144150Y460062D01*
X146826Y460414D01*
X149319Y461447D01*
X151460Y463090D01*
X153103Y465231D01*
X154136Y467724D01*
X154488Y470400D01*
X154136Y473076D01*
X153103Y475569D01*
X151460Y477710D01*
X149319Y479353D01*
X146826Y480386D01*
X144150Y480738D01*
D02*
G37*
G36*
X310600Y469238D02*
X307924Y468886D01*
X305431Y467853D01*
X303290Y466210D01*
X301647Y464069D01*
X300614Y461576D01*
X300262Y458900D01*
X300614Y456224D01*
X301647Y453731D01*
X303290Y451590D01*
X305431Y449947D01*
X307924Y448914D01*
X310600Y448562D01*
X313276Y448914D01*
X315769Y449947D01*
X317910Y451590D01*
X319553Y453731D01*
X320586Y456224D01*
X320938Y458900D01*
X320586Y461576D01*
X319553Y464069D01*
X317910Y466210D01*
X315769Y467853D01*
X313276Y468886D01*
X310600Y469238D01*
D02*
G37*
G36*
X336000Y456538D02*
X333324Y456186D01*
X330831Y455153D01*
X328690Y453510D01*
X327047Y451369D01*
X326014Y448876D01*
X325662Y446200D01*
X326014Y443524D01*
X327047Y441031D01*
X328690Y438890D01*
X330831Y437247D01*
X333324Y436214D01*
X336000Y435862D01*
X338676Y436214D01*
X341169Y437247D01*
X343310Y438890D01*
X344953Y441031D01*
X345986Y443524D01*
X346338Y446200D01*
X345986Y448876D01*
X344953Y451369D01*
X343310Y453510D01*
X341169Y455153D01*
X338676Y456186D01*
X336000Y456538D01*
D02*
G37*
G36*
X236750Y445900D02*
X216750D01*
Y425900D01*
X236750D01*
Y445900D01*
D02*
G37*
G36*
X310600Y443838D02*
X307924Y443486D01*
X305431Y442453D01*
X303290Y440810D01*
X301647Y438669D01*
X300614Y436176D01*
X300262Y433500D01*
X300614Y430824D01*
X301647Y428331D01*
X303290Y426190D01*
X305431Y424547D01*
X307924Y423514D01*
X310600Y423162D01*
X313276Y423514D01*
X315769Y424547D01*
X317910Y426190D01*
X319553Y428331D01*
X320586Y430824D01*
X320938Y433500D01*
X320586Y436176D01*
X319553Y438669D01*
X317910Y440810D01*
X315769Y442453D01*
X313276Y443486D01*
X310600Y443838D01*
D02*
G37*
G36*
X346250Y431050D02*
X325750D01*
Y410550D01*
X346250D01*
Y431050D01*
D02*
G37*
G36*
X226750Y420586D02*
X224139Y420243D01*
X221707Y419235D01*
X219618Y417632D01*
X218015Y415543D01*
X217007Y413111D01*
X216664Y410500D01*
X217007Y407890D01*
X218015Y405457D01*
X219618Y403368D01*
X221707Y401765D01*
X224139Y400757D01*
X226750Y400414D01*
X229361Y400757D01*
X231793Y401765D01*
X233882Y403368D01*
X235485Y405457D01*
X236493Y407890D01*
X236836Y410500D01*
X236493Y413111D01*
X235485Y415543D01*
X233882Y417632D01*
X231793Y419235D01*
X229361Y420243D01*
X226750Y420586D01*
D02*
G37*
G36*
X399500Y427192D02*
X395775Y426825D01*
X392194Y425739D01*
X388893Y423974D01*
X386000Y421600D01*
X383626Y418707D01*
X381861Y415406D01*
X380775Y411825D01*
X380408Y408100D01*
X380775Y404375D01*
X381861Y400794D01*
X383626Y397493D01*
X386000Y394600D01*
X388893Y392226D01*
X392194Y390461D01*
X395775Y389375D01*
X399500Y389008D01*
X403225Y389375D01*
X406806Y390461D01*
X410107Y392226D01*
X413000Y394600D01*
X415374Y397493D01*
X417139Y400794D01*
X418225Y404375D01*
X418592Y408100D01*
X418225Y411825D01*
X417139Y415406D01*
X415374Y418707D01*
X413000Y421600D01*
X410107Y423974D01*
X406806Y425739D01*
X403225Y426825D01*
X399500Y427192D01*
D02*
G37*
G36*
X55250Y425992D02*
X51525Y425625D01*
X47944Y424539D01*
X44643Y422774D01*
X41750Y420400D01*
X39376Y417507D01*
X37611Y414206D01*
X36525Y410625D01*
X36158Y406900D01*
X36525Y403175D01*
X37611Y399594D01*
X39376Y396293D01*
X41750Y393400D01*
X44643Y391026D01*
X47944Y389261D01*
X51525Y388175D01*
X55250Y387808D01*
X58975Y388175D01*
X62556Y389261D01*
X65857Y391026D01*
X68750Y393400D01*
X71124Y396293D01*
X72889Y399594D01*
X73975Y403175D01*
X74342Y406900D01*
X73975Y410625D01*
X72889Y414206D01*
X71124Y417507D01*
X68750Y420400D01*
X65857Y422774D01*
X62556Y424539D01*
X58975Y425625D01*
X55250Y425992D01*
D02*
G37*
G36*
X226750Y395186D02*
X224139Y394843D01*
X221707Y393835D01*
X219618Y392232D01*
X218015Y390143D01*
X217007Y387710D01*
X216664Y385100D01*
X217007Y382490D01*
X218015Y380057D01*
X219618Y377968D01*
X221707Y376365D01*
X224139Y375357D01*
X226750Y375014D01*
X229361Y375357D01*
X231793Y376365D01*
X233882Y377968D01*
X235485Y380057D01*
X236493Y382490D01*
X236836Y385100D01*
X236493Y387710D01*
X235485Y390143D01*
X233882Y392232D01*
X231793Y393835D01*
X229361Y394843D01*
X226750Y395186D01*
D02*
G37*
G36*
X430000Y403325D02*
X426962Y403026D01*
X424040Y402139D01*
X421347Y400700D01*
X418987Y398763D01*
X417050Y396403D01*
X415611Y393710D01*
X414724Y390788D01*
X414425Y387750D01*
X414724Y384711D01*
X415611Y381790D01*
X417050Y379097D01*
X418987Y376737D01*
X421347Y374800D01*
X424040Y373361D01*
X426962Y372474D01*
X430000Y372175D01*
X433038Y372474D01*
X435960Y373361D01*
X438653Y374800D01*
X441013Y376737D01*
X442950Y379097D01*
X444389Y381790D01*
X445276Y384711D01*
X445575Y387750D01*
X445276Y390788D01*
X444389Y393710D01*
X442950Y396403D01*
X441013Y398763D01*
X438653Y400700D01*
X435960Y402139D01*
X433038Y403026D01*
X430000Y403325D01*
D02*
G37*
G36*
X24750Y402125D02*
X21711Y401826D01*
X18790Y400939D01*
X16097Y399500D01*
X13737Y397563D01*
X11800Y395203D01*
X10361Y392510D01*
X9474Y389589D01*
X9175Y386550D01*
X9474Y383512D01*
X10361Y380590D01*
X11800Y377897D01*
X13737Y375537D01*
X16097Y373600D01*
X18790Y372161D01*
X21711Y371274D01*
X24750Y370975D01*
X27789Y371274D01*
X30710Y372161D01*
X33403Y373600D01*
X35763Y375537D01*
X37700Y377897D01*
X39139Y380590D01*
X40026Y383512D01*
X40325Y386550D01*
X40026Y389589D01*
X39139Y392510D01*
X37700Y395203D01*
X35763Y397563D01*
X33403Y399500D01*
X30710Y400939D01*
X27789Y401826D01*
X24750Y402125D01*
D02*
G37*
G36*
X405770Y352274D02*
Y331020D01*
X427024D01*
X426714Y334169D01*
X425425Y338417D01*
X423332Y342333D01*
X420515Y345765D01*
X417083Y348582D01*
X413167Y350675D01*
X408919Y351964D01*
X405770Y352274D01*
D02*
G37*
G36*
X403230D02*
X400081Y351964D01*
X395833Y350675D01*
X391917Y348582D01*
X388485Y345765D01*
X385668Y342333D01*
X383575Y338417D01*
X382286Y334169D01*
X381976Y331020D01*
X403230D01*
Y352274D01*
D02*
G37*
G36*
X35770D02*
Y331020D01*
X57024D01*
X56714Y334169D01*
X55425Y338417D01*
X53332Y342333D01*
X50515Y345765D01*
X47083Y348582D01*
X43167Y350675D01*
X38919Y351964D01*
X35770Y352274D01*
D02*
G37*
G36*
X33230D02*
X30081Y351964D01*
X25833Y350675D01*
X21917Y348582D01*
X18485Y345765D01*
X15668Y342333D01*
X13575Y338417D01*
X12286Y334169D01*
X11976Y331020D01*
X33230D01*
Y352274D01*
D02*
G37*
G36*
X199000Y342868D02*
X196659Y342402D01*
X194674Y341076D01*
X193348Y339091D01*
X192882Y336750D01*
X193348Y334409D01*
X194674Y332424D01*
X196659Y331098D01*
X199000Y330633D01*
X201341Y331098D01*
X203326Y332424D01*
X204652Y334409D01*
X205117Y336750D01*
X204652Y339091D01*
X203326Y341076D01*
X201341Y342402D01*
X199000Y342868D01*
D02*
G37*
G36*
X354000Y332950D02*
X334000D01*
Y312950D01*
X354000D01*
Y332950D01*
D02*
G37*
G36*
X427024Y328480D02*
X405770D01*
Y307226D01*
X408919Y307536D01*
X413167Y308825D01*
X417083Y310918D01*
X420515Y313735D01*
X423332Y317167D01*
X425425Y321083D01*
X426714Y325331D01*
X427024Y328480D01*
D02*
G37*
G36*
X403230D02*
X381976D01*
X382286Y325331D01*
X383575Y321083D01*
X385668Y317167D01*
X388485Y313735D01*
X391917Y310918D01*
X395833Y308825D01*
X400081Y307536D01*
X403230Y307226D01*
Y328480D01*
D02*
G37*
G36*
X57024D02*
X35770D01*
Y307226D01*
X38919Y307536D01*
X43167Y308825D01*
X47083Y310918D01*
X50515Y313735D01*
X53332Y317167D01*
X55425Y321083D01*
X56714Y325331D01*
X57024Y328480D01*
D02*
G37*
G36*
X33230D02*
X11976D01*
X12286Y325331D01*
X13575Y321083D01*
X15668Y317167D01*
X18485Y313735D01*
X21917Y310918D01*
X25833Y308825D01*
X30081Y307536D01*
X33230Y307226D01*
Y328480D01*
D02*
G37*
G36*
X345270Y308014D02*
Y298820D01*
X354464D01*
X354269Y300301D01*
X353207Y302866D01*
X351517Y305067D01*
X349315Y306757D01*
X346752Y307819D01*
X345270Y308014D01*
D02*
G37*
G36*
X342730Y308014D02*
X341249Y307819D01*
X338685Y306757D01*
X336483Y305067D01*
X334793Y302866D01*
X333731Y300301D01*
X333536Y298820D01*
X342730D01*
Y308014D01*
D02*
G37*
G36*
Y296280D02*
X333536D01*
X333731Y294799D01*
X334793Y292234D01*
X336483Y290033D01*
X338685Y288343D01*
X341249Y287281D01*
X342730Y287086D01*
Y296280D01*
D02*
G37*
G36*
X354464D02*
X345270D01*
Y287086D01*
X346752Y287281D01*
X349315Y288343D01*
X351517Y290033D01*
X353207Y292234D01*
X354269Y294799D01*
X354464Y296280D01*
D02*
G37*
G36*
X144150Y429938D02*
X141474Y429586D01*
X138981Y428553D01*
X136840Y426910D01*
X135197Y424769D01*
X134164Y422276D01*
X133812Y419600D01*
X134164Y416924D01*
X135197Y414431D01*
X136840Y412290D01*
X137090Y412098D01*
Y398574D01*
X134008Y395493D01*
X132886Y394030D01*
X132180Y392327D01*
X131940Y390500D01*
Y138500D01*
X132180Y136673D01*
X132886Y134970D01*
X134008Y133508D01*
X214568Y52948D01*
X216030Y51826D01*
X217733Y51120D01*
X219360Y50906D01*
Y48060D01*
X236240D01*
Y64940D01*
X226819D01*
X226360Y65000D01*
X222484D01*
X146060Y141425D01*
Y175605D01*
X147330Y176153D01*
X148909Y175098D01*
X150840Y174714D01*
X151198Y173426D01*
X150674Y173076D01*
X149348Y171091D01*
X148883Y168750D01*
X149348Y166409D01*
X150674Y164424D01*
X152659Y163098D01*
X155000Y162633D01*
X157341Y163098D01*
X159326Y164424D01*
X160652Y166409D01*
X161117Y168750D01*
X160652Y171091D01*
X159326Y173076D01*
X157341Y174402D01*
X155410Y174786D01*
X155052Y176074D01*
X155576Y176424D01*
X156238Y177416D01*
X161000D01*
X162276Y177670D01*
X163358Y178393D01*
X183503Y198538D01*
X206145Y175895D01*
X207799Y174790D01*
X209750Y174402D01*
X291106D01*
X291856Y173901D01*
X294197Y173436D01*
X296538Y173901D01*
X298522Y175228D01*
X299849Y177212D01*
X300314Y179553D01*
X299849Y181894D01*
X298522Y183879D01*
X296538Y185205D01*
X294197Y185671D01*
X291856Y185205D01*
X290947Y184598D01*
X240967D01*
X240481Y185771D01*
X286232Y231522D01*
X307870D01*
X309821Y231910D01*
X311475Y233015D01*
X369862Y291402D01*
X379466D01*
X379719Y290132D01*
X378248Y289523D01*
X376239Y287981D01*
X374697Y285972D01*
X373728Y283631D01*
X373397Y281120D01*
Y265880D01*
X373728Y263369D01*
X374697Y261028D01*
X376040Y259279D01*
Y138525D01*
X302305Y64790D01*
X301797Y64723D01*
X299744Y63872D01*
X297980Y62519D01*
X296628Y60756D01*
X295777Y58703D01*
X295487Y56500D01*
X295777Y54297D01*
X296628Y52244D01*
X297440Y51185D01*
Y33925D01*
X289076Y25560D01*
X170028D01*
X163316Y32272D01*
X163256Y32730D01*
X162298Y35041D01*
X160775Y37025D01*
X158791Y38548D01*
X156480Y39506D01*
X154000Y39832D01*
X151520Y39506D01*
X149209Y38548D01*
X147225Y37025D01*
X145702Y35041D01*
X144745Y32730D01*
X144418Y30250D01*
X144745Y27770D01*
X145702Y25459D01*
X147225Y23475D01*
X149209Y21952D01*
X151520Y20995D01*
X154000Y20668D01*
X154839Y20779D01*
X162111Y13507D01*
X163573Y12385D01*
X165276Y11680D01*
X167103Y11440D01*
X292000D01*
X293827Y11680D01*
X295530Y12385D01*
X296992Y13507D01*
X309492Y26007D01*
X310614Y27470D01*
X311320Y29173D01*
X311560Y31000D01*
Y52698D01*
X312223Y54297D01*
X312290Y54805D01*
X388092Y130608D01*
X389215Y132070D01*
X389920Y133773D01*
X390160Y135600D01*
Y259279D01*
X391503Y261028D01*
X392472Y263369D01*
X392803Y265880D01*
Y281120D01*
X392472Y283631D01*
X391503Y285972D01*
X389961Y287981D01*
X387952Y289523D01*
X386481Y290132D01*
X386734Y291402D01*
X398638D01*
X401634Y288407D01*
Y287975D01*
X400097Y285972D01*
X399128Y283631D01*
X398797Y281120D01*
Y265880D01*
X399128Y263369D01*
X400097Y261028D01*
X401639Y259019D01*
X403648Y257477D01*
X405989Y256508D01*
X408500Y256177D01*
X411011Y256508D01*
X413352Y257477D01*
X415361Y259019D01*
X416903Y261028D01*
X417872Y263369D01*
X418203Y265880D01*
Y281120D01*
X417872Y283631D01*
X416903Y285972D01*
X415361Y287981D01*
X413352Y289523D01*
X411830Y290153D01*
Y290518D01*
X411442Y292469D01*
X410337Y294123D01*
X404355Y300105D01*
X402701Y301210D01*
X400750Y301598D01*
X367750D01*
X365799Y301210D01*
X364145Y300105D01*
X305758Y241718D01*
X284120D01*
X282169Y241330D01*
X280515Y240225D01*
X224888Y184598D01*
X211862D01*
X189848Y206612D01*
Y290138D01*
X227862Y328152D01*
X232299D01*
X232878Y326882D01*
X231848Y325341D01*
X231383Y323000D01*
X231848Y320659D01*
X233174Y318674D01*
X235159Y317348D01*
X237500Y316882D01*
X239336Y317248D01*
X240451Y316345D01*
X240382Y316000D01*
X240615Y314830D01*
X219403Y293619D01*
X218681Y292537D01*
X218427Y291261D01*
Y250387D01*
X217157Y249709D01*
X216101Y250414D01*
X213760Y250879D01*
X211419Y250414D01*
X209435Y249088D01*
X208109Y247103D01*
X207643Y244762D01*
X208109Y242421D01*
X209435Y240436D01*
X211419Y239110D01*
X213760Y238644D01*
X216101Y239110D01*
X217157Y239815D01*
X218427Y239137D01*
Y236754D01*
X217435Y236091D01*
X216109Y234106D01*
X215644Y231765D01*
X216109Y229424D01*
X217435Y227439D01*
X219420Y226113D01*
X221761Y225648D01*
X224102Y226113D01*
X226087Y227439D01*
X227413Y229424D01*
X227879Y231765D01*
X227413Y234106D01*
X226087Y236091D01*
X225095Y236754D01*
Y289880D01*
X245330Y310115D01*
X246500Y309883D01*
X248841Y310348D01*
X250826Y311674D01*
X252152Y313659D01*
X252618Y316000D01*
X252152Y318341D01*
X250826Y320326D01*
X248841Y321652D01*
X246500Y322118D01*
X244664Y321752D01*
X243549Y322655D01*
X243617Y323000D01*
X243152Y325341D01*
X242122Y326882D01*
X242701Y328152D01*
X281711D01*
X282310Y327032D01*
X281848Y326341D01*
X281383Y324000D01*
X281848Y321659D01*
X283174Y319674D01*
X285159Y318348D01*
X285918Y318197D01*
Y316902D01*
X284659Y316652D01*
X282674Y315326D01*
X281348Y313341D01*
X280882Y311000D01*
X281348Y308659D01*
X282674Y306674D01*
X284659Y305348D01*
X287000Y304883D01*
X289341Y305348D01*
X291326Y306674D01*
X292652Y308659D01*
X293118Y311000D01*
X292652Y313341D01*
X291326Y315326D01*
X289341Y316652D01*
X288582Y316803D01*
Y318098D01*
X289841Y318348D01*
X291826Y319674D01*
X293152Y321659D01*
X293617Y324000D01*
X293152Y326341D01*
X292690Y327032D01*
X293289Y328152D01*
X296108D01*
X296636Y327624D01*
Y289154D01*
X296082Y288325D01*
X295617Y285984D01*
X296082Y283643D01*
X297409Y281659D01*
X299393Y280333D01*
X301734Y279867D01*
X304075Y280333D01*
X306060Y281659D01*
X307386Y283643D01*
X307852Y285984D01*
X307386Y288325D01*
X306832Y289154D01*
Y329735D01*
X306444Y331686D01*
X305339Y333340D01*
X301824Y336855D01*
X300170Y337960D01*
X298220Y338348D01*
X225750D01*
X223799Y337960D01*
X222145Y336855D01*
X181145Y295855D01*
X163395Y278105D01*
X162290Y276451D01*
X161902Y274500D01*
Y254920D01*
X161348Y254091D01*
X160882Y251750D01*
X161348Y249409D01*
X162674Y247424D01*
X164659Y246098D01*
X167000Y245632D01*
X169341Y246098D01*
X171326Y247424D01*
X172652Y249409D01*
X173118Y251750D01*
X172652Y254091D01*
X172098Y254920D01*
Y272388D01*
X178479Y278769D01*
X179652Y278283D01*
Y204500D01*
X179716Y204181D01*
X159619Y184084D01*
X156238D01*
X155576Y185076D01*
X153591Y186402D01*
X151250Y186868D01*
X148909Y186402D01*
X147330Y185347D01*
X146060Y185895D01*
Y387575D01*
X149142Y390658D01*
X150265Y392120D01*
X150970Y393823D01*
X151210Y395650D01*
Y412098D01*
X151460Y412290D01*
X153103Y414431D01*
X154136Y416924D01*
X154488Y419600D01*
X154136Y422276D01*
X153103Y424769D01*
X151460Y426910D01*
X149319Y428553D01*
X146826Y429586D01*
X144150Y429938D01*
D02*
G37*
G36*
X267500Y287868D02*
X265159Y287402D01*
X263174Y286076D01*
X261848Y284091D01*
X261383Y281750D01*
X261848Y279409D01*
X263174Y277424D01*
X265159Y276098D01*
X267500Y275632D01*
X269841Y276098D01*
X271826Y277424D01*
X273152Y279409D01*
X273617Y281750D01*
X273152Y284091D01*
X271826Y286076D01*
X269841Y287402D01*
X267500Y287868D01*
D02*
G37*
G36*
X444060Y291280D02*
X435170D01*
Y274770D01*
X444060D01*
Y291280D01*
D02*
G37*
G36*
X432630D02*
X423740D01*
Y274770D01*
X432630D01*
Y291280D01*
D02*
G37*
G36*
X444060Y272230D02*
X435170D01*
Y255720D01*
X444060D01*
Y272230D01*
D02*
G37*
G36*
X432630D02*
X423740D01*
Y255720D01*
X432630D01*
Y272230D01*
D02*
G37*
G36*
X257500Y257118D02*
X255159Y256652D01*
X253174Y255326D01*
X251848Y253341D01*
X251801Y253104D01*
X250465Y252899D01*
X248591Y254152D01*
X246250Y254618D01*
X243909Y254152D01*
X241924Y252826D01*
X240598Y250841D01*
X240329Y249487D01*
X239587Y249243D01*
X238967Y249149D01*
X237091Y250402D01*
X234750Y250868D01*
X232409Y250402D01*
X230424Y249076D01*
X229098Y247091D01*
X228633Y244750D01*
X229098Y242409D01*
X230424Y240424D01*
X232409Y239098D01*
X234750Y238633D01*
X237091Y239098D01*
X239076Y240424D01*
X240402Y242409D01*
X240671Y243764D01*
X241413Y244007D01*
X242033Y244101D01*
X243909Y242848D01*
X246250Y242383D01*
X248591Y242848D01*
X250576Y244174D01*
X251902Y246159D01*
X251949Y246396D01*
X253285Y246600D01*
X255159Y245348D01*
X257500Y244883D01*
X259841Y245348D01*
X261826Y246674D01*
X263152Y248659D01*
X263618Y251000D01*
X263152Y253341D01*
X261826Y255326D01*
X259841Y256652D01*
X257500Y257118D01*
D02*
G37*
G36*
X344000Y256836D02*
X341390Y256493D01*
X338957Y255485D01*
X336868Y253882D01*
X335265Y251793D01*
X334257Y249361D01*
X333914Y246750D01*
X334257Y244139D01*
X335265Y241707D01*
X336868Y239618D01*
X338957Y238015D01*
X341390Y237007D01*
X344000Y236664D01*
X346610Y237007D01*
X349043Y238015D01*
X351132Y239618D01*
X352735Y241707D01*
X353743Y244139D01*
X354086Y246750D01*
X353743Y249361D01*
X352735Y251793D01*
X351132Y253882D01*
X349043Y255485D01*
X346610Y256493D01*
X344000Y256836D01*
D02*
G37*
G36*
X258500Y242118D02*
X256159Y241652D01*
X254174Y240326D01*
X252848Y238341D01*
X252383Y236000D01*
X252848Y233659D01*
X254174Y231674D01*
X256159Y230348D01*
X258500Y229883D01*
X260841Y230348D01*
X262826Y231674D01*
X264152Y233659D01*
X264618Y236000D01*
X264152Y238341D01*
X262826Y240326D01*
X260841Y241652D01*
X258500Y242118D01*
D02*
G37*
G36*
X203250Y240618D02*
X200909Y240152D01*
X198924Y238826D01*
X197598Y236841D01*
X197132Y234500D01*
X197598Y232159D01*
X198924Y230174D01*
X200909Y228848D01*
X203250Y228382D01*
X205591Y228848D01*
X207576Y230174D01*
X208902Y232159D01*
X209368Y234500D01*
X208902Y236841D01*
X207576Y238826D01*
X205591Y240152D01*
X203250Y240618D01*
D02*
G37*
G36*
X290500Y228867D02*
X288159Y228402D01*
X286174Y227076D01*
X284848Y225091D01*
X284382Y222750D01*
X284848Y220409D01*
X286174Y218424D01*
X288159Y217098D01*
X290500Y216632D01*
X292841Y217098D01*
X294826Y218424D01*
X296152Y220409D01*
X296618Y222750D01*
X296152Y225091D01*
X294826Y227076D01*
X292841Y228402D01*
X290500Y228867D01*
D02*
G37*
G36*
X344000Y231436D02*
X341390Y231093D01*
X338957Y230085D01*
X336868Y228482D01*
X335265Y226393D01*
X334257Y223960D01*
X333914Y221350D01*
X334257Y218739D01*
X335265Y216307D01*
X336868Y214218D01*
X338957Y212615D01*
X341390Y211607D01*
X344000Y211264D01*
X346610Y211607D01*
X349043Y212615D01*
X351132Y214218D01*
X352735Y216307D01*
X353743Y218739D01*
X354086Y221350D01*
X353743Y223960D01*
X352735Y226393D01*
X351132Y228482D01*
X349043Y230085D01*
X346610Y231093D01*
X344000Y231436D01*
D02*
G37*
G36*
X303875Y221618D02*
X301534Y221152D01*
X299549Y219826D01*
X298223Y217841D01*
X297757Y215500D01*
X298223Y213159D01*
X299549Y211174D01*
X301534Y209848D01*
X303875Y209382D01*
X306058Y209817D01*
X306462Y209465D01*
X306897Y208787D01*
X306098Y207591D01*
X305632Y205250D01*
X306098Y202909D01*
X307424Y200924D01*
X309409Y199598D01*
X311750Y199132D01*
X314091Y199598D01*
X316076Y200924D01*
X317402Y202909D01*
X317868Y205250D01*
X317402Y207591D01*
X316076Y209576D01*
X314091Y210902D01*
X311750Y211367D01*
X309567Y210933D01*
X309163Y211285D01*
X308728Y211963D01*
X309527Y213159D01*
X309993Y215500D01*
X309527Y217841D01*
X308201Y219826D01*
X306216Y221152D01*
X303875Y221618D01*
D02*
G37*
G36*
X305250Y198118D02*
X302909Y197652D01*
X300924Y196326D01*
X299598Y194341D01*
X299132Y192000D01*
X299598Y189659D01*
X300924Y187674D01*
X302909Y186348D01*
X305250Y185882D01*
X307591Y186348D01*
X309576Y187674D01*
X310902Y189659D01*
X311368Y192000D01*
X310902Y194341D01*
X309576Y196326D01*
X307591Y197652D01*
X305250Y198118D01*
D02*
G37*
G36*
X344000Y206036D02*
X341390Y205693D01*
X338957Y204685D01*
X336868Y203082D01*
X335265Y200993D01*
X334257Y198561D01*
X333914Y195950D01*
X334257Y193340D01*
X335265Y190907D01*
X336868Y188818D01*
X338957Y187215D01*
X341390Y186207D01*
X344000Y185864D01*
X346610Y186207D01*
X349043Y187215D01*
X351132Y188818D01*
X352735Y190907D01*
X353743Y193340D01*
X354086Y195950D01*
X353743Y198561D01*
X352735Y200993D01*
X351132Y203082D01*
X349043Y204685D01*
X346610Y205693D01*
X344000Y206036D01*
D02*
G37*
G36*
X106500Y200400D02*
X87500D01*
Y181400D01*
X106500D01*
Y200400D01*
D02*
G37*
G36*
X41770Y176299D02*
Y168770D01*
X49300D01*
X49161Y169821D01*
X48265Y171983D01*
X46840Y173840D01*
X44983Y175265D01*
X42821Y176161D01*
X41770Y176299D01*
D02*
G37*
G36*
X39230D02*
X38179Y176161D01*
X36017Y175265D01*
X34160Y173840D01*
X32735Y171983D01*
X31839Y169821D01*
X31700Y168770D01*
X39230D01*
Y176299D01*
D02*
G37*
G36*
X344000Y180636D02*
X341390Y180293D01*
X338957Y179285D01*
X336868Y177682D01*
X335265Y175593D01*
X334257Y173160D01*
X333914Y170550D01*
X334257Y167939D01*
X334446Y167484D01*
X279624Y112662D01*
X273324D01*
X272591Y113152D01*
X270250Y113618D01*
X267909Y113152D01*
X265924Y111826D01*
X264598Y109841D01*
X264132Y107500D01*
X264598Y105159D01*
X265924Y103174D01*
X267909Y101848D01*
X270250Y101383D01*
X272591Y101848D01*
X274576Y103174D01*
X274784Y103486D01*
X281524D01*
X283280Y103835D01*
X284768Y104830D01*
X291270Y111332D01*
X292648Y110914D01*
X292848Y109909D01*
X294174Y107924D01*
X296159Y106598D01*
X298500Y106132D01*
X300841Y106598D01*
X302826Y107924D01*
X304152Y109909D01*
X304618Y112250D01*
X304152Y114591D01*
X302826Y116576D01*
X300841Y117902D01*
X299836Y118102D01*
X299418Y119480D01*
X340934Y160996D01*
X341390Y160807D01*
X344000Y160464D01*
X346610Y160807D01*
X349043Y161815D01*
X351132Y163418D01*
X352735Y165507D01*
X353743Y167939D01*
X354086Y170550D01*
X353743Y173160D01*
X352735Y175593D01*
X351132Y177682D01*
X349043Y179285D01*
X346610Y180293D01*
X344000Y180636D01*
D02*
G37*
G36*
X49300Y166230D02*
X41770D01*
Y158701D01*
X42821Y158839D01*
X44983Y159735D01*
X46840Y161160D01*
X48265Y163017D01*
X49161Y165179D01*
X49300Y166230D01*
D02*
G37*
G36*
X39230D02*
X31700D01*
X31839Y165179D01*
X32735Y163017D01*
X34160Y161160D01*
X36017Y159735D01*
X38179Y158839D01*
X39230Y158701D01*
Y166230D01*
D02*
G37*
G36*
X97000Y175082D02*
X94520Y174755D01*
X92209Y173798D01*
X90225Y172275D01*
X88702Y170291D01*
X87745Y167980D01*
X87418Y165500D01*
X87745Y163020D01*
X88702Y160709D01*
X90225Y158724D01*
X92209Y157202D01*
X94520Y156244D01*
X97000Y155918D01*
X99480Y156244D01*
X101791Y157202D01*
X103776Y158724D01*
X105298Y160709D01*
X106256Y163020D01*
X106582Y165500D01*
X106256Y167980D01*
X105298Y170291D01*
X103776Y172275D01*
X101791Y173798D01*
X99480Y174755D01*
X97000Y175082D01*
D02*
G37*
G36*
X154500Y161367D02*
X152159Y160902D01*
X150174Y159576D01*
X148848Y157591D01*
X148383Y155250D01*
X148848Y152909D01*
X150174Y150924D01*
X152159Y149598D01*
X154500Y149132D01*
X156841Y149598D01*
X158826Y150924D01*
X160152Y152909D01*
X160618Y155250D01*
X160152Y157591D01*
X158826Y159576D01*
X156841Y160902D01*
X154500Y161367D01*
D02*
G37*
G36*
X98270Y150059D02*
Y141370D01*
X106959D01*
X106782Y142721D01*
X105770Y145163D01*
X104161Y147261D01*
X102063Y148870D01*
X99621Y149882D01*
X98270Y150059D01*
D02*
G37*
G36*
X95730D02*
X94379Y149882D01*
X91937Y148870D01*
X89839Y147261D01*
X88230Y145163D01*
X87218Y142721D01*
X87041Y141370D01*
X95730D01*
Y150059D01*
D02*
G37*
G36*
X301750Y153118D02*
X299409Y152652D01*
X297424Y151326D01*
X296098Y149341D01*
X295632Y147000D01*
X296098Y144659D01*
X297424Y142674D01*
X299409Y141348D01*
X301750Y140883D01*
X304091Y141348D01*
X306076Y142674D01*
X307402Y144659D01*
X307868Y147000D01*
X307402Y149341D01*
X306076Y151326D01*
X304091Y152652D01*
X301750Y153118D01*
D02*
G37*
G36*
X95730Y138830D02*
X87041D01*
X87218Y137479D01*
X88230Y135037D01*
X89839Y132939D01*
X91937Y131330D01*
X94379Y130318D01*
X95730Y130141D01*
Y138830D01*
D02*
G37*
G36*
X106959D02*
X98270D01*
Y130141D01*
X99621Y130318D01*
X102063Y131330D01*
X104161Y132939D01*
X105770Y135037D01*
X106782Y137479D01*
X106959Y138830D01*
D02*
G37*
G36*
X97000Y124282D02*
X94520Y123955D01*
X92209Y122998D01*
X90225Y121475D01*
X88702Y119491D01*
X87745Y117180D01*
X87418Y114700D01*
X87745Y112220D01*
X88702Y109909D01*
X90225Y107924D01*
X92209Y106402D01*
X94520Y105444D01*
X97000Y105118D01*
X99480Y105444D01*
X101791Y106402D01*
X103776Y107924D01*
X105298Y109909D01*
X106256Y112220D01*
X106582Y114700D01*
X106256Y117180D01*
X105298Y119491D01*
X103776Y121475D01*
X101791Y122998D01*
X99480Y123955D01*
X97000Y124282D01*
D02*
G37*
G36*
Y98882D02*
X94520Y98555D01*
X92209Y97598D01*
X90225Y96075D01*
X88702Y94091D01*
X87745Y91780D01*
X87418Y89300D01*
X87745Y86820D01*
X88702Y84509D01*
X90225Y82524D01*
X92209Y81002D01*
X94520Y80044D01*
X97000Y79718D01*
X99480Y80044D01*
X101791Y81002D01*
X103776Y82524D01*
X105298Y84509D01*
X106256Y86820D01*
X106582Y89300D01*
X106256Y91780D01*
X105298Y94091D01*
X103776Y96075D01*
X101791Y97598D01*
X99480Y98555D01*
X97000Y98882D01*
D02*
G37*
G36*
X408500Y108961D02*
X404996Y108616D01*
X401626Y107594D01*
X398521Y105934D01*
X395799Y103701D01*
X393566Y100979D01*
X391906Y97874D01*
X390884Y94504D01*
X390538Y91000D01*
X390884Y87496D01*
X391906Y84126D01*
X393566Y81021D01*
X395799Y78299D01*
X398521Y76066D01*
X401626Y74406D01*
X404996Y73384D01*
X408500Y73039D01*
X412004Y73384D01*
X415374Y74406D01*
X418479Y76066D01*
X421201Y78299D01*
X423434Y81021D01*
X425094Y84126D01*
X426116Y87496D01*
X426461Y91000D01*
X426116Y94504D01*
X425094Y97874D01*
X423434Y100979D01*
X421201Y103701D01*
X418479Y105934D01*
X415374Y107594D01*
X412004Y108616D01*
X408500Y108961D01*
D02*
G37*
G36*
X279870Y65390D02*
Y57770D01*
X287490D01*
X287349Y58844D01*
X286444Y61029D01*
X285005Y62905D01*
X283129Y64344D01*
X280944Y65249D01*
X279870Y65390D01*
D02*
G37*
G36*
X277330D02*
X276256Y65249D01*
X274071Y64344D01*
X272195Y62905D01*
X270756Y61029D01*
X269851Y58844D01*
X269710Y57770D01*
X277330D01*
Y65390D01*
D02*
G37*
G36*
X287490Y55230D02*
X279870D01*
Y47610D01*
X280944Y47751D01*
X283129Y48656D01*
X285005Y50095D01*
X286444Y51971D01*
X287349Y54156D01*
X287490Y55230D01*
D02*
G37*
G36*
X277330D02*
X269710D01*
X269851Y54156D01*
X270756Y51971D01*
X272195Y50095D01*
X274071Y48656D01*
X276256Y47751D01*
X277330Y47610D01*
Y55230D01*
D02*
G37*
G36*
X118750Y442638D02*
X116074Y442286D01*
X113581Y441253D01*
X111440Y439610D01*
X109797Y437469D01*
X108764Y434976D01*
X108412Y432300D01*
X108764Y429624D01*
X109797Y427131D01*
X111440Y424990D01*
X111690Y424798D01*
Y129500D01*
X111930Y127673D01*
X112635Y125970D01*
X113758Y124508D01*
X203758Y34508D01*
X205220Y33386D01*
X206923Y32680D01*
X208750Y32440D01*
X242342D01*
X244170Y32680D01*
X245872Y33386D01*
X247335Y34508D01*
X257641Y44814D01*
X258763Y46277D01*
X259469Y47979D01*
X259709Y49807D01*
Y51119D01*
X260572Y52244D01*
X261423Y54297D01*
X261713Y56500D01*
X261423Y58703D01*
X260572Y60756D01*
X259219Y62519D01*
X257456Y63872D01*
X255403Y64723D01*
X253200Y65013D01*
X250997Y64723D01*
X248944Y63872D01*
X247181Y62519D01*
X245828Y60756D01*
X244977Y58703D01*
X244687Y56500D01*
X244977Y54297D01*
X245589Y52821D01*
Y52731D01*
X239418Y46560D01*
X211674D01*
X125810Y132424D01*
Y424798D01*
X126060Y424990D01*
X127703Y427131D01*
X128736Y429624D01*
X129088Y432300D01*
X128736Y434976D01*
X127703Y437469D01*
X126060Y439610D01*
X123919Y441253D01*
X121426Y442286D01*
X118750Y442638D01*
D02*
G37*
G36*
X129870Y40209D02*
Y31520D01*
X138559D01*
X138382Y32871D01*
X137370Y35313D01*
X135761Y37411D01*
X133663Y39020D01*
X131221Y40032D01*
X129870Y40209D01*
D02*
G37*
G36*
X127330D02*
X125979Y40032D01*
X123537Y39020D01*
X121439Y37411D01*
X119830Y35313D01*
X118818Y32871D01*
X118641Y31520D01*
X127330D01*
Y40209D01*
D02*
G37*
G36*
X405770Y52274D02*
Y31020D01*
X427024D01*
X426714Y34169D01*
X425425Y38417D01*
X423332Y42333D01*
X420515Y45765D01*
X417083Y48582D01*
X413167Y50675D01*
X408919Y51964D01*
X405770Y52274D01*
D02*
G37*
G36*
X403230D02*
X400081Y51964D01*
X395833Y50675D01*
X391917Y48582D01*
X388485Y45765D01*
X385668Y42333D01*
X383575Y38417D01*
X382286Y34169D01*
X381976Y31020D01*
X403230D01*
Y52274D01*
D02*
G37*
G36*
X35770D02*
Y31020D01*
X57024D01*
X56714Y34169D01*
X55425Y38417D01*
X53332Y42333D01*
X50515Y45765D01*
X47083Y48582D01*
X43167Y50675D01*
X38919Y51964D01*
X35770Y52274D01*
D02*
G37*
G36*
X33230D02*
X30081Y51964D01*
X25833Y50675D01*
X21917Y48582D01*
X18485Y45765D01*
X15668Y42333D01*
X13575Y38417D01*
X12286Y34169D01*
X11976Y31020D01*
X33230D01*
Y52274D01*
D02*
G37*
G36*
X112700Y39750D02*
X93700D01*
Y20750D01*
X112700D01*
Y39750D01*
D02*
G37*
G36*
X138559Y28980D02*
X129870D01*
Y20291D01*
X131221Y20468D01*
X133663Y21480D01*
X135761Y23089D01*
X137370Y25187D01*
X138382Y27629D01*
X138559Y28980D01*
D02*
G37*
G36*
X127330D02*
X118641D01*
X118818Y27629D01*
X119830Y25187D01*
X121439Y23089D01*
X123537Y21480D01*
X125979Y20468D01*
X127330Y20291D01*
Y28980D01*
D02*
G37*
G36*
X427024Y28480D02*
X405770D01*
Y7226D01*
X408919Y7536D01*
X413167Y8825D01*
X417083Y10918D01*
X420515Y13735D01*
X423332Y17167D01*
X425425Y21083D01*
X426714Y25331D01*
X427024Y28480D01*
D02*
G37*
G36*
X403230D02*
X381976D01*
X382286Y25331D01*
X383575Y21083D01*
X385668Y17167D01*
X388485Y13735D01*
X391917Y10918D01*
X395833Y8825D01*
X400081Y7536D01*
X403230Y7226D01*
Y28480D01*
D02*
G37*
G36*
X57024D02*
X35770D01*
Y7226D01*
X38919Y7536D01*
X43167Y8825D01*
X47083Y10918D01*
X50515Y13735D01*
X53332Y17167D01*
X55425Y21083D01*
X56714Y25331D01*
X57024Y28480D01*
D02*
G37*
G36*
X33230D02*
X11976D01*
X12286Y25331D01*
X13575Y21083D01*
X15668Y17167D01*
X18485Y13735D01*
X21917Y10918D01*
X25833Y8825D01*
X30081Y7536D01*
X33230Y7226D01*
Y28480D01*
D02*
G37*
%LPD*%
D15*
X221761Y231765D02*
Y291261D01*
X246500Y316000D01*
X161000Y180750D02*
X184750Y204500D01*
X151250Y180750D02*
X161000D01*
X92300Y186200D02*
X97000Y190900D01*
D55*
X383100Y135600D02*
Y273500D01*
X304000Y56500D02*
X383100Y135600D01*
X154000Y30250D02*
X155353D01*
X167103Y18500D01*
X292000D01*
X304500Y31000D01*
X304000Y56500D02*
X304500Y56000D01*
Y31000D02*
Y56000D01*
X139000Y138500D02*
X219560Y57940D01*
X139000Y138500D02*
Y390500D01*
X144150Y395650D01*
Y419600D01*
X118750Y129500D02*
X208750Y39500D01*
X118750Y129500D02*
Y432300D01*
X226360Y57940D02*
X227800Y56500D01*
X219560Y57940D02*
X226360D01*
X252649Y55949D02*
X253200Y56500D01*
X252649Y49807D02*
Y55949D01*
X242342Y39500D02*
X252649Y49807D01*
X208750Y39500D02*
X242342D01*
X357750Y476858D02*
Y516250D01*
X336000Y471600D02*
X337244Y472844D01*
X353736D01*
X357750Y476858D01*
X342000Y532000D02*
X357750Y516250D01*
X102750Y532000D02*
X342000D01*
X97358Y458250D02*
X118200D01*
X91500Y464108D02*
X97358Y458250D01*
X91500Y464108D02*
Y520750D01*
X102750Y532000D01*
X118200Y458250D02*
X118750Y457700D01*
X241550Y484300D02*
X310600D01*
X202250Y445000D02*
X241550Y484300D01*
X144150Y445000D02*
X202250D01*
D56*
X270250Y107500D02*
X270824Y108074D01*
X281524D01*
X344000Y170550D01*
D57*
X284120Y236620D02*
X307870D01*
X367750Y296500D02*
X400750D01*
X307870Y236620D02*
X367750Y296500D01*
X406732Y275268D02*
Y290518D01*
Y275268D02*
X408500Y273500D01*
X400750Y296500D02*
X406732Y290518D01*
X227000Y179500D02*
X284120Y236620D01*
X167000Y251750D02*
Y274500D01*
X184750Y292250D01*
X227000Y179500D02*
X294143D01*
X209750D02*
X227000D01*
X301734Y285984D02*
Y329735D01*
X298220Y333250D02*
X301734Y329735D01*
X294143Y179500D02*
X294197Y179553D01*
X184750Y204500D02*
Y292250D01*
X225750Y333250D02*
X298220D01*
X184750Y292250D02*
X225750Y333250D01*
X184750Y204500D02*
X209750Y179500D01*
D58*
X154000Y30250D02*
D03*
X128600D02*
D03*
X97000Y140100D02*
D03*
D59*
Y190900D02*
D03*
D62*
X336000Y471600D02*
D03*
X310600Y484300D02*
D03*
X118750Y457700D02*
D03*
X144150Y445000D02*
D03*
X118750Y432300D02*
D03*
X144150Y419600D02*
D03*
D64*
X433900Y273500D02*
D03*
D65*
X408500D02*
D03*
X383100D02*
D03*
D67*
X344000Y170550D02*
D03*
Y297550D02*
D03*
D70*
X304000Y56500D02*
D03*
X278600D02*
D03*
X253200D02*
D03*
D71*
X227800D02*
D03*
D72*
X34500Y329750D02*
D03*
X404500D02*
D03*
Y29750D02*
D03*
X34500D02*
D03*
D73*
X221761Y231765D02*
D03*
X167000Y251750D02*
D03*
X151250Y180750D02*
D03*
X301734Y285984D02*
D03*
X270250Y107500D02*
D03*
X294197Y179553D02*
D03*
X246500Y316000D02*
D03*
D74*
X40500Y167500D02*
D03*
M02*
