M48
;Layer_Color=9474304
;FILE_FORMAT=4:4
METRIC,LZ
;TYPE=PLATED
T1F00S00C0.3000
T2F00S00C0.7110
T3F00S00C0.7800
T4F00S00C0.8000
T5F00S00C0.9000
T6F00S00C1.0000
T7F00S00C1.0160
T8F00S00C1.1000
T9F00S00C1.8000
T10F00S00C3.2000
;TYPE=NON_PLATED
T11F00S00C3.1750
T12F00S00C3.4000
%
T01
X001545Y0015525
X0030175Y00147
X002985Y0011225
X0027025Y001075
X00294197Y00179553
X0030525Y00192
X0031175Y0020525
X00303875Y002155
X002905Y0022275
X002585Y00236
X002575Y00251
X0024625Y002485
X0023475Y0024475
X0021376Y00244762
X0020325Y002345
X00221761Y00231765
X00167Y0025175
X0015125Y0018075
X00155Y0016875
X00199Y0033675
X002375Y00323
X002465Y00316
X00287Y00311
X002875Y00324
X00301734Y00285984
X002675Y0028175
T02
X000405Y001675
T03
X002278Y000565
X002532
X002786
X00304
T04
X00344Y0017055
Y0019595
Y0022135
Y0024675
Y0029755
Y0032295
T05
X001032Y0003025
X001286
X00154
X00097Y000893
Y001147
Y001401
Y001655
Y001909
T06
X0022675Y003851
Y004105
Y004359
T07
X003831Y002735
X004085
X004339
T08
X0011875Y004323
Y004577
Y004831
Y005085
X0014415Y004958
Y004704
Y00445
Y004196
X003106Y004335
Y004589
Y004843
Y005097
X00336Y00497
Y004716
Y004462
Y004208
T09
X0043Y0038775
Y0054275
X0002475Y0054155
Y0038655
T10
X000345Y0002975
X004045
Y0032975
X000345
T11
X004085Y00091
T12
X0005525Y004069
Y005212
X003995Y005224
Y004081
M30
