M48
;Layer_Color=9474304
;FILE_FORMAT=4:4
METRIC,LZ
;TYPE=PLATED
T1F00S00C0.3000
T2F00S00C0.6000
T3F00S00C0.7110
T4F00S00C0.7800
T5F00S00C0.8000
T6F00S00C0.9000
T7F00S00C1.0000
T8F00S00C1.0160
T9F00S00C1.0700
T10F00S00C3.2000
;TYPE=NON_PLATED
T11F00S00C3.1750
%
T01
X000975Y0012775
X003085Y0006625
X00327Y00062
X0027425Y00187
X00298197Y00259053
X0031475Y0027175
X0031575Y0028475
X00307875Y00295
X002945Y0030225
X002625Y003155
X002615Y003305
X00249262Y00321766
X00234511Y00323516
X00222511Y00326016
X00225761Y00311265
X0021001Y00317766
X00154Y00275
X00115436Y00358436
X00203Y0041625
X002415Y004025
X002505Y003955
X00291Y003905
X002915Y004035
X00305734Y00365484
X002715Y0036125
T02
X001375Y0013125
Y0015125
Y0017125
T03
X00059Y00219
X0013625Y0034775
X000345Y003215
Y0029775
T04
X0022075Y001255
X0024615
X0027155
X0029695
T05
X00348Y0025005
Y0027545
Y0030085
Y0032625
Y0037705
Y0040245
T06
X004355Y002646
Y0029
Y003154
Y003408
Y003662
T07
X0033625Y001137
Y001391
Y001645
T08
X0037985Y0021875
X0040525
X0043065
T09
X001565Y000406
X001819
X002073
X002327
X002581
Y00066
X002327
X002073
X001819
X001565
T10
X000725Y0033625
T11
X0040525Y0003625
M30
